<svg width="43" height="44" viewBox="0 0 43 44" fill="none" xmlns="http://www.w3.org/2000/svg">
<g id="001-shuttle" clip-path="url(#clip0_1525_75591)">
<path id="Vector" d="M10.9892 12.1602L7.28201 12.4466C6.25045 12.5263 5.33171 13.0669 4.76122 13.9299L0.485782 20.3962C0.0531145 21.0506 -0.0156677 21.8696 0.301666 22.587C0.619084 23.3044 1.27139 23.8043 2.04654 23.9244L5.44094 24.4501C6.23498 20.2363 8.13581 16.0328 10.9892 12.1602Z" fill="white"/>
<path id="Vector_2" d="M19.0498 38.06L19.5756 41.4544C19.6957 42.2296 20.1956 42.8819 20.9129 43.1992C21.2114 43.3312 21.5273 43.3964 21.8416 43.3964C22.2832 43.3964 22.7216 43.2678 23.1038 43.0151L29.5703 38.7397C30.4332 38.1692 30.9739 37.2503 31.0534 36.2189L31.3398 32.5117C27.4671 35.3652 23.2637 37.266 19.0498 38.06Z" fill="white"/>
<path id="Vector_3" d="M17.773 35.7052C17.8909 35.7052 18.0094 35.6955 18.1277 35.6758C19.8931 35.3806 21.5947 34.8833 23.2179 34.2324L9.26671 20.2812C8.61582 21.9044 8.11855 23.6059 7.82337 25.3715C7.70703 26.0674 7.94046 26.7764 8.43931 27.2753L16.2238 35.0598C16.638 35.4739 17.197 35.7052 17.773 35.7052Z" fill="white"/>
<path id="Vector_4" d="M39.4832 19.5772C42.8971 12.977 43.0236 6.00215 42.8451 2.73103C42.784 1.61021 41.8905 0.716623 40.7696 0.65553C40.2369 0.626446 39.6057 0.605469 38.8942 0.605469C35.2365 0.605469 29.4488 1.15949 23.9234 4.0175C19.5322 6.28881 13.7741 11.29 10.377 17.8625C10.4171 17.8939 10.4563 17.9271 10.4932 17.9641L25.5367 33.0075C25.5736 33.0445 25.6068 33.0836 25.6382 33.1237C32.2106 29.7265 37.2119 23.9684 39.4832 19.5772ZM24.9846 9.65162C27.4284 7.2078 31.405 7.20755 33.849 9.65162C35.0329 10.8355 35.6849 12.4096 35.6849 14.0838C35.6849 15.7581 35.0329 17.3322 33.849 18.5161C32.6272 19.7379 31.0217 20.3489 29.4168 20.349C27.8114 20.3491 26.2067 19.7382 24.9846 18.5161C23.8007 17.3322 23.1486 15.7581 23.1486 14.0838C23.1486 12.4096 23.8007 10.8355 24.9846 9.65162Z" fill="white"/>
<path id="Vector_5" d="M26.7578 16.7427C28.2241 18.209 30.6102 18.2091 32.0765 16.7427C32.7868 16.0323 33.1781 15.0879 33.1781 14.0833C33.1781 13.0787 32.7868 12.1343 32.0765 11.424C31.3434 10.6908 30.3803 10.3242 29.4172 10.3242C28.4541 10.3242 27.491 10.6908 26.7579 11.424C26.0476 12.1343 25.6562 13.0787 25.6562 14.0833C25.6562 15.0879 26.0475 16.0323 26.7578 16.7427Z" fill="white"/>
<path id="Vector_6" d="M1.38356 35.8698C1.7044 35.8698 2.02525 35.7474 2.26996 35.5026L6.36291 31.4096C6.85249 30.92 6.85249 30.1263 6.36291 29.6367C5.87341 29.1471 5.0796 29.1471 4.59002 29.6367L0.497072 33.7297C0.00748638 34.2193 0.00748638 35.013 0.497072 35.5026C0.741865 35.7474 1.06271 35.8698 1.38356 35.8698Z" fill="white"/>
<path id="Vector_7" d="M10.1136 33.3867C9.62413 32.8971 8.83033 32.8971 8.34074 33.3867L0.471681 41.2558C-0.0179042 41.7454 -0.0179042 42.5391 0.471681 43.0287C0.716474 43.2735 1.03732 43.3958 1.35817 43.3958C1.67901 43.3958 1.99986 43.2735 2.24457 43.0286L10.1135 35.1596C10.6032 34.67 10.6032 33.8763 10.1136 33.3867Z" fill="white"/>
<path id="Vector_8" d="M12.0919 37.1367L7.99903 41.2297C7.50944 41.7193 7.50944 42.513 7.99903 43.0026C8.24382 43.2473 8.56466 43.3698 8.88543 43.3698C9.20619 43.3698 9.52712 43.2474 9.77183 43.0026L13.8648 38.9096C14.3544 38.42 14.3544 37.6263 13.8648 37.1367C13.3753 36.6471 12.5815 36.6471 12.0919 37.1367Z" fill="white"/>
</g>
<defs>
<clipPath id="clip0_1525_75591">
<rect width="42.7907" height="42.7907" fill="white" transform="translate(0.104492 0.605469)"/>
</clipPath>
</defs>
</svg>
