<svg width="34" height="34" viewBox="0 0 34 34" fill="none" xmlns="http://www.w3.org/2000/svg">
<g clip-path="url(#clip0_1518_102374)">
<path d="M20.4779 9.56114L23.607 7.28746C23.9587 7.03184 24.1056 6.57936 23.9714 6.16605C23.8372 5.75274 23.4523 5.47312 23.0174 5.47312H19.1488L17.9539 1.79449C17.8198 1.38118 17.4349 1.10156 17 1.10156C16.5652 1.10156 16.1802 1.38118 16.0461 1.79449L14.8512 5.47312H10.9826C10.5477 5.47312 10.1628 5.75274 10.0286 6.16605C9.89444 6.57936 10.0414 7.03184 10.393 7.28746L13.5221 9.56114L12.3273 13.2403C12.1931 13.6536 12.34 14.1065 12.6916 14.3617C13.0442 14.6173 13.5182 14.6173 13.8708 14.3617L17 12.088L20.1292 14.3617C20.4778 14.6144 20.9609 14.6136 21.3084 14.3617C21.66 14.1065 21.8069 13.6536 21.6727 13.2403L20.4779 9.56114Z" fill="#FF9A6B"/>
<path d="M9.97966 9.46157H8.37246C7.93663 9.46157 7.55271 9.18294 7.41853 8.76864L6.92197 7.23979C6.78779 6.8265 6.40288 6.54688 5.96803 6.54688C5.53318 6.54688 5.14828 6.8265 5.0141 7.23979L4.51754 8.76864C4.38336 9.18294 3.99944 9.46157 3.5636 9.46157H1.9564C1.52155 9.46157 1.13665 9.74119 1.00247 10.1545C0.86829 10.5678 1.01521 11.0208 1.3668 11.2759L2.66745 12.2201C3.02004 12.4767 3.16597 12.9277 3.03179 13.342C3.03179 13.342 2.53693 14.8651 2.53524 14.8703C2.24346 15.7684 3.31275 16.5502 4.07878 15.9917L5.37844 15.0471C5.73102 14.7905 6.20506 14.7905 6.55764 15.0471C6.55764 15.0471 7.85717 15.9916 7.85731 15.9917C8.61054 16.5392 9.69898 15.7887 9.40084 14.8703L8.90428 13.3425C8.7701 12.9277 8.91604 12.4767 9.26862 12.2206L10.5693 11.2759C10.9209 11.0208 11.0678 10.5678 10.9336 10.1545C10.7994 9.7412 10.4145 9.46157 9.97966 9.46157Z" fill="#FF9A6B"/>
<path d="M25.0958 13.342C25.0958 13.342 24.6011 14.8645 24.5992 14.8703C24.3076 15.7677 25.3796 16.5481 26.1427 15.9917L27.4424 15.0471C27.795 14.7905 28.269 14.7905 28.6216 15.0471L29.9213 15.9917C30.6911 16.553 31.7575 15.7721 31.4648 14.8703L30.9682 13.3425C30.8341 12.9277 30.98 12.4767 31.3326 12.2206L32.6332 11.2759C32.9848 11.0208 33.1317 10.5678 32.9976 10.1545C32.8634 9.7412 32.4785 9.46157 32.0436 9.46157H30.4364C30.0006 9.46157 29.6167 9.18294 29.4825 8.76865L28.9859 7.2398C28.8518 6.8265 28.4668 6.54688 28.032 6.54688C27.5971 6.54688 27.2122 6.8265 27.0781 7.2398L26.5815 8.76865C26.4473 9.18294 26.0634 9.46157 25.6276 9.46157H24.0204C23.5855 9.46157 23.2006 9.74119 23.0664 10.1545C22.9323 10.5678 23.0792 11.0208 23.4308 11.2759L24.7314 12.2201C25.084 12.4767 25.2299 12.9277 25.0958 13.342Z" fill="#FF9A6B"/>
<path d="M18.5044 17H15.4957C13.8366 17 12.4869 18.3496 12.4869 20.0087V30.0378C12.4869 31.6969 13.8366 33.0465 15.4957 33.0465H18.5044C20.1635 33.0465 21.5131 31.6969 21.5131 30.0378V20.0087C21.5131 18.3496 20.1635 17 18.5044 17Z" fill="#FF9A6B"/>
<path d="M30.0378 21.0117H27.0291C25.37 21.0117 24.0204 22.3613 24.0204 24.0204V30.0379C24.0204 31.697 25.37 33.0466 27.0291 33.0466H30.0378C31.6969 33.0466 33.0465 31.697 33.0465 30.0379V24.0204C33.0465 22.3613 31.6969 21.0117 30.0378 21.0117Z" fill="#FF9A6B"/>
<path d="M6.97093 21.0117H3.96221C2.3031 21.0117 0.953491 22.3613 0.953491 24.0204V30.0379C0.953491 31.697 2.3031 33.0466 3.96221 33.0466H6.97093C8.63004 33.0466 9.97965 31.697 9.97965 30.0379V24.0204C9.97965 22.3613 8.63004 21.0117 6.97093 21.0117Z" fill="#FF9A6B"/>
</g>
<defs>
<clipPath id="clip0_1518_102374">
<rect width="32.093" height="32.093" fill="white" transform="translate(0.953491 0.953125)"/>
</clipPath>
</defs>
</svg>
