<svg width="34" height="34" viewBox="0 0 34 34" fill="none" xmlns="http://www.w3.org/2000/svg">
<g clip-path="url(#clip0_1128_3215)">
<path d="M22.3515 15.9584C21.2871 15.9584 20.8847 17.2916 20.8685 17.3488C20.7465 17.7665 20.3774 18.106 19.9234 18.0545C19.4866 18.0517 19.1042 17.7627 18.9879 17.3422C18.9735 17.2916 18.5711 15.9584 17.5068 15.9584C16.5569 15.9584 16.0601 16.7899 16.0601 17.612C16.0601 18.7754 17.112 19.7148 19.3007 21.5612C19.5038 21.7329 19.7136 21.9102 19.9291 22.0933C20.1447 21.9102 20.3545 21.7338 20.5567 21.5622C22.0304 20.3192 23.7982 18.9281 23.7982 17.612C23.7982 16.7899 23.3013 15.9584 22.3515 15.9584Z" fill="white"/>
<path d="M29.6948 18.888C29.6948 14.5972 27.1939 10.8347 23.3678 9.11691C23.6539 8.57036 23.8354 7.96521 23.8354 7.31899C23.8354 5.63956 22.7654 4.15564 21.1728 3.62544L19.9292 3.20962C18.358 2.68709 16.9095 1.7908 15.7378 0.620292C15.5555 0.43748 15.3004 0.333313 15.0464 0.333313H9.18701C8.76644 0.333313 8.39352 0.602258 8.26097 1.00089L7.24814 4.0393C6.56149 6.09829 6.79326 8.35564 7.88232 10.2315C9.12113 12.3649 8.76449 15.0895 6.99443 17.0131C5.2598 18.8995 4.3042 21.3495 4.3042 23.912C4.3042 25.9309 4.89548 27.8849 6.01507 29.5625L8.37445 33.2318C8.55563 33.5036 8.86084 33.6666 9.18695 33.6666H20.9057C21.4455 33.6666 21.8823 33.2299 21.8823 32.6901C21.8823 31.5517 21.6483 30.3407 21.2526 29.3415C26.1403 28.2828 29.6948 24.0269 29.6948 18.888ZM21.8166 23.0546C21.4246 23.3855 21.0069 23.7384 20.5692 24.118C20.3851 24.2772 20.1572 24.3564 19.9293 24.3564C19.7013 24.3564 19.4734 24.2772 19.2894 24.118C18.8507 23.7374 18.433 23.3855 18.041 23.0536C15.7569 21.1272 14.1071 19.7348 14.1071 17.612C14.107 15.5892 15.6005 14.0052 17.5069 14.0052C18.5797 14.0052 19.3751 14.4954 19.9292 15.1124C20.4833 14.4954 21.2787 14.0052 22.3515 14.0052C24.2579 14.0052 25.7514 15.5892 25.7514 17.612C25.7514 19.8904 23.7372 21.4346 21.8166 23.0546Z" fill="white"/>
</g>
<defs>
<clipPath id="clip0_1128_3215">
<rect width="33.3333" height="33.3333" fill="white" transform="translate(0.332764 0.333313)"/>
</clipPath>
</defs>
</svg>
