<svg width="33" height="34" viewBox="0 0 33 34" fill="none" xmlns="http://www.w3.org/2000/svg">
<g clip-path="url(#clip0_1128_10851)">
<path d="M18.6605 19.5068C18.6605 16.7775 16.448 14.5651 13.7188 14.5651C11.9722 14.5651 10.4372 15.4713 9.55833 16.8391C8.67947 15.4713 7.14452 14.5651 5.39783 14.5651C2.6686 14.5651 0.456129 16.7775 0.456129 19.5068C0.456129 19.5068 0.0429939 24.9032 9.55833 31.0797C19.0737 24.9032 18.6605 19.5068 18.6605 19.5068Z" fill="#FF9A6B"/>
<path d="M32.5428 9.8349C32.5428 6.01601 29.447 2.92017 25.6281 2.92017C23.1841 2.92017 21.0363 4.18815 19.8065 6.10214C18.5768 4.18815 16.429 2.92017 13.985 2.92017C10.1661 2.92017 7.07023 6.01601 7.07023 9.8349C7.07023 9.8349 6.97639 11.0636 7.73791 13.0967C8.39237 13.3349 9.0064 13.671 9.55831 14.0963C10.7325 13.1912 12.1854 12.6846 13.7188 12.6846C15.5411 12.6846 17.2542 13.3942 18.5428 14.6828C19.8191 15.9591 20.5275 17.6521 20.5408 19.455C20.5605 19.9307 20.5218 21.5484 19.3515 23.834C19.1188 24.2884 18.8542 24.7424 18.5597 25.1947C18.9613 25.4714 19.3765 25.7494 19.8066 26.0285C33.1209 17.3858 32.5428 9.8349 32.5428 9.8349Z" fill="#FF9A6B"/>
</g>
<defs>
<clipPath id="clip0_1128_10851">
<rect width="32.093" height="32.093" fill="white" transform="translate(0.453491 0.953491)"/>
</clipPath>
</defs>
</svg>
