<svg width="44" height="44" viewBox="0 0 44 44" fill="none" xmlns="http://www.w3.org/2000/svg">
<g id="002-guru" clip-path="url(#clip0_1525_49732)">
<g id="Group">
<path id="Vector" d="M28.6854 30.6914H27.8497C27.8497 33.9173 25.2252 36.5417 21.9994 36.5417C18.7735 36.5417 16.1491 33.9173 16.1491 30.6914H15.3133C10.0137 30.6914 5.70215 35.003 5.70215 40.3026V42.1413C5.70215 42.8336 6.26344 43.3949 6.95578 43.3949H37.043C37.7353 43.3949 38.2966 42.8336 38.2966 42.1413V40.3026C38.2966 35.003 33.985 30.6914 28.6854 30.6914Z" fill="white"/>
<g id="Group_2">
<path id="Vector_2" d="M18.6562 29.4375V30.6911C18.6562 32.5374 20.153 34.0342 21.9993 34.0342C23.8455 34.0342 25.3423 32.5374 25.3423 30.6911V29.4375H18.6562Z" fill="white"/>
<g id="Group_3">
<path id="Vector_3" d="M21.9988 5.62C22.6911 5.62 23.2524 5.05871 23.2524 4.36637V1.8591C23.2524 1.16676 22.6911 0.605469 21.9988 0.605469C21.3064 0.605469 20.7451 1.16676 20.7451 1.8591V4.36637C20.7451 5.05871 21.3064 5.62 21.9988 5.62Z" fill="white"/>
<path id="Vector_4" d="M12.5559 4.72437L13.8095 6.89575C14.1557 7.49532 14.9224 7.70075 15.522 7.35458C16.1215 7.00841 16.327 6.24169 15.9808 5.64212L14.7271 3.47074C14.381 2.87117 13.6143 2.66574 13.0147 3.01191C12.4151 3.35808 12.2097 4.1248 12.5559 4.72437Z" fill="white"/>
<path id="Vector_5" d="M6.89652 11.3004L9.0679 12.554C9.66747 12.9002 10.4342 12.6948 10.7804 12.0952C11.1265 11.4956 10.9211 10.7289 10.3215 10.3827L8.15015 9.1291C7.55058 8.78293 6.78386 8.98836 6.43769 9.58793C6.09152 10.1875 6.29695 10.9542 6.89652 11.3004Z" fill="white"/>
<path id="Vector_6" d="M35.8482 9.1291L33.6768 10.3827C33.0772 10.7289 32.8718 11.4956 33.218 12.0952C33.5641 12.6948 34.3309 12.9002 34.9304 12.554L37.1018 11.3004C37.7014 10.9542 37.9068 10.1875 37.5606 9.58793C37.2145 8.98836 36.4477 8.78293 35.8482 9.1291Z" fill="white"/>
<path id="Vector_7" d="M28.4766 7.35458C29.0762 7.70075 29.8429 7.49532 30.1891 6.89575L31.4427 4.72437C31.7889 4.1248 31.5834 3.35808 30.9839 3.01191C30.3843 2.66574 29.6176 2.87117 29.2714 3.47074L28.0178 5.64212C27.6716 6.24169 27.877 7.00841 28.4766 7.35458Z" fill="white"/>
</g>
<path id="Vector_8" d="M21.999 8.12891C16.9217 8.12891 12.8057 12.2449 12.8057 17.3222C12.8057 20.5894 14.5128 23.4529 17.0818 25.0815C17.7706 25.5182 18.2715 26.1773 18.5063 26.9334H20.7453V20.3487L18.6052 18.2087C18.1156 17.7191 18.1156 16.9254 18.6052 16.4358C19.0948 15.9462 19.8885 15.9462 20.3781 16.4358L21.999 18.0566L23.6198 16.4358C24.1093 15.9462 24.9031 15.9462 25.3926 16.4358C25.8822 16.9254 25.8822 17.7191 25.3926 18.2087L23.2526 20.3487V26.9334H25.4917C25.7264 26.1773 26.2274 25.5182 26.9161 25.0815C29.4852 23.4529 31.1923 20.5894 31.1923 17.3222C31.1923 12.2449 27.0763 8.12891 21.999 8.12891Z" fill="white"/>
</g>
</g>
</g>
<defs>
<clipPath id="clip0_1525_49732">
<rect width="42.7907" height="42.7907" fill="white" transform="translate(0.604492 0.605469)"/>
</clipPath>
</defs>
</svg>
