<svg width="33" height="34" viewBox="0 0 33 34" fill="none" xmlns="http://www.w3.org/2000/svg">
<g clip-path="url(#clip0_1128_10018)">
<path d="M30.5972 30.926V15.8855H24.957V30.926H23.0769V19.6456H17.4367V30.926H15.5567V23.4058H9.91649V30.926H8.03642V27.1659H2.39623V30.926H0.453491V32.8061C0.746969 32.8061 33.0759 32.8061 32.5399 32.8061V30.926H30.5972Z" fill="#29C189"/>
<path d="M5.71662 19.7429C8.79008 19.7429 13.3479 19.3602 17.6066 17.5379C21.7523 15.7634 24.633 12.4824 26.4185 9.80467L29.0347 11.0247L27.5311 1.19385L19.035 6.36033L21.2951 7.41511C17.5781 13.2968 11.3091 17.1735 4.33044 17.8537L4.41216 19.7292L5.71662 19.7429Z" fill="#29C189"/>
</g>
<defs>
<clipPath id="clip0_1128_10018">
<rect width="32.093" height="32.093" fill="white" transform="translate(0.453491 0.953491)"/>
</clipPath>
</defs>
</svg>
