<svg width="34" height="34" viewBox="0 0 34 34" fill="none" xmlns="http://www.w3.org/2000/svg">
<g clip-path="url(#clip0_1518_102387)">
<path d="M3.36319 33.0455H5.82032C5.84024 33.0453 5.85982 33.0403 5.87744 33.031C5.89505 33.0217 5.9102 33.0083 5.92162 32.992C5.93304 32.9757 5.94041 32.9569 5.94311 32.9371C5.94581 32.9174 5.94377 32.8973 5.93716 32.8785C4.97762 30.2073 4.52932 27.434 4.83396 25.5789C4.8493 25.4803 4.90296 25.3918 4.98327 25.3326C5.06358 25.2734 5.16401 25.2484 5.2627 25.2629C5.31148 25.2701 5.35836 25.2868 5.40066 25.3121C5.44297 25.3374 5.47985 25.3708 5.50921 25.4104C5.53856 25.45 5.5598 25.495 5.57171 25.5429C5.58363 25.5907 5.58597 25.6404 5.57862 25.6892C5.2637 27.4776 5.80201 30.3981 6.76631 32.9638C6.77526 32.9879 6.79142 33.0087 6.81259 33.0233C6.83376 33.0379 6.85892 33.0457 6.88465 33.0455H12.5975C13.0741 33.0437 13.5325 32.8618 13.8807 32.5364C14.229 32.2109 14.4414 31.7659 14.4754 31.2904C14.7036 28.0059 14.4152 24.9746 13.6656 22.6855C13.4888 22.1403 13.27 21.6097 13.0112 21.0984C12.9665 21.0094 12.9586 20.9065 12.9891 20.8118C13.0195 20.7171 13.086 20.6381 13.1741 20.5919C13.2181 20.5693 13.2661 20.5556 13.3153 20.5516C13.3645 20.5476 13.4141 20.5533 13.4611 20.5684C13.5082 20.5836 13.5518 20.6078 13.5894 20.6398C13.6271 20.6718 13.6581 20.7109 13.6806 20.7549C13.809 21.0033 13.9313 21.2719 14.0494 21.5572C14.0575 21.5776 14.0707 21.5955 14.0878 21.6091C14.1049 21.6228 14.1252 21.6317 14.1469 21.6351C14.1685 21.6384 14.1906 21.6361 14.211 21.6282C14.2315 21.6203 14.2495 21.6073 14.2633 21.5903C16.0008 19.4233 17.694 16.7763 16.6918 15.1717C16.3709 14.6552 15.5987 13.9105 14.7913 13.9858C14.0091 14.056 13.6104 14.7053 13.1466 15.46C12.6225 16.4053 11.2134 18.1403 10.0501 18.2907C9.65825 18.2802 9.26733 18.2475 8.87918 18.1929C7.81527 18.0373 6.72935 18.1482 5.7189 18.5158C4.70845 18.8834 3.80509 19.4961 3.0899 20.2991C0.0962259 23.6382 1.00386 29.3122 1.53289 31.5963C1.62817 32.0097 1.86129 32.3785 2.19393 32.6418C2.52657 32.9052 2.93892 33.0476 3.36319 33.0455Z" fill="#7480EC"/>
<path d="M7.97386 17.5001C9.84324 17.5001 11.3587 15.9847 11.3587 14.1153C11.3587 12.2459 9.84324 10.7305 7.97386 10.7305C6.10448 10.7305 4.58905 12.2459 4.58905 14.1153C4.58905 15.9847 6.10448 17.5001 7.97386 17.5001Z" fill="#7480EC"/>
<path d="M17.0002 7.65877C17.3308 7.64992 17.6453 7.51431 17.8786 7.28003C18.112 7.04574 18.2463 6.73071 18.2538 6.40013C18.2288 5.36463 18.2313 3.29362 18.2538 2.27316C18.2538 1.94068 18.1218 1.62181 17.8867 1.38671C17.6516 1.15161 17.3327 1.01953 17.0002 1.01953C16.6677 1.01953 16.3489 1.15161 16.1138 1.38671C15.8787 1.62181 15.7466 1.94068 15.7466 2.27316C15.7691 3.2861 15.7717 5.3546 15.7466 6.40013C15.7545 6.73057 15.889 7.04536 16.1223 7.27956C16.3556 7.51375 16.6698 7.64949 17.0002 7.65877Z" fill="#7480EC"/>
<path d="M12.161 7.46336L9.23755 4.53989C9.12115 4.42333 8.98294 4.33084 8.8308 4.26769C8.67867 4.20455 8.51558 4.17199 8.35086 4.17188C8.18614 4.17176 8.02301 4.20409 7.87078 4.26702C7.71855 4.32994 7.58021 4.42224 7.46365 4.53863C7.22826 4.7737 7.09588 5.09265 7.09564 5.42532C7.09541 5.75799 7.22733 6.07713 7.4624 6.31253L10.3809 9.23099C10.4969 9.34787 10.6349 9.44075 10.7868 9.50433C10.9388 9.5679 11.1018 9.60092 11.2665 9.6015C11.4312 9.60209 11.5945 9.57022 11.7469 9.50772C11.8993 9.44522 12.0379 9.35332 12.1548 9.23725C12.2716 9.12119 12.3645 8.98324 12.4281 8.83128C12.4917 8.67932 12.5247 8.51633 12.5253 8.35161C12.5259 8.18688 12.494 8.02366 12.4315 7.87126C12.369 7.71885 12.2771 7.58025 12.161 7.46336Z" fill="#7480EC"/>
<path d="M21.8467 9.24101C22.0847 9.47168 22.4036 9.59983 22.735 9.59795C23.0665 9.59608 23.384 9.46433 23.6193 9.23099L26.5378 6.31253C26.7728 6.07713 26.9048 5.75799 26.9045 5.42532C26.9043 5.09265 26.7719 4.7737 26.5365 4.53863C26.3011 4.30357 25.982 4.17164 25.6493 4.17188C25.3167 4.17211 24.9977 4.30449 24.7626 4.53989L21.8392 7.46336C21.607 7.70141 21.4776 8.02118 21.479 8.35373C21.4804 8.68627 21.6125 9.00494 21.8467 9.24101Z" fill="#7480EC"/>
<path d="M32.4676 31.5968C32.9966 29.3127 33.9042 23.6387 30.9106 20.2991C30.1954 19.4961 29.292 18.8834 28.2816 18.5158C27.2711 18.1482 26.1852 18.0373 25.1213 18.1929C24.7331 18.2475 24.3422 18.2802 23.9504 18.2907C22.787 18.1403 21.3779 16.4053 20.8539 15.46C20.3901 14.7053 19.9914 14.056 19.2092 13.9858C18.4018 13.9105 17.6296 14.6552 17.3086 15.1717C16.3057 16.7763 17.9996 19.4228 19.7372 21.5903C19.751 21.6073 19.769 21.6203 19.7894 21.6282C19.8099 21.6361 19.832 21.6384 19.8536 21.6351C19.8752 21.6317 19.8956 21.6228 19.9127 21.6091C19.9298 21.5955 19.943 21.5776 19.9511 21.5572C20.0681 21.2729 20.1915 21.0056 20.3199 20.7549C20.3424 20.7109 20.3734 20.6718 20.4111 20.6398C20.4487 20.6078 20.4923 20.5836 20.5393 20.5684C20.5864 20.5533 20.6359 20.5476 20.6852 20.5516C20.7344 20.5556 20.7824 20.5693 20.8263 20.5919C20.9145 20.6381 20.9809 20.7171 21.0114 20.8118C21.0419 20.9065 21.034 21.0094 20.9893 21.0984C20.7304 21.6097 20.5117 22.1403 20.3349 22.6855C19.5852 24.9746 19.2969 28.0059 19.5251 31.2904C19.5591 31.7659 19.7715 32.2109 20.1197 32.5364C20.468 32.8618 20.9264 33.0437 21.403 33.0455H27.1148C27.1405 33.0457 27.1657 33.0379 27.1869 33.0233C27.208 33.0087 27.2242 32.9879 27.2332 32.9638C28.1975 30.3981 28.7358 27.4776 28.4209 25.6892C28.4135 25.6404 28.4158 25.5907 28.4278 25.5429C28.4397 25.495 28.4609 25.45 28.4903 25.4104C28.5196 25.3708 28.5565 25.3374 28.5988 25.3121C28.6411 25.2868 28.688 25.2701 28.7368 25.2629C28.8355 25.2484 28.9359 25.2734 29.0162 25.3326C29.0965 25.3918 29.1502 25.4803 29.1655 25.5789C29.4706 27.4342 29.0223 30.2073 28.0623 32.8785C28.0557 32.8973 28.0537 32.9174 28.0564 32.9371C28.0591 32.9569 28.0664 32.9757 28.0778 32.992C28.0893 33.0083 28.1044 33.0217 28.122 33.031C28.1396 33.0403 28.1592 33.0453 28.1792 33.0455H30.6363C31.0607 33.0478 31.4732 32.9056 31.806 32.6423C32.1389 32.3791 32.3722 32.0103 32.4676 31.5968Z" fill="#7480EC"/>
<path d="M26.0262 17.5001C27.8955 17.5001 29.411 15.9847 29.411 14.1153C29.411 12.2459 27.8955 10.7305 26.0262 10.7305C24.1568 10.7305 22.6414 12.2459 22.6414 14.1153C22.6414 15.9847 24.1568 17.5001 26.0262 17.5001Z" fill="#7480EC"/>
</g>
<defs>
<clipPath id="clip0_1518_102387">
<rect width="32.093" height="32.093" fill="white" transform="translate(0.953491 0.953125)"/>
</clipPath>
</defs>
</svg>
