<svg width="34" height="34" viewBox="0 0 34 34" fill="none" xmlns="http://www.w3.org/2000/svg">
<g clip-path="url(#clip0_1128_10296)">
<path d="M27.4521 10.8164C27.4521 5.04074 22.7813 0.355964 17.011 0.333313C4.35696 0.61704 2.62947 18.3068 14.862 21.0877V24.7175H11.1055C10.663 24.7175 10.3042 25.0762 10.3042 25.5188V28.1299C10.3042 28.5725 10.663 28.9312 11.1055 28.9312H14.862V32.8653C14.862 33.3078 15.2208 33.6666 15.6633 33.6666H18.2745C18.717 33.6666 19.0758 33.3078 19.0758 32.8653V28.9312H22.8322C23.2748 28.9312 23.6336 28.5725 23.6336 28.1299V25.5188C23.6336 25.0762 23.2748 24.7175 22.8322 24.7175H19.0758V21.0877C23.8557 20.1124 27.4521 15.8844 27.4521 10.8164ZM16.969 17.0089C13.5489 17.0089 10.7765 14.2364 10.7765 10.8164C11.0801 2.61107 22.8591 2.61328 23.1615 10.8165C23.1614 14.2364 20.389 17.0089 16.969 17.0089Z" fill="white"/>
</g>
<defs>
<clipPath id="clip0_1128_10296">
<rect width="33.3333" height="33.3333" fill="white" transform="translate(0.332764 0.333313)"/>
</clipPath>
</defs>
</svg>
