<svg width="33" height="34" viewBox="0 0 33 34" fill="none" xmlns="http://www.w3.org/2000/svg">
<g clip-path="url(#clip0_1128_4774)">
<path d="M30.6661 14.1794H24.962V17.9403C24.962 20.0145 23.2753 21.7012 21.2011 21.7012H15.5598V23.5816C15.5598 24.6183 16.4036 25.4621 17.4402 25.4621H24.962V29.223L28.7229 25.4621H30.6661C31.7027 25.4621 32.5465 24.6183 32.5465 23.5816V16.0598C32.5465 15.0232 31.7027 14.1794 30.6661 14.1794Z" fill="#FFC656"/>
<path d="M2.33394 19.8207H6.15753L9.91843 23.5816V19.8207H21.2011C22.2378 19.8207 23.0816 18.9769 23.0816 17.9403V6.65755C23.0816 5.62092 22.2378 4.7771 21.2011 4.7771H2.33394C1.29731 4.7771 0.453491 5.62092 0.453491 6.65755V17.9403C0.453491 18.9769 1.29731 19.8207 2.33394 19.8207ZM14.6196 7.59778H20.2609V9.47823H14.6196V7.59778ZM14.6196 11.3587H20.2609V13.2391H14.6196V11.3587ZM14.6196 15.1196H20.2609V17H14.6196V15.1196ZM4.94181 10.6939L7.09775 12.8498L11.1341 8.81342L12.4637 10.143L7.09775 15.5089L3.61233 12.0235L4.94181 10.6939Z" fill="#FFC656"/>
</g>
<defs>
<clipPath id="clip0_1128_4774">
<rect width="32.093" height="32.093" fill="white" transform="translate(0.453491 0.953491)"/>
</clipPath>
</defs>
</svg>
