<svg width="34" height="34" viewBox="0 0 34 34" fill="none" xmlns="http://www.w3.org/2000/svg">
<g clip-path="url(#clip0_1518_102401)">
<path d="M32.1063 29.1602H1.89372C1.37446 29.1602 0.953491 29.5811 0.953491 30.1004V32.1062C0.953491 32.6255 1.37446 33.0464 1.89372 33.0464H32.1063C32.6255 33.0464 33.0465 32.6255 33.0465 32.1062V30.1004C33.0465 29.5811 32.6255 29.1602 32.1063 29.1602Z" fill="#FFC656"/>
<path d="M6.34412 27.2804H13.8659C15.2506 27.2804 16.3732 26.1579 16.3732 24.7732V24.4598C16.3732 23.9405 15.9522 23.5195 15.433 23.5195H4.77708C4.25782 23.5195 3.83685 23.9405 3.83685 24.4598V24.7732C3.83685 26.1579 4.95942 27.2804 6.34412 27.2804Z" fill="#FFC656"/>
<path d="M20.1341 17.565C21.865 17.565 23.2682 16.1619 23.2682 14.431C23.2682 12.7001 21.865 11.2969 20.1341 11.2969C18.4032 11.2969 17 12.7001 17 14.431C17 16.1619 18.4032 17.565 20.1341 17.565Z" fill="#FFC656"/>
<path d="M7.6202 18.9395L10.021 20.954C10.4188 21.2878 11.0118 21.2359 11.3456 20.8381L11.95 20.1178L8.10861 16.8945L7.50424 17.6147C7.17052 18.0126 7.22242 18.6057 7.6202 18.9395Z" fill="#FFC656"/>
<path d="M25.0446 4.51223C25.3784 4.11445 25.3265 3.52142 24.9287 3.18764L22.5279 1.17311C22.1301 0.839331 21.537 0.891231 21.2033 1.28901L20.5989 2.00928L24.4403 5.23257L25.0446 4.51223Z" fill="#FFC656"/>
<path d="M9.3174 15.452L13.1588 18.6753C13.9543 19.3429 15.1405 19.2391 15.808 18.4435L16.3863 17.7543C15.599 16.8685 15.1195 15.7033 15.1195 14.4278C15.1195 11.6627 17.3691 9.41322 20.1341 9.41322C21.0964 9.41322 21.9959 9.68626 22.7602 10.1581L23.4633 9.32033C24.1308 8.52477 24.0271 7.33865 23.2315 6.67109L19.3902 3.4478C18.5946 2.78024 17.4085 2.88398 16.7409 3.6796L9.0856 12.8028C8.41804 13.5984 8.52184 14.7845 9.3174 15.452Z" fill="#FFC656"/>
<path d="M25.1484 14.4318C25.1484 15.198 24.9751 15.9242 24.6665 16.5743C26.4068 17.1971 27.6557 18.862 27.6557 20.8138C27.6557 22.645 26.5618 24.279 24.868 24.9763L19.2695 27.2815H28.297C30.2405 25.7421 31.4166 23.3847 31.4166 20.8138C31.4166 16.8387 28.5949 13.5107 24.8494 12.7266C25.0426 13.2591 25.1484 13.8333 25.1484 14.4318Z" fill="#FFC656"/>
</g>
<defs>
<clipPath id="clip0_1518_102401">
<rect width="32.093" height="32.093" fill="white" transform="translate(0.953491 0.953125)"/>
</clipPath>
</defs>
</svg>
