<svg width="34" height="34" viewBox="0 0 34 34" fill="none" xmlns="http://www.w3.org/2000/svg">
<g clip-path="url(#clip0_1128_10303)">
<path d="M33.6559 2.23417C33.6529 2.20412 33.6471 2.1749 33.6428 2.14527C33.6376 2.10787 33.6333 2.07035 33.6258 2.03323C33.619 1.99861 33.6095 1.96496 33.6009 1.93103C33.5928 1.89945 33.5861 1.8676 33.5765 1.8363C33.5663 1.80251 33.5535 1.77011 33.5417 1.73715C33.5307 1.70627 33.5206 1.67511 33.5078 1.64464C33.4949 1.61348 33.4798 1.58357 33.4654 1.55324C33.4506 1.52222 33.437 1.49092 33.4208 1.46059C33.4051 1.43096 33.3869 1.40284 33.3696 1.37404C33.352 1.34468 33.3355 1.31505 33.3164 1.28638C33.2945 1.2537 33.2703 1.22281 33.2466 1.19138C33.2295 1.16867 33.2138 1.14526 33.1957 1.1231C33.1084 1.01675 33.0109 0.919392 32.9046 0.832146C32.8837 0.814835 32.8612 0.800017 32.8398 0.783676C32.8074 0.759026 32.7752 0.73396 32.7412 0.711248C32.714 0.693107 32.6858 0.677319 32.6578 0.660563C32.6275 0.642421 32.5978 0.623448 32.5667 0.606692C32.5381 0.591458 32.5088 0.578579 32.4797 0.564731C32.4474 0.549359 32.4154 0.533294 32.3823 0.519584C32.3544 0.50809 32.3257 0.498811 32.2973 0.488425C32.2619 0.475546 32.2267 0.461974 32.1905 0.451034C32.1627 0.442586 32.1345 0.436631 32.1065 0.429292C32.0689 0.419736 32.0317 0.40935 31.9935 0.401733C31.9622 0.39564 31.9307 0.392178 31.8993 0.387331C31.8638 0.38193 31.8287 0.375421 31.7925 0.371959C31.7391 0.366696 31.6856 0.364896 31.6319 0.363788C31.6175 0.363511 31.6035 0.361572 31.5888 0.361572H25.0303C23.8831 0.361572 22.953 1.29164 22.953 2.43886C22.953 3.58607 23.8831 4.51614 25.0303 4.51614H26.5741L23.4446 7.64619C21.0287 5.82829 18.0266 4.74935 14.7772 4.74935C6.8125 4.74935 0.332764 11.2291 0.332764 19.1937C0.332764 27.1582 6.8125 33.638 14.7772 33.638C22.7418 33.638 29.2214 27.1582 29.2214 19.1937C29.2214 15.9737 28.162 12.9967 26.374 10.5922L29.5117 7.45439V8.99795C29.5117 10.1452 30.4417 11.0752 31.589 11.0752C32.7362 11.0752 33.6662 10.1452 33.6662 8.99795V2.4401C33.6661 2.37127 33.6626 2.30259 33.6559 2.23417ZM14.7772 29.4834C9.10333 29.4834 4.48733 24.8676 4.48733 19.1937C4.48733 13.5198 9.10333 8.90378 14.7772 8.90378C20.451 8.90378 25.0668 13.5198 25.0668 19.1937C25.0668 24.8676 20.451 29.4834 14.7772 29.4834Z" fill="white"/>
</g>
<defs>
<clipPath id="clip0_1128_10303">
<rect width="33.3333" height="33.3333" fill="white" transform="translate(0.332764 0.333313)"/>
</clipPath>
</defs>
</svg>
