<svg width="44" height="44" viewBox="0 0 44 44" fill="none" xmlns="http://www.w3.org/2000/svg">
<g id="003-star" clip-path="url(#clip0_1525_49482)">
<path id="Vector" d="M43.2836 17.0196C43.0035 16.1531 42.235 15.5377 41.3258 15.4558L28.9752 14.3343L24.0915 2.90345C23.7314 2.06571 22.9113 1.52344 22.0001 1.52344C21.0889 1.52344 20.2688 2.06571 19.9087 2.90541L15.0249 14.3343L2.67238 15.4558C1.76478 15.5397 0.998216 16.1531 0.716468 17.0196C0.43472 17.8861 0.69492 18.8364 1.3815 19.4355L10.7171 27.6229L7.96422 39.7491C7.76279 40.6408 8.10885 41.5624 8.84865 42.0972C9.24629 42.3845 9.71152 42.5307 10.1807 42.5307C10.5852 42.5307 10.9864 42.4217 11.3465 42.2062L22.0001 35.839L32.6497 42.2062C33.429 42.675 34.4113 42.6323 35.1495 42.0972C35.8896 41.5608 36.2354 40.6388 36.0339 39.7491L33.2811 27.6229L42.6167 19.4371C43.3032 18.8364 43.5654 17.8877 43.2836 17.0196Z" fill="white"/>
</g>
<defs>
<clipPath id="clip0_1525_49482">
<rect width="42.7907" height="42.7907" fill="white" transform="translate(0.604492 0.605469)"/>
</clipPath>
</defs>
</svg>
