<svg width="33" height="34" viewBox="0 0 33 34" fill="none" xmlns="http://www.w3.org/2000/svg">
<g clip-path="url(#clip0_1128_8770)">
<path d="M25.5695 26.2801C26.6736 24.704 27.322 22.7852 27.322 20.7148C27.322 17.8282 26.0625 15.236 24.0634 13.457C24.0868 13.6508 24.1003 13.8476 24.1003 14.0475C24.1003 16.2258 22.6711 18.0758 20.7014 18.7113C21.0758 19.288 21.2935 19.9759 21.2935 20.7148C21.2935 22.7495 19.6441 24.3988 17.6094 24.3988L14.8463 24.3969V26.2853L25.5695 26.2801Z" fill="#7480EC"/>
<path d="M14.3005 14.0475C14.3005 11.3458 16.4986 9.14765 19.2004 9.14765C19.8395 9.14765 20.4498 9.27193 21.01 9.49548L21.8667 8.03143L19.8726 6.86466L21.7649 3.63066L17.1894 0.953491L15.2971 4.18749L13.303 3.02065L6.60077 14.475L8.59489 15.6418L6.70263 18.8758L11.2781 21.5531L13.1704 18.319L15.1645 19.4858L16.1194 17.8538C15.0108 16.9547 14.3005 15.5827 14.3005 14.0475Z" fill="#7480EC"/>
<path d="M22.2248 14.085C22.2431 12.4193 20.9077 11.0542 19.242 11.0359C17.5763 11.0175 16.2112 12.353 16.1928 14.0186C16.1745 15.6843 17.51 17.0495 19.1756 17.0678C20.8413 17.0861 22.2064 15.7507 22.2248 14.085Z" fill="#7480EC"/>
<path d="M5.21741 24.4012H12.9624V26.2852H5.21741V24.4012Z" fill="#7480EC"/>
<path d="M24.6427 28.1693H13.0461C11.3121 28.1693 9.90628 29.575 9.90628 31.3091V33.0465H27.7826V31.3091C27.7825 29.575 26.3768 28.1693 24.6427 28.1693Z" fill="#7480EC"/>
</g>
<defs>
<clipPath id="clip0_1128_8770">
<rect width="32.093" height="32.093" fill="white" transform="translate(0.453491 0.953491)"/>
</clipPath>
</defs>
</svg>
