<svg width="34" height="34" viewBox="0 0 34 34" fill="none" xmlns="http://www.w3.org/2000/svg">
<g clip-path="url(#clip0_1518_102415)">
<path d="M20.3431 33.0458C19.8978 33.0458 19.4792 32.8238 19.2305 32.4507L16.9532 29.0341H14.3256C13.5875 29.0341 12.9884 28.4351 12.9884 27.6969C12.9884 26.9588 13.5875 26.3597 14.3256 26.3597H17.6686C18.1153 26.3597 18.5325 26.583 18.7812 26.9548L20.1772 29.0488L23.1579 23.0862C23.3772 22.6503 23.8145 22.3668 24.3025 22.3481C24.8214 22.336 25.2493 22.5781 25.5007 22.9953L29.1232 29.0341H31.7093C32.4475 29.0341 33.0465 29.6332 33.0465 30.3713C33.0465 31.1095 32.4475 31.7086 31.7093 31.7086H28.3663C27.897 31.7086 27.461 31.4625 27.2203 31.06L24.4617 26.4627L21.5399 32.3076C21.3259 32.7342 20.902 33.015 20.426 33.0444C20.3992 33.0458 20.3711 33.0458 20.3431 33.0458Z" fill="#F378A4"/>
<path d="M12.9884 14.3252C16.681 14.3252 19.6744 11.3318 19.6744 7.63917C19.6744 3.94657 16.681 0.953125 12.9884 0.953125C9.29575 0.953125 6.30231 3.94657 6.30231 7.63917C6.30231 11.3318 9.29575 14.3252 12.9884 14.3252Z" fill="#F378A4"/>
<path d="M10.314 27.6977C10.314 25.4859 12.1138 23.686 14.3256 23.686H17.6686C18.3626 23.686 19.0312 23.8639 19.6183 24.1902L20.7669 21.8915C21.3513 20.7268 22.4638 19.9633 23.7275 19.76C22.5106 18.0952 20.5583 17 18.3372 17H7.63954C3.9475 17 0.953491 19.994 0.953491 23.686V28.032C0.953491 28.5856 1.40279 29.0349 1.9564 29.0349H10.56C10.4102 28.615 10.314 28.1684 10.314 27.6977Z" fill="#F378A4"/>
</g>
<defs>
<clipPath id="clip0_1518_102415">
<rect width="32.093" height="32.093" fill="white" transform="translate(0.953491 0.953125)"/>
</clipPath>
</defs>
</svg>
