<svg width="34" height="34" viewBox="0 0 34 34" fill="none" xmlns="http://www.w3.org/2000/svg">
<g clip-path="url(#clip0_1128_3187)">
<path d="M2.28589 3.32812V5.28125H1.30933C0.769548 5.28125 0.332764 5.71803 0.332764 6.25781C0.332764 6.79759 0.769548 7.23437 1.30933 7.23437H15.0463C15.5861 7.23437 16.0229 6.79759 16.0229 6.25781C16.0229 5.71803 15.5861 5.28125 15.0463 5.28125H14.0697V3.32812C14.0697 2.25143 13.1943 1.375 12.1166 1.375H4.30412C3.22645 1.375 2.28589 2.25143 2.28589 3.32812Z" fill="white"/>
<path d="M1.30933 32.625H15.0463C15.5861 32.625 16.0229 32.1882 16.0229 31.6484V24.8125C16.0229 22.0387 14.0809 19.7214 11.4884 19.1175C10.7916 20.1925 9.58316 20.9062 8.21037 20.9062C6.83706 20.9062 5.62684 20.1931 4.93023 19.1182C2.33882 19.723 0.332764 22.0396 0.332764 24.8125V31.6484C0.332764 32.1882 0.769548 32.625 1.30933 32.625ZM8.21037 23.8359C8.74969 23.8359 9.18693 24.273 9.18693 24.8125C9.18693 25.3518 8.74969 25.789 8.21037 25.789C7.67105 25.789 7.23381 25.3518 7.23381 24.8125C7.23381 24.273 7.67105 23.8359 8.21037 23.8359ZM8.21037 27.7422C8.74969 27.7422 9.18693 28.1793 9.18693 28.7187C9.18693 29.2581 8.74969 29.6953 8.21037 29.6953C7.67105 29.6953 7.23381 29.2581 7.23381 28.7187C7.23381 28.1793 7.67105 27.7422 8.21037 27.7422Z" fill="white"/>
<path d="M8.21086 18.9531C9.28852 18.9531 10.164 18.0767 10.164 17V16.6652C12.5005 15.8403 14.0702 13.6202 14.0702 11.1406V9.1875H2.28638V10.8087C2.28638 13.3855 3.95747 15.7878 6.25773 16.65V17C6.25773 18.0767 7.13319 18.9531 8.21086 18.9531Z" fill="white"/>
<path d="M29.0666 23.0237C28.3698 24.0987 27.1614 24.8125 25.7886 24.8125C24.4153 24.8125 23.205 24.0994 22.5084 23.0245C19.917 23.6292 17.9761 25.9458 17.9761 28.7187V31.6484C17.9761 32.1882 18.4129 32.625 18.9526 32.625H32.6896C33.2294 32.625 33.6662 32.1882 33.6662 31.6484V28.7187C33.6662 25.945 31.6592 23.6276 29.0666 23.0237ZM25.7886 29.6953C25.2493 29.6953 24.812 29.2581 24.812 28.7187C24.812 28.1793 25.2493 27.7422 25.7886 27.7422C26.3279 27.7422 26.7651 28.1793 26.7651 28.7187C26.7651 29.2581 26.3279 29.6953 25.7886 29.6953Z" fill="white"/>
<path d="M29.5695 6.29941C29.1476 4.59772 27.6186 3.32812 25.789 3.32812C23.9594 3.32812 22.4304 4.59772 22.0085 6.29941C23.1337 5.67044 24.4106 5.28125 25.789 5.28125C27.1674 5.28125 28.4443 5.67044 29.5695 6.29941Z" fill="white"/>
<path d="M20.0283 12.1172H25.1329C27.2605 12.1172 28.9656 10.1307 28.384 7.86738C27.5982 7.47539 26.7251 7.23438 25.789 7.23438C22.8923 7.23438 20.4965 9.35176 20.0283 12.1172Z" fill="white"/>
<path d="M25.7891 22.8594C26.8667 22.8594 27.7422 21.983 27.7422 20.9063V20.5715C30.0787 19.7466 31.6484 17.5264 31.6484 15.0469V13.0938C31.6484 11.7367 31.1659 10.5019 30.3886 9.50757C29.9956 12.2485 27.6738 14.0703 25.1329 14.0703H19.9297V14.715C19.9297 17.2918 21.5357 19.6941 23.8359 20.5563V20.9063C23.8359 21.983 24.7114 22.8594 25.7891 22.8594Z" fill="white"/>
</g>
<defs>
<clipPath id="clip0_1128_3187">
<rect width="33.3333" height="33.3333" fill="white" transform="translate(0.332764 0.333313)"/>
</clipPath>
</defs>
</svg>
