<svg width="33" height="34" viewBox="0 0 33 34" fill="none" xmlns="http://www.w3.org/2000/svg">
<g clip-path="url(#clip0_1128_10860)">
<path d="M20.5881 13.6439C19.6742 12.73 18.1924 12.73 17.2785 13.6439L16.5 14.4223L15.7214 13.6439C14.8075 12.73 13.3257 12.73 12.4118 13.6439C10.5512 15.685 13.0684 20.1029 16.5 21.0417C19.9315 20.1029 22.4488 15.685 20.5881 13.6439Z" fill="#F378A4"/>
<path d="M16.5 0.953491C7.63157 0.953491 0.453491 8.13037 0.453491 17C0.453491 25.8685 7.63037 33.0465 16.5 33.0465C25.3685 33.0465 32.5465 25.8697 32.5465 17C32.5465 8.13163 25.3697 0.953491 16.5 0.953491ZM30.6265 16.0561H28.7349C28.2752 10.0408 23.4592 5.22482 17.4439 4.76507V2.87347C24.5005 3.34033 30.1596 8.99959 30.6265 16.0561ZM26.8396 17.9439C26.3893 22.9174 22.4174 26.8893 17.4439 27.3396V24.5513H15.5561V27.3396C10.5826 26.8893 6.6107 22.9174 6.16032 17.9439H8.9487V16.0561H6.16032C6.6107 11.0826 10.5826 7.1107 15.5561 6.66032V9.4487H17.4439V6.66032C22.4174 7.1107 26.3893 11.0826 26.8396 16.0561H24.0513V17.9439H26.8396ZM15.5561 2.87354V4.76514C9.54079 5.22482 4.72482 10.0408 4.26507 16.0561H2.37354C2.84033 8.99959 8.49953 3.34033 15.5561 2.87354ZM2.37354 17.9439H4.26507C4.72482 23.9592 9.54079 28.7752 15.5561 29.2349V31.1265C8.49953 30.6597 2.84033 25.0004 2.37354 17.9439ZM17.4439 31.1265V29.2349C23.4592 28.7751 28.2752 23.9592 28.7349 17.9439H30.6265C30.1596 25.0004 24.5005 30.6597 17.4439 31.1265Z" fill="#F378A4"/>
</g>
<defs>
<clipPath id="clip0_1128_10860">
<rect width="32.093" height="32.093" fill="white" transform="translate(0.453491 0.953491)"/>
</clipPath>
</defs>
</svg>
