<svg width="34" height="34" viewBox="0 0 34 34" fill="none" xmlns="http://www.w3.org/2000/svg">
<g clip-path="url(#clip0_1128_8579)">
<path d="M33.6365 9.72796C33.6365 9.42549 33.4963 9.14 33.2568 8.95504C33.0174 8.77015 32.7057 8.70654 32.4131 8.7831L24.9367 10.7362C24.5068 10.8485 24.207 11.2367 24.207 11.6811V18.3023C24.1247 18.2931 24.0413 18.2879 23.9565 18.2879C22.7415 18.2879 21.7529 19.2651 21.7529 20.4662C21.7529 21.6673 22.7415 22.6444 23.9565 22.6444C25.1715 22.6444 26.1601 21.6673 26.1601 20.4662V15.033L31.6939 13.5873V18.9534C31.6117 18.9441 31.5283 18.9389 31.4435 18.9389C30.2285 18.9389 29.2399 19.9161 29.2399 21.1172C29.2399 22.3183 30.2285 23.2955 31.4435 23.2955C32.6585 23.2955 33.6471 22.3183 33.6471 21.1172L33.6365 9.72796Z" fill="white"/>
<path d="M18.4124 10.9469C18.2561 10.9469 18.0997 10.9094 17.9573 10.8343C17.8973 10.8028 16.4719 10.0474 15.031 8.91333C12.9402 7.26775 11.8854 5.66717 11.8958 4.1561C11.9104 2.04822 13.6284 0.333313 15.7254 0.333313C16.7517 0.333313 17.7106 0.746464 18.4124 1.43852C19.1143 0.746464 20.0732 0.333313 21.0995 0.333313C22.1301 0.333313 23.0975 0.735982 23.8236 1.4671C24.5435 2.19204 24.9361 3.1518 24.929 4.16964C24.9186 5.67439 23.8592 7.2701 21.7803 8.91229C20.3449 10.0462 18.9297 10.8014 18.8702 10.833C18.7271 10.9089 18.5697 10.9469 18.4124 10.9469Z" fill="white"/>
<path d="M10.8848 13.5502C11.0219 13.4542 11.1532 13.346 11.276 13.2234C12.5185 11.9809 12.3077 9.8254 12.2981 9.73418C12.2821 9.5823 12.1603 9.46042 12.0086 9.44447C11.9621 9.43965 11.7906 9.42377 11.5405 9.42377C10.862 9.42377 9.64666 9.53809 8.75004 10.2597L8.74991 10.2598C8.67029 10.3238 8.59321 10.3927 8.51918 10.4667C8.17185 10.814 7.93826 11.2327 7.78194 11.6576V10.9887C7.78194 10.4494 7.3447 10.0121 6.80538 10.0121C6.26606 10.0121 5.82882 10.4494 5.82882 10.9887V13.0945C5.52146 13.0294 5.20655 12.9953 4.88806 12.9953C2.40466 12.9953 0.370159 15.0267 0.352906 17.5237C0.337086 19.8191 1.8488 21.3309 3.31085 22.7929C4.48526 23.9675 5.78162 23.3718 6.55616 23.0159C6.64138 22.9768 6.72459 22.9385 6.80551 22.9029C6.88643 22.9385 6.96964 22.9768 7.05473 23.0159C7.48591 23.2141 8.07869 23.4865 8.72218 23.4865C9.23468 23.4865 9.7794 23.3137 10.3 22.793C11.762 21.331 13.2738 19.8192 13.258 17.5238C13.2461 15.8124 12.2866 14.3201 10.8848 13.5502Z" fill="white"/>
<path d="M27.2289 26.1999H23.2699C23.0904 26.1999 22.9443 26.3459 22.9443 26.5254V27.6668H13.8826V26.5254C13.8826 26.3459 13.7365 26.1999 13.557 26.1999H9.59798C9.41849 26.1999 9.27246 26.3459 9.27246 26.5254V33.3412C9.27246 33.5207 9.41849 33.6667 9.59798 33.6667H13.557C13.7365 33.6667 13.8826 33.5207 13.8826 33.3412V32.1998H22.9443V33.3412C22.9443 33.5207 23.0904 33.6667 23.2699 33.6667H27.2289C27.4084 33.6667 27.5544 33.5207 27.5544 33.3412V26.5254C27.5544 26.346 27.4084 26.1999 27.2289 26.1999Z" fill="white"/>
</g>
<defs>
<clipPath id="clip0_1128_8579">
<rect width="33.3333" height="33.3333" fill="white" transform="translate(0.332764 0.333313)"/>
</clipPath>
</defs>
</svg>
