<svg width="687" height="347" viewBox="0 0 687 347" fill="none" xmlns="http://www.w3.org/2000/svg">
<g clip-path="url(#clip0_1436_84177)">
<path d="M277.583 323.225C266.261 309.058 259.834 287.868 258.302 259.654C256.779 231.603 260.878 209.92 270.6 194.605C280.321 179.289 295.147 171.092 315.079 170.014C335.004 168.931 350.629 175.476 361.955 189.649C373.281 203.821 379.704 224.931 381.224 252.978C382.751 281.033 378.654 302.755 368.932 318.144C359.211 333.533 344.39 341.771 324.471 342.857C304.534 343.946 288.904 337.402 277.583 323.225Z" fill="white"/>
<path d="M277.583 323.225C266.261 309.058 259.834 287.868 258.302 259.654C256.779 231.603 260.878 209.92 270.6 194.605C280.321 179.289 295.147 171.092 315.079 170.014C335.004 168.931 350.629 175.476 361.955 189.649C373.281 203.821 379.704 224.931 381.224 252.978C382.751 281.033 378.654 302.755 368.932 318.144C359.211 333.533 344.39 341.771 324.471 342.857C304.534 343.946 288.904 337.402 277.583 323.225Z" stroke="#29C189" stroke-width="10" stroke-miterlimit="10"/>
<path d="M346.022 302.499C350.422 292.273 352.035 276.321 350.861 254.642C349.675 232.807 346.345 217.12 340.87 207.58C335.395 198.04 327.232 193.57 316.381 194.171C305.532 194.752 297.908 200.12 293.508 210.276C289.108 220.432 287.495 236.345 288.667 258.014C289.843 279.692 293.173 295.379 298.658 305.076C304.142 314.773 312.304 319.324 323.143 318.729C333.986 318.139 341.613 312.729 346.022 302.499Z" fill="#EEF8F0"/>
<path d="M346.022 302.499C350.422 292.273 352.035 276.321 350.861 254.642C349.675 232.807 346.345 217.12 340.87 207.58C335.395 198.04 327.232 193.57 316.381 194.171C305.532 194.752 297.908 200.12 293.508 210.276C289.108 220.432 287.495 236.345 288.667 258.014C289.843 279.692 293.173 295.379 298.658 305.076C304.142 314.773 312.304 319.324 323.143 318.729C333.986 318.139 341.613 312.729 346.022 302.499Z" stroke="#29C189" stroke-width="10" stroke-miterlimit="10"/>
<path d="M415.009 257.203H216.836V259.844H415.009V257.203Z" fill="#29C189"/>
<path d="M547.965 257.867H523.784C523.664 257.867 523.566 257.965 523.566 258.085V259.631C523.566 259.751 523.664 259.848 523.784 259.848H547.965C548.085 259.848 548.183 259.751 548.183 259.631V258.085C548.183 257.965 548.085 257.867 547.965 257.867Z" fill="#29C189"/>
<path d="M107.856 257.867H83.675C83.5546 257.867 83.457 257.965 83.457 258.085V259.631C83.457 259.751 83.5546 259.848 83.675 259.848H107.856C107.976 259.848 108.074 259.751 108.074 259.631V258.085C108.074 257.965 107.976 257.867 107.856 257.867Z" fill="#29C189"/>
<path d="M526.792 298.922H502.466C502.385 298.922 502.32 298.987 502.32 299.067V300.098C502.32 300.179 502.385 300.244 502.466 300.244H526.792C526.872 300.244 526.937 300.179 526.937 300.098V299.067C526.937 298.987 526.872 298.922 526.792 298.922Z" fill="#29C189"/>
<path d="M119.7 88.4014C124.317 88.4014 128.33 85.049 128.955 80.4765C129.067 79.6446 129.124 78.806 129.124 77.9666C129.124 75.5456 128.647 73.1483 127.72 70.9117C126.793 68.675 125.435 66.6427 123.722 64.9308C122.01 63.2189 119.977 61.861 117.74 60.9345C115.502 60.0081 113.104 59.5313 110.682 59.5313C110.264 59.5313 109.851 59.5516 109.439 59.5777C109.004 54.551 106.646 49.8857 102.855 46.5546C99.0647 43.2234 94.1342 41.4834 89.0916 41.6973C84.049 41.9112 79.2836 44.0625 75.7888 47.7027C72.294 51.3429 70.3396 56.1911 70.3329 61.2365C70.3329 61.7158 70.3561 62.1893 70.391 62.66C67.5143 61.0566 64.2796 60.2042 60.9861 60.1816C57.6926 60.159 54.4466 60.9669 51.5481 62.5306C48.6497 64.0943 46.1924 66.3633 44.4036 69.1279C42.6147 71.8924 41.552 75.0632 41.3137 78.3471C41.3137 78.4256 41.3137 78.504 41.3137 78.5824C41.2469 79.8502 41.4396 81.1182 41.8799 82.309C42.3203 83.4997 42.999 84.5881 43.8747 85.5075C44.7504 86.427 45.8045 87.1581 46.9726 87.6562C48.1407 88.1543 49.3982 88.4089 50.6681 88.4043L119.7 88.4014Z" fill="#EEF8F0"/>
<path d="M601.75 133.607C616.332 133.607 617.151 111.669 602.575 110.948C602.177 110.928 601.776 110.919 601.375 110.919C598.845 110.916 596.33 111.308 593.921 112.081C592.952 106.154 589.883 100.773 585.273 96.9216C580.663 93.0702 574.821 91.0056 568.814 91.105C562.807 91.2044 557.036 93.4612 552.556 97.463C548.076 101.465 545.186 106.944 544.415 112.9C539.513 110.565 533.947 110.024 528.687 111.372C515.936 114.655 518.612 133.622 531.779 133.622L601.75 133.607Z" fill="#EEF8F0"/>
<path d="M474.507 42.4382C489.086 42.4382 489.891 20.5053 475.332 19.7964C474.934 19.779 474.533 19.7674 474.129 19.7674C471.601 19.7646 469.088 20.1567 466.681 20.9294C465.703 15.0158 462.634 9.64993 458.031 5.80905C453.428 1.96816 447.598 -0.0922204 441.603 0.00316975C435.608 0.0985599 429.847 2.34337 425.368 6.32876C420.89 10.3141 417.993 15.775 417.204 21.7167C412.305 19.379 406.74 18.8391 401.482 20.1915C388.734 23.4713 391.41 42.4324 404.571 42.4324L474.507 42.4382Z" fill="#EEF8F0"/>
<path d="M486.899 92.1502C487.193 81.286 482.959 72.3578 477.442 72.2085C471.924 72.0593 467.213 80.7455 466.919 91.6098C466.625 102.474 470.859 111.402 476.377 111.551C481.894 111.701 486.605 103.015 486.899 92.1502Z" fill="#EEF8F0"/>
<path d="M129.422 144.889C129.657 136.212 126.377 129.084 122.097 128.968C117.817 128.853 114.156 135.793 113.921 144.469C113.686 153.146 116.966 160.274 121.246 160.389C125.527 160.505 129.187 153.565 129.422 144.889Z" fill="#EEF8F0"/>
<path d="M42.3995 124.427C42.7281 112.288 39.2982 102.347 34.7387 102.224C30.1791 102.101 26.2165 111.842 25.8879 123.981C25.5593 136.12 28.9892 146.061 33.5487 146.184C38.1083 146.308 42.0709 136.567 42.3995 124.427Z" fill="#EEF8F0"/>
<path d="M575.762 184.766C576.115 171.734 572.094 161.052 566.782 160.909C561.47 160.765 556.878 171.213 556.525 184.246C556.173 197.279 560.193 207.96 565.505 208.104C570.817 208.248 575.409 197.799 575.762 184.766Z" fill="#EEF8F0"/>
<path d="M281.916 149.445L351.756 128.941C352.067 128.85 352.357 128.699 352.609 128.496C352.862 128.292 353.072 128.041 353.227 127.757C353.383 127.473 353.481 127.16 353.515 126.838C353.55 126.516 353.521 126.19 353.43 125.879L324.925 28.8513C324.834 28.5404 324.682 28.2504 324.479 27.998C324.276 27.7455 324.025 27.5356 323.74 27.3802C323.456 27.2248 323.143 27.127 322.821 27.0923C322.499 27.0576 322.173 27.0868 321.862 27.1781L274.044 41.2181C273.43 41.3951 272.909 41.8034 272.591 42.3568L256.78 69.9546C256.614 70.2429 256.509 70.5616 256.47 70.8916C256.431 71.2216 256.459 71.556 256.553 71.8748L278.853 147.766C278.944 148.077 279.095 148.368 279.298 148.621C279.501 148.874 279.752 149.085 280.036 149.241C280.321 149.397 280.633 149.495 280.956 149.53C281.279 149.565 281.605 149.536 281.916 149.445Z" fill="white"/>
<path d="M281.916 149.445L351.756 128.941C352.067 128.85 352.357 128.699 352.609 128.496C352.862 128.292 353.072 128.041 353.227 127.757C353.383 127.473 353.481 127.16 353.515 126.838C353.55 126.516 353.521 126.19 353.43 125.879L324.925 28.8513C324.834 28.5404 324.682 28.2504 324.479 27.998C324.276 27.7455 324.025 27.5356 323.74 27.3802C323.456 27.2248 323.143 27.127 322.821 27.0923C322.499 27.0576 322.173 27.0868 321.862 27.1781L274.044 41.2181C273.43 41.3951 272.909 41.8034 272.591 42.3568L256.78 69.9546C256.614 70.2429 256.509 70.5616 256.47 70.8916C256.431 71.2216 256.459 71.556 256.553 71.8748L278.853 147.766C278.944 148.077 279.095 148.368 279.298 148.621C279.501 148.874 279.752 149.085 280.036 149.241C280.321 149.397 280.633 149.495 280.956 149.53C281.279 149.565 281.605 149.536 281.916 149.445Z" stroke="#29C189" stroke-width="8" stroke-linecap="round" stroke-linejoin="round"/>
<path d="M273.711 42.7188L279.541 62.5659C279.738 63.2366 279.662 63.9582 279.329 64.5729C278.996 65.1876 278.432 65.6452 277.762 65.8457L257.008 72.0334" fill="white"/>
<path d="M273.711 42.7188L279.541 62.5659C279.738 63.2366 279.662 63.9582 279.329 64.5729C278.996 65.1876 278.432 65.6452 277.762 65.8457L257.008 72.0334" stroke="#29C189" stroke-width="8" stroke-linecap="round" stroke-linejoin="round"/>
<path d="M287.22 117.175L283.261 118.33C282.953 118.419 282.776 118.742 282.866 119.05L287.719 135.685C287.809 135.993 288.132 136.17 288.44 136.08L292.399 134.926C292.707 134.836 292.884 134.514 292.794 134.206L287.94 117.57C287.851 117.262 287.528 117.085 287.22 117.175Z" fill="#EEF8F0"/>
<path d="M309.001 116.324L305.042 117.478C304.734 117.568 304.557 117.89 304.647 118.198L308.021 129.761C308.11 130.069 308.433 130.246 308.741 130.156L312.7 129.002C313.008 128.912 313.185 128.589 313.095 128.281L309.722 116.719C309.632 116.411 309.309 116.234 309.001 116.324Z" fill="#EEF8F0"/>
<path d="M317.772 106.862L313.815 108.024C313.507 108.114 313.331 108.437 313.422 108.745L318.307 125.371C318.398 125.679 318.721 125.855 319.029 125.765L322.985 124.603C323.293 124.512 323.469 124.19 323.379 123.882L318.493 107.256C318.403 106.948 318.08 106.772 317.772 106.862Z" fill="#EEF8F0"/>
<path d="M296.006 107.745L292.05 108.907C291.742 108.997 291.566 109.32 291.656 109.628L298.03 131.321C298.121 131.629 298.444 131.805 298.752 131.715L302.708 130.553C303.016 130.463 303.193 130.14 303.102 129.832L296.728 108.138C296.637 107.831 296.314 107.654 296.006 107.745Z" fill="#EEF8F0"/>
<path d="M272.605 82.3607L319.508 68.5938" stroke="#EEF8F0" stroke-width="6" stroke-linecap="round" stroke-linejoin="round"/>
<path d="M274.84 89.9652L321.739 76.1953" stroke="#EEF8F0" stroke-width="6" stroke-linecap="round" stroke-linejoin="round"/>
<path d="M277.07 97.5667L323.973 83.7969" stroke="#EEF8F0" stroke-width="6" stroke-linecap="round" stroke-linejoin="round"/>
<path d="M377.186 123.257L378.93 119.556C379.008 119.39 379.05 119.209 379.054 119.025C379.059 118.842 379.025 118.659 378.954 118.489C378.884 118.32 378.779 118.166 378.646 118.039C378.513 117.912 378.356 117.815 378.183 117.752L354.807 109.359L353.781 111.21L375.326 123.832C375.484 123.925 375.66 123.983 375.842 124.004C376.024 124.025 376.208 124.008 376.383 123.954C376.558 123.9 376.72 123.81 376.858 123.69C376.996 123.57 377.108 123.423 377.186 123.257Z" fill="#29C189"/>
<path d="M337.262 122.708C347.722 122.708 356.201 114.232 356.201 103.776C356.201 93.3199 347.722 84.8438 337.262 84.8438C326.803 84.8438 318.324 93.3199 318.324 103.776C318.324 114.232 326.803 122.708 337.262 122.708Z" fill="#EEF8F0"/>
<path d="M337.262 118.757C345.541 118.757 352.252 112.049 352.252 103.773C352.252 95.4977 345.541 88.7891 337.262 88.7891C328.984 88.7891 322.273 95.4977 322.273 103.773C322.273 112.049 328.984 118.757 337.262 118.757Z" fill="white"/>
<path d="M337.262 122.708C347.722 122.708 356.201 114.232 356.201 103.776C356.201 93.3199 347.722 84.8438 337.262 84.8438C326.803 84.8438 318.324 93.3199 318.324 103.776C318.324 114.232 326.803 122.708 337.262 122.708Z" stroke="#29C189" stroke-width="8" stroke-linecap="round" stroke-linejoin="round"/>
<path d="M337.351 96.5078L337.238 105.752" stroke="#29C189" stroke-width="8" stroke-linecap="round" stroke-linejoin="round"/>
<path d="M337.174 111.036C337.178 111.036 337.18 111.033 337.18 111.03C337.18 111.026 337.178 111.023 337.174 111.023C337.171 111.023 337.168 111.026 337.168 111.03C337.168 111.033 337.171 111.036 337.174 111.036Z" stroke="#29C189" stroke-width="8" stroke-linecap="round" stroke-linejoin="round"/>
<path d="M538.42 254.936L519.801 258.678L527.275 295.923L487.385 303.935L479.899 266.684L406.808 281.366L400.996 252.473L445.667 138.415L493.677 128.773L512.873 224.285L531.507 220.543L538.42 254.936ZM462.574 180.489L441.462 238.639L472.986 232.303L462.574 180.489Z" fill="#29C189"/>
<path d="M230.991 274.22L212.245 271.094L205.997 308.569L165.862 301.887L172.113 264.412L98.5742 252.159L103.421 223.091L185.733 132.367L234.036 140.417L218.013 236.513L236.759 239.638L230.991 274.22ZM186.573 177.686L146.16 224.532L177.878 229.816L186.573 177.686Z" fill="#29C189"/>
<path d="M687 259.852H0V347.002H687V259.852Z" fill="white"/>
<path d="M115.456 300.734H91.1297C91.0494 300.734 90.9844 300.799 90.9844 300.88V301.911C90.9844 301.991 91.0494 302.056 91.1297 302.056H115.456C115.536 302.056 115.601 301.991 115.601 301.911V300.88C115.601 300.799 115.536 300.734 115.456 300.734Z" fill="#EEF8F0"/>
<path d="M182.253 300.734H157.927C157.846 300.734 157.781 300.799 157.781 300.88V301.911C157.781 301.991 157.846 302.056 157.927 302.056H182.253C182.333 302.056 182.398 301.991 182.398 301.911V300.88C182.398 300.799 182.333 300.734 182.253 300.734Z" fill="#EEF8F0"/>
<path d="M243.049 285.047H218.723C218.643 285.047 218.578 285.112 218.578 285.192V286.223C218.578 286.304 218.643 286.369 218.723 286.369H243.049C243.13 286.369 243.195 286.304 243.195 286.223V285.192C243.195 285.112 243.13 285.047 243.049 285.047Z" fill="#EEF8F0"/>
<path d="M277.624 302.391H253.298C253.217 302.391 253.152 302.456 253.152 302.536V303.567C253.152 303.647 253.217 303.712 253.298 303.712H277.624C277.704 303.712 277.769 303.647 277.769 303.567V302.536C277.769 302.456 277.704 302.391 277.624 302.391Z" fill="#EEF8F0"/>
<path d="M362.932 302.391H338.606C338.526 302.391 338.461 302.456 338.461 302.536V303.567C338.461 303.647 338.526 303.712 338.606 303.712H362.932C363.012 303.712 363.078 303.647 363.078 303.567V302.536C363.078 302.456 363.012 302.391 362.932 302.391Z" fill="#EEF8F0"/>
<path d="M458.37 301.414H434.044C433.963 301.414 433.898 301.479 433.898 301.559V302.591C433.898 302.671 433.963 302.736 434.044 302.736H458.37C458.45 302.736 458.515 302.671 458.515 302.591V301.559C458.515 301.479 458.45 301.414 458.37 301.414Z" fill="#EEF8F0"/>
<path d="M155.182 282.508H130.856C130.776 282.508 130.711 282.573 130.711 282.653V283.684C130.711 283.765 130.776 283.83 130.856 283.83H155.182C155.262 283.83 155.328 283.765 155.328 283.684V282.653C155.328 282.573 155.262 282.508 155.182 282.508Z" fill="#EEF8F0"/>
<path d="M325.034 281.867H300.708C300.628 281.867 300.562 281.932 300.562 282.012V283.044C300.562 283.124 300.628 283.189 300.708 283.189H325.034C325.114 283.189 325.179 283.124 325.179 283.044V282.012C325.179 281.932 325.114 281.867 325.034 281.867Z" fill="#EEF8F0"/>
<path d="M498.092 281.758H473.766C473.686 281.758 473.621 281.823 473.621 281.903V282.934C473.621 283.015 473.686 283.08 473.766 283.08H498.092C498.173 283.08 498.238 283.015 498.238 282.934V281.903C498.238 281.823 498.173 281.758 498.092 281.758Z" fill="#EEF8F0"/>
<path d="M412.913 275.609H388.587C388.506 275.609 388.441 275.674 388.441 275.755V276.786C388.441 276.866 388.506 276.931 388.587 276.931H412.913C412.993 276.931 413.058 276.866 413.058 276.786V275.755C413.058 275.674 412.993 275.609 412.913 275.609Z" fill="#EEF8F0"/>
</g>
<defs>
<clipPath id="clip0_1436_84177">
<rect width="687" height="347" fill="white"/>
</clipPath>
</defs>
</svg>
