<svg width="30" height="30" viewBox="0 0 30 30" fill="none" xmlns="http://www.w3.org/2000/svg">
<g id="blueprint" clip-path="url(#clip0_1530_45921)">
<g id="Group">
<g id="Page-1_5_">
<g id="_x30_06---Draw-Blueprint">
<path id="Shape_33_" d="M18.1371 10.6299L17.9395 12.3854C17.928 12.4931 17.9659 12.6001 18.0427 12.6764C18.1189 12.7561 18.2286 12.7944 18.3378 12.7796L20.0969 12.5794C20.132 12.5753 20.1624 12.5588 20.1959 12.5515L18.1639 10.5195C18.1528 10.5558 18.1439 10.5926 18.1371 10.6299Z" fill="white"/>
<path id="Rectangle-path_3_" d="M18.7871 9.6875L24.4074 4.06723L26.6639 6.32373L21.0436 11.944L18.7871 9.6875Z" fill="white"/>
<path id="Rectangle-path_1_" d="M25.1348 3.33203L25.8992 2.5676L28.1546 4.823L27.3902 5.58743L25.1348 3.33203Z" fill="white"/>
<path id="Shape_32_" d="M29.642 3.33532C29.7449 3.236 29.8032 3.09919 29.8034 2.95618C29.8037 2.81094 29.7455 2.67172 29.642 2.56979L28.1526 1.07994C28.0511 0.976397 27.9123 0.918064 27.7673 0.917969C27.6252 0.91849 27.4893 0.976113 27.3902 1.0779L26.6309 1.83571L28.8862 4.09105L29.642 3.33532Z" fill="white"/>
<path id="Shape_31_" d="M4.01119 22.5843H5.0429C5.3278 22.5843 5.55876 22.3533 5.55876 22.0684V1.43382C5.55881 1.14893 5.32784 0.917969 5.0429 0.917969H4.01119C2.30247 0.919675 0.917722 2.30442 0.916016 4.01315V23.9843C1.69828 23.0941 2.82609 22.5839 4.01119 22.5843Z" fill="white"/>
<path id="Shape_30_" d="M4.1608 29.8069H29.2886C29.5735 29.8069 29.8044 29.576 29.8044 29.2911V8.65648C29.8044 8.37159 29.5735 8.14062 29.2886 8.14062H26.2966L21.3989 13.0413C21.0774 13.3566 20.6598 13.5554 20.2124 13.6062C18.4714 13.8017 18.4554 13.8151 18.3048 13.8151H10.7175V19.4896H23.0982V16.9103C23.0982 16.6254 23.3292 16.3945 23.6141 16.3945C23.899 16.3945 24.1299 16.6254 24.1299 16.9103V24.6483C24.1299 25.2181 23.668 25.68 23.0982 25.68H12.7809C12.496 25.68 12.265 25.449 12.265 25.1641C12.265 24.8792 12.496 24.6483 12.7809 24.6483H16.3919V20.5213H10.7175V27.7435C10.7175 28.0283 10.4865 28.2593 10.2016 28.2593C9.91671 28.2593 9.68574 28.0283 9.68574 27.7435V13.8151H8.13813C7.85324 13.8151 7.62228 13.5842 7.62228 13.2993C7.62228 13.0144 7.85324 12.7834 8.13813 12.7834H16.9641C16.9163 12.618 16.9 12.4451 16.9161 12.2737L17.1116 10.5162C17.1619 10.0594 17.3686 9.63403 17.6966 9.31217L18.8682 8.14062H6.59052V22.069C6.59052 22.9237 5.89763 23.6166 5.04291 23.6166H4.01119C2.30247 23.6183 0.917722 25.003 0.916016 26.7117V26.8252C1.03117 28.5246 2.4578 29.8355 4.1608 29.8069Z" fill="white"/>
<path id="Rectangle-path_2_" d="M17.4238 20.5195H23.0983V24.6465H17.4238V20.5195Z" fill="white"/>
</g>
</g>
</g>
</g>
<defs>
<clipPath id="clip0_1530_45921">
<rect width="28.8889" height="28.8889" fill="white" transform="translate(0.916016 0.917969)"/>
</clipPath>
</defs>
</svg>
