<svg width="28" height="28" viewBox="0 0 28 28" fill="none" xmlns="http://www.w3.org/2000/svg">
<g clip-path="url(#clip0_1101_8109)">
<path d="M27.8384 5.85033C27.6781 5.62062 27.4202 5.47863 27.1401 5.46666L9.7714 4.71799C9.27306 4.69619 8.85662 5.08092 8.83532 5.57694C8.81414 6.07277 9.19825 6.49172 9.6942 6.51303L25.887 7.21106L22.7031 17.1449H8.53467L5.97493 3.20725C5.91866 2.90178 5.70894 2.64694 5.4197 2.53346L1.22728 0.886434C0.76522 0.705534 0.243823 0.93249 0.062358 1.39398C-0.118793 1.85573 0.1081 2.37744 0.569907 2.5589L4.29764 4.02334L6.90256 18.2056C6.98107 18.6319 7.35265 18.9416 7.78632 18.9416H8.21843L7.23171 21.6824C7.14913 21.9119 7.18315 22.1669 7.3237 22.3664C7.46406 22.5659 7.69233 22.6846 7.93602 22.6846H8.6281C8.19925 23.1618 7.93602 23.7903 7.93602 24.4813C7.93602 25.9675 9.1453 27.1765 10.6312 27.1765C12.117 27.1765 13.3263 25.9675 13.3263 24.4813C13.3263 23.7903 13.0631 23.1618 12.6343 22.6846H18.5104C18.0814 23.1618 17.8182 23.7903 17.8182 24.4813C17.8182 25.9675 19.0272 27.1765 20.5133 27.1765C21.9996 27.1765 23.2085 25.9675 23.2085 24.4813C23.2085 23.7903 22.9453 23.1618 22.5166 22.6846H23.3582C23.7718 22.6846 24.1069 22.3494 24.1069 21.9359C24.1069 21.5224 23.7717 21.1873 23.3582 21.1873H9.00124L9.80969 18.9413H23.3582C23.7489 18.9413 24.0946 18.6889 24.2136 18.3172L27.9568 6.63816C28.0428 6.3716 27.9987 6.08017 27.8384 5.85033ZM10.6312 25.6795C9.9706 25.6795 9.43335 25.1423 9.43335 24.4817C9.43335 23.821 9.9706 23.2838 10.6312 23.2838C11.2919 23.2838 11.829 23.821 11.829 24.4817C11.829 25.1423 11.2919 25.6795 10.6312 25.6795ZM20.5133 25.6795C19.8527 25.6795 19.3155 25.1423 19.3155 24.4817C19.3155 23.821 19.8527 23.2838 20.5133 23.2838C21.174 23.2838 21.7112 23.821 21.7112 24.4817C21.7112 25.1423 21.174 25.6795 20.5133 25.6795Z" fill="#353535"/>
</g>
<defs>
<clipPath id="clip0_1101_8109">
<rect width="28" height="28" fill="white"/>
</clipPath>
</defs>
</svg>
