<svg width="61" height="60" viewBox="0 0 61 60" fill="none" xmlns="http://www.w3.org/2000/svg">
<circle cx="30.5" cy="30" r="30" fill="#0CAA70"/>
<g clip-path="url(#clip0_1702_99932)">
<path d="M38.7831 18.3026L39.5897 19.1091C39.7741 19.2935 39.7982 19.5844 39.6472 19.797C39.0775 20.5988 38.7887 20.9996 38.6315 21.232C38.4807 21.4548 38.1865 21.5309 37.9475 21.4072C37.1468 20.9927 36.2376 20.7584 35.2736 20.7584H26.2997C23.0821 20.7584 20.4738 23.3668 20.4738 26.5843V29.9368C20.4738 30.6664 19.3761 30.7011 19.3454 29.9716C19.342 29.8887 19.3434 30.4713 19.3434 21.2856C19.3434 19.8044 20.4564 18.5777 21.8902 18.3987C23.0968 15.7343 25.7618 13.9772 28.7503 13.9772H34.7859C36.2601 13.9772 37.6356 14.4006 38.7968 15.1331C39.0974 15.3228 39.138 15.7534 38.8707 15.9878C38.0677 16.6922 38.209 17.7285 38.7831 18.3026ZM42.3192 23.6945C42.3189 23.3067 41.9181 23.0479 41.5645 23.2073C41.2532 23.3477 41.0312 23.4479 40.8702 23.5201C40.6021 23.6404 40.4817 23.9546 40.6011 24.2231C40.9221 24.9449 41.1001 25.7441 41.1001 26.585V30.468C41.1001 31.1234 42.0227 31.251 42.2084 30.623C42.3461 30.1562 42.324 30.4989 42.3192 23.6945ZM38.3114 45.5506C38.2916 45.8334 38.0429 46.0462 37.7594 46.0462H23.7956C23.5017 46.0462 23.2629 45.8089 23.2611 45.5148C23.2594 45.2177 23.5115 44.9784 23.8086 44.9771C25.3038 44.971 26.5564 43.908 26.8437 42.4759C26.9065 42.1629 27.2274 41.9788 27.5302 42.0798C29.639 42.7832 31.9374 42.7822 34.0431 42.08C34.3475 41.9784 34.6674 42.1654 34.7308 42.4801C35.0214 43.9247 36.2907 44.9771 37.7783 44.9771C38.0871 44.9772 38.3334 45.2374 38.3114 45.5506ZM19.5367 17.019L18.4029 14.9404C18.2314 14.626 17.8065 14.5677 17.5557 14.8184L16.6396 15.7346L15.8026 14.2281C15.6593 13.9701 15.3339 13.8771 15.0758 14.0205C14.8177 14.1639 14.7248 14.4893 14.8682 14.7473L16.0492 16.8731C16.2216 17.1835 16.6436 17.2422 16.8944 16.9915L17.8065 16.0793L18.5983 17.5309C18.6953 17.7087 18.8787 17.8096 19.068 17.8096C19.4694 17.8096 19.7319 17.377 19.5367 17.019ZM17.2876 26.69C17.598 26.5176 17.6567 26.0954 17.406 25.8449L16.9628 25.4016L17.7265 24.9851C17.9857 24.8437 18.0811 24.519 17.9398 24.26C17.7984 24.0009 17.4738 23.9053 17.2147 24.0467L15.8239 24.8053C15.5105 24.9762 15.45 25.4006 15.7018 25.6524L16.149 26.0997L15.3461 26.5458C14.8655 26.8128 15.0566 27.5476 15.6061 27.5476C15.79 27.5475 15.7432 27.548 17.2876 26.69ZM40.0312 26.585V32.3474C40.0312 37.278 35.9736 41.5378 30.7866 41.5378C25.7371 41.5378 21.6203 37.4677 21.5434 32.4363C21.5424 32.4185 21.5428 26.6028 21.5428 26.585C21.5428 23.9621 23.6767 21.8275 26.2997 21.8275H35.2736C37.8966 21.8275 40.0312 23.9614 40.0312 26.585ZM27.0759 30.9738L29.2139 29.3703C29.499 29.1564 29.4984 28.7286 29.2139 28.5151L27.0759 26.9117C26.8398 26.7346 26.5047 26.7824 26.3276 27.0186C26.1505 27.2547 26.1984 27.5898 26.4345 27.7669L28.0023 28.9428L26.4345 30.1186C26.0241 30.4265 26.2448 31.0809 26.7556 31.0807C26.8673 31.0807 26.9799 31.0459 27.0759 30.9738ZM34.4316 34.1989L33.396 33.3972C33.2034 33.2481 32.9343 33.2481 32.7416 33.3972L32.0332 33.9456L31.3249 33.3972C31.1322 33.2481 30.8631 33.2481 30.6704 33.3972L29.9621 33.9456L29.2537 33.3972C29.061 33.2481 28.7919 33.2481 28.5993 33.3972L27.5637 34.1989C27.3303 34.3796 27.2876 34.7154 27.4683 34.9488C27.6491 35.1822 27.9847 35.2251 28.2181 35.0443L28.9265 34.4958L29.6349 35.0443C29.8276 35.1934 30.0966 35.1934 30.2893 35.0443L30.9977 34.4958L31.7061 35.0443C31.8988 35.1934 32.1678 35.1934 32.3605 35.0443L33.0689 34.4958C33.8222 35.0791 33.8701 35.1561 34.104 35.1561C34.6107 35.1561 34.8346 34.511 34.4316 34.1989ZM34.0599 28.9428L35.6276 27.7669C35.8638 27.5898 35.9116 27.2547 35.7345 27.0186C35.5574 26.7825 35.2224 26.7345 34.9863 26.9117L32.8483 28.5151C32.5632 28.729 32.5638 29.1568 32.8483 29.3703L34.9863 30.9738C35.223 31.1513 35.5579 31.1023 35.7345 30.8668C35.9116 30.6307 35.8638 30.2957 35.6276 30.1185L34.0599 28.9428ZM44.2769 17.4634L46.0989 14.8932C46.4135 14.4469 45.935 13.875 45.4435 14.0962L39.6978 16.6811C39.3569 16.8345 39.2749 17.2824 39.5388 17.5463L41.3026 19.3101L39.4806 21.8802C39.168 22.3237 39.6403 22.8993 40.1361 22.6773L45.8817 20.0924C46.2227 19.9391 46.3046 19.4911 46.0407 19.2272L44.2769 17.4634Z" fill="white"/>
</g>
<defs>
<clipPath id="clip0_1702_99932">
<rect width="32.093" height="32.093" fill="white" transform="translate(14.4531 13.9531)"/>
</clipPath>
</defs>
</svg>
