<svg width="60" height="60" viewBox="0 0 60 60" fill="none" xmlns="http://www.w3.org/2000/svg">
<circle cx="30" cy="30" r="30" fill="#FF9A6B"/>
<g clip-path="url(#clip0_1702_100505)">
<path d="M14.3338 34.8488C14.6176 34.7173 21.3823 31.6275 29.8354 31.6275C38.2884 31.6275 45.0531 34.7173 45.337 34.8488L45.5536 34.9492C45.072 34.3137 43.4823 32.3103 41.1302 30.2878C39.482 28.8707 37.7989 27.7388 36.1276 26.9237C33.9994 25.8857 31.8824 25.3594 29.8354 25.3594C27.7883 25.3594 25.6713 25.8857 23.5432 26.9237C21.8719 27.7388 20.1888 28.8707 18.5406 30.2878C16.1885 32.3103 14.5988 34.3137 14.1172 34.9492L14.3338 34.8488Z" fill="white"/>
<path d="M44.5465 36.5546C44.5044 36.5352 41.7563 35.2835 37.6697 34.3906C37.6698 34.4097 37.6707 34.4288 37.6707 34.4479C37.6707 38.7682 34.1558 42.2831 29.8355 42.2831C25.5151 42.2831 22.0003 38.7682 22.0003 34.4479C22.0003 34.4289 22.0008 34.4097 22.0009 34.3907C17.9145 35.2836 15.1664 36.5352 15.1241 36.5548L14.4414 36.8701C15.1395 37.7455 16.5728 39.4233 18.5408 41.1155C20.189 42.5327 21.8721 43.6646 23.5434 44.4797C25.6715 45.5177 27.7885 46.044 29.8355 46.044C31.8825 46.044 33.9996 45.5177 36.1278 44.4797C37.799 43.6646 39.4821 42.5327 41.1303 41.1155C43.0978 39.4238 44.5308 37.7465 45.2291 36.8709L44.5465 36.5546Z" fill="white"/>
<path d="M33.908 34.4464C33.908 36.6929 32.0802 38.5207 29.8337 38.5207C27.5871 38.5207 25.7594 36.6929 25.7594 34.4464C25.7594 34.2098 25.7814 33.9759 25.822 33.7461C25.1607 33.8235 24.518 33.9168 23.8971 34.0216C23.8859 34.1652 23.8789 34.3068 23.8789 34.4464C23.8789 37.7298 26.5502 40.4011 29.8337 40.4011C33.1171 40.4011 35.7884 37.7298 35.7884 34.4464C35.7884 34.3068 35.7817 34.1654 35.7701 34.0216C35.1498 33.9169 34.5075 33.8236 33.8468 33.7463C33.887 33.9759 33.908 34.2099 33.908 34.4464Z" fill="white"/>
<path d="M27.8279 33.5696C27.7056 33.8459 27.6406 34.1433 27.6406 34.448C27.6406 35.6577 28.6248 36.6419 29.8345 36.6419C31.0442 36.6419 32.0283 35.6577 32.0283 34.448C32.0283 34.1433 31.9634 33.8459 31.8412 33.5696C31.1843 33.5299 30.5146 33.5078 29.8345 33.5078C29.1544 33.5078 28.4847 33.5299 27.8279 33.5696Z" fill="white"/>
<path d="M44.8135 20.2213H42.5927L45.7298 15.4066C45.9182 15.1176 45.9331 14.7486 45.7687 14.4453C45.6044 14.142 45.2871 13.9531 44.9421 13.9531H40.7605C40.2413 13.9531 39.8203 14.3741 39.8203 14.8934C39.8203 15.4126 40.2413 15.8336 40.7605 15.8336H43.2073L40.0702 20.6483C39.8818 20.9373 39.8669 21.3063 40.0313 21.6096C40.1957 21.9128 40.5129 22.1018 40.8579 22.1018H44.8135C45.3328 22.1018 45.7538 21.6808 45.7538 21.1616C45.7538 20.6423 45.3329 20.2213 44.8135 20.2213Z" fill="white"/>
<path d="M38.8736 18.2071C38.7093 17.9038 38.392 17.7148 38.047 17.7148H35.1199C34.6007 17.7148 34.1797 18.1358 34.1797 18.6551C34.1797 19.1743 34.6007 19.5953 35.1199 19.5953H36.3122L34.4003 22.5295C34.212 22.8185 34.1971 23.1875 34.3615 23.4908C34.5258 23.794 34.8431 23.983 35.1881 23.983H37.9571C38.4763 23.983 38.8973 23.562 38.8973 23.0428C38.8973 22.5235 38.4763 22.1026 37.9571 22.1026H36.923L38.8348 19.1684C39.023 18.8793 39.038 18.5103 38.8736 18.2071Z" fill="white"/>
</g>
<defs>
<clipPath id="clip0_1702_100505">
<rect width="32.093" height="32.093" fill="white" transform="translate(13.9531 13.9531)"/>
</clipPath>
</defs>
</svg>
