<svg width="60" height="60" viewBox="0 0 60 60" fill="none" xmlns="http://www.w3.org/2000/svg">
<circle cx="30" cy="30" r="30" fill="#FF9A6B"/>
<g clip-path="url(#clip0_1702_100384)">
<path d="M35.3492 32.0423V19.3022C35.3492 16.3522 32.9501 13.9531 30.0001 13.9531C27.0502 13.9531 24.6511 16.3522 24.6511 19.3022V32.0423C22.9434 33.5628 21.9766 35.7078 21.9766 38.0239C21.9766 40.4497 23.0571 42.7204 24.9413 44.2515C26.3842 45.4243 28.1695 46.0461 30.0122 46.0461C30.5765 46.0461 31.1448 45.9872 31.7119 45.8696C34.8371 45.217 37.319 42.6628 37.8887 39.5109C38.3968 36.704 37.43 33.9025 35.3492 32.0423ZM30.0001 40.6984C28.5225 40.6984 27.3256 39.5016 27.3256 38.0239C27.3256 37.037 27.8672 36.1838 28.6628 35.7198V25.9885C28.6628 25.2503 29.2606 24.6513 30.0001 24.6513C30.7396 24.6513 31.3373 25.2503 31.3373 25.9885V35.7198C32.133 36.1838 32.6746 37.037 32.6746 38.0239C32.6747 39.5015 31.4779 40.6984 30.0001 40.6984Z" fill="white"/>
</g>
<defs>
<clipPath id="clip0_1702_100384">
<rect width="32.093" height="32.093" fill="white" transform="translate(13.9531 13.9531)"/>
</clipPath>
</defs>
</svg>
