<svg width="61" height="60" viewBox="0 0 61 60" fill="none" xmlns="http://www.w3.org/2000/svg">
<circle cx="30.5" cy="30" r="30" fill="#FF9A6B"/>
<g clip-path="url(#clip0_1702_100781)">
<path d="M27.72 37.7043L30.465 32.6805L31.0397 32.5046L30.1498 37.1447C30.0826 37.4947 30.1222 37.8466 30.2653 38.1729L33.2616 45.0016C33.5482 45.6548 34.1873 46.0442 34.8578 46.0442C35.0915 46.0442 35.3291 45.997 35.5569 45.8969C36.4377 45.5103 36.8388 44.4827 36.4522 43.6017L33.6733 37.2688L34.8723 31.0187C34.8866 30.9436 34.8941 30.869 34.8987 30.7947C34.9496 30.6059 34.9509 30.4012 34.8895 30.2003L33.9354 27.0824C33.7573 27.1041 33.5916 27.1101 33.4477 27.1109H33.4461H33.4446C32.6403 27.1072 31.7233 26.9213 30.4702 26.5086C30.4247 26.4935 30.3804 26.4763 30.3378 26.457C29.4378 27.1088 28.6448 27.6103 27.933 27.9757C27.3901 28.2504 26.9277 28.4361 26.5014 28.5511L27.309 31.1904L24.4089 36.4982C24.2421 36.8036 24.1712 37.1429 24.2025 37.4896L24.8298 44.4577C24.9112 45.363 25.6712 46.0437 26.563 46.0438C26.6152 46.0438 26.6678 46.0414 26.7209 46.0367C27.6793 45.9506 28.3861 45.1038 28.2998 44.1457L27.72 37.7043Z" fill="white"/>
<path d="M23.8794 27.679C24.0649 27.9173 24.3262 28.1212 24.6154 28.2444C24.904 28.3695 25.2103 28.4197 25.5094 28.4197H25.5119C26.2291 28.412 26.9369 28.1701 27.8054 27.7308C28.4628 27.3933 29.2099 26.9275 30.0761 26.3055C29.608 25.9562 29.3917 25.3339 29.5852 24.7498C29.7615 24.218 30.2345 23.8488 30.7845 23.8003C30.4101 23.5996 29.9378 23.6222 29.5791 23.8976C28.4076 24.7968 27.4793 25.393 26.7883 25.7464C26.254 26.025 25.8591 26.1432 25.6477 26.1784C25.6446 25.9118 25.7676 25.4298 25.9597 24.981L26.2422 25.0272C26.1244 25.2914 26.0331 25.5697 25.9795 25.7995C26.1533 25.7385 26.381 25.6444 26.6594 25.4995C27.3937 25.1239 28.3441 24.4941 29.4094 23.6766C29.6549 23.4883 29.9481 23.3885 30.257 23.3885C30.6567 23.3885 31.0264 23.5563 31.2905 23.8498C31.309 23.8551 31.3279 23.8597 31.3461 23.8658C32.0663 24.1068 32.5838 24.2223 32.9276 24.2774C32.9101 24.2516 32.8922 24.2258 32.8737 24.2004C32.5905 23.8024 32.1653 23.3655 31.7901 23.0866L31.9905 22.8896C32.3784 23.1848 32.8044 23.6221 33.1003 24.0381C33.2486 24.2448 33.3649 24.4459 33.4353 24.6053C33.0469 24.6068 32.31 24.482 31.2586 24.1305C30.6742 23.9366 30.0433 24.2535 29.8498 24.838C29.6559 25.4225 29.9727 26.0534 30.557 26.2469C31.7536 26.641 32.6649 26.8316 33.4458 26.8354C34.0149 26.8322 34.5614 26.7345 35.0444 26.372C35.2804 26.1925 35.4769 25.9428 35.5929 25.6759C35.7109 25.4086 35.7536 25.1356 35.7534 24.8879C35.7435 24.2515 35.5195 23.7447 35.2464 23.2557C34.8263 22.5314 34.236 21.8602 33.5913 21.3152C33.5903 21.3144 33.5893 21.3135 33.5885 21.3127C33.2638 21.0413 32.9266 20.8034 32.5664 20.6166C32.2042 20.4344 31.822 20.2835 31.3334 20.2773C31.1396 20.2769 30.9243 20.3079 30.7105 20.3877L30.211 20.5406C30.1748 20.661 30.1311 20.7798 30.0812 20.8968C30.0472 20.9554 30.0191 21.0168 29.9964 21.0804C29.9822 21.1091 29.9685 21.1381 29.9533 21.1664C29.5252 21.9716 28.8093 22.5624 27.937 22.8291C27.611 22.929 27.2747 22.9795 26.9368 22.9795C26.221 22.9795 25.5515 22.7591 24.9963 22.3758C24.9266 22.4499 24.8601 22.5263 24.7939 22.6046C24.4153 23.072 24.0975 23.6385 23.8473 24.2523C23.7997 24.3719 23.7556 24.4931 23.7137 24.6151C23.5402 25.1208 23.4216 25.6469 23.418 26.195C23.4208 26.6609 23.5041 27.192 23.8794 27.679Z" fill="white"/>
<path d="M27.8585 22.5572C29.5141 22.0498 30.4448 20.2964 29.9374 18.6408C29.43 16.9852 27.6765 16.0544 26.021 16.5618C24.3655 17.0691 23.4348 18.8226 23.9422 20.4782C24.4496 22.1338 26.203 23.0646 27.8585 22.5572Z" fill="white"/>
<path d="M32.9502 19.4162L35.2868 16.7365L33.9536 16.4384L35.425 14.2472L34.9126 13.9531L33.3085 16.73L34.5249 16.9142L32.8359 19.3437L32.9502 19.4162Z" fill="white"/>
<path d="M35.7961 19.0932L33.5352 20.167L33.5887 20.2676L36.43 19.283L35.5763 18.5035L37.5778 17.5134L37.3253 17.082L34.9804 18.4465L35.7961 19.0932Z" fill="white"/>
<path d="M31.552 19.2347L31.6629 19.2485L32.4581 16.3958L31.3489 16.6496L31.6691 14.4747L31.1778 14.4375L30.9688 17.1003L31.9497 16.8026L31.552 19.2347Z" fill="white"/>
</g>
<defs>
<clipPath id="clip0_1702_100781">
<rect width="32.093" height="32.093" fill="white" transform="translate(14.4531 13.9531)"/>
</clipPath>
</defs>
</svg>
