<svg width="61" height="60" viewBox="0 0 61 60" fill="none" xmlns="http://www.w3.org/2000/svg">
<circle cx="30.5" cy="30" r="30" fill="#FF9A6B"/>
<g clip-path="url(#clip0_1702_100661)">
<path d="M39.3608 27.2122C35.1865 27.2122 31.7904 23.8161 31.7904 19.6417C31.7904 19.0702 31.8544 18.5134 31.975 17.9778C31.4808 18.0349 30.9898 18.1255 30.5059 18.2496L28.9713 18.6429V30.9456H27.0909V18.6428L25.5563 18.2495C24.1123 17.8794 22.605 17.7996 21.1363 18.0542C18.0007 18.5976 15.9492 20.4393 15.9492 25.919C15.9492 34.8159 21.3585 46.0449 28.0311 46.0449C34.3925 46.0449 39.6052 35.8392 40.0777 27.1781C39.8416 27.2003 39.6026 27.2122 39.3608 27.2122ZM21.4182 30.9385H19.5377V29.0581H21.4182V30.9385ZM23.3065 36.6034H21.426V34.7229H23.3065V36.6034ZM25.1948 40.3799H23.3143V38.4995H25.1948V40.3799ZM25.1948 32.8258H23.3143V30.9453H25.1948V32.8258ZM27.0831 36.6034H25.2026V34.7229H27.0831V36.6034ZM28.9713 42.2682H27.0909V40.3878H28.9713V42.2682Z" fill="white"/>
<path d="M39.3619 25.3331C42.4993 25.3331 45.0519 22.7806 45.0519 19.6431C45.0519 16.5056 42.4993 13.9531 39.3619 13.9531C36.2244 13.9531 33.6719 16.5056 33.6719 19.6431C33.6719 22.7806 36.2243 25.3331 39.3619 25.3331ZM35.9315 17.5005L37.2612 16.1709L39.3828 18.2925L41.5045 16.1709L42.8341 17.5005L40.7125 19.6222L42.8341 21.7438L41.5045 23.0735L39.3828 20.9518L37.2612 23.0735L35.9315 21.7438L38.0531 19.6222L35.9315 17.5005Z" fill="white"/>
</g>
<defs>
<clipPath id="clip0_1702_100661">
<rect width="32.093" height="32.093" fill="white" transform="translate(14.4531 13.9531)"/>
</clipPath>
</defs>
</svg>
