<svg width="61" height="60" viewBox="0 0 61 60" fill="none" xmlns="http://www.w3.org/2000/svg">
<circle cx="30.5" cy="30" r="30" fill="#FF9A6B"/>
<g clip-path="url(#clip0_1702_100444)">
<path d="M20.6127 29.7342L22.1579 30.1574L22.6546 28.3437L18.7323 27.2695V28.7667L17.1882 28.3437L16.6914 30.1573L20.6127 31.2316V29.7342Z" fill="white"/>
<path d="M38.3477 28.3437L38.8443 30.1574L40.3896 29.7342V31.2316L44.3109 30.1573L43.8141 28.3437L42.27 28.7667V27.2695L38.3477 28.3437Z" fill="white"/>
<path d="M32.14 34.7924L31.777 34.5411L31.7386 34.1012C31.7153 33.8344 31.5405 33.6964 31.4385 33.6379C31.3563 33.5907 31.1387 33.4936 30.8952 33.6091L30.4961 33.7983L30.0956 33.6118C30.0087 33.5713 29.9258 33.5566 29.8511 33.5566C29.7092 33.5566 29.5968 33.6099 29.543 33.6413C29.4618 33.6887 29.2708 33.8276 29.2499 34.093L29.2153 34.5348L28.8524 34.7893C28.6251 34.9487 28.6013 35.1862 28.6016 35.2809C28.6019 35.3754 28.6265 35.6117 28.8473 35.7644L29.2105 36.0155L29.2492 36.4553C29.2727 36.7219 29.4474 36.8598 29.5495 36.9182C29.6317 36.9653 29.8491 37.0622 30.0924 36.9469L30.4916 36.7576L30.8921 36.9441C31.1442 37.0615 31.3626 36.9626 31.4448 36.9146C31.526 36.8672 31.717 36.7283 31.7378 36.4629L31.7728 36.0177L32.1399 35.7634C32.3696 35.6045 32.3944 35.3709 32.3944 35.2779C32.3944 35.185 32.3696 34.9514 32.14 34.7924Z" fill="white"/>
<path d="M30.4987 28.0729C35.0292 28.0729 38.8006 24.5943 39.1659 20.0787L39.6616 13.9531H21.3359L21.8316 20.0787C22.1969 24.5943 25.9683 28.0729 30.4987 28.0729Z" fill="white"/>
<path d="M42.0463 35.049C40.8463 34.0931 38.3714 33.1156 36.7446 32.7279L36.0364 28.3868C34.3829 29.4045 32.4739 29.9511 30.4996 29.9511C28.5254 29.9511 26.6163 29.4045 24.9628 28.3867L24.2547 32.7278C22.6279 33.1155 20.153 34.0931 18.953 35.0489C17.7963 35.332 15.9775 35.655 14.4531 36.432V46.0429H46.5462V36.432C45.0217 35.655 43.203 35.332 42.0463 35.049ZM26.8557 41.7229L23.3233 43.7361L22.3922 42.1024L23.7831 41.3097L22.7244 40.251L26.2575 38.2371L27.1887 39.8708L25.7968 40.6641L26.8557 41.7229ZM32.3944 38.5379C31.8156 38.8757 31.132 38.9634 30.4994 38.7935C30.2886 38.8511 30.0716 38.8797 29.8546 38.8797C29.4277 38.8797 29.0003 38.7689 28.6167 38.5493C28.0366 38.2171 27.6202 37.6697 27.4514 37.0379C26.9915 36.5818 26.7249 35.9527 26.7228 35.2864C26.7206 34.6185 26.986 33.9848 27.448 33.5229C27.6116 32.8974 28.0216 32.3523 28.5966 32.0167C29.1754 31.6788 29.859 31.5911 30.4916 31.7611C31.1174 31.5903 31.7965 31.674 32.3753 32.0058C32.9551 32.3382 33.3711 32.8854 33.5398 33.5171C34.0069 33.9774 34.2765 34.61 34.2765 35.2773C34.2765 35.9435 34.0077 36.5751 33.5421 37.0352C33.378 37.6592 32.9684 38.2029 32.3944 38.5379ZM37.676 43.7361L34.1436 41.7229L35.2025 40.6641L33.8106 39.8707L34.7418 38.237L38.2749 40.2509L37.2162 41.3096L38.6071 42.1023L37.676 43.7361Z" fill="white"/>
</g>
<defs>
<clipPath id="clip0_1702_100444">
<rect width="32.093" height="32.093" fill="white" transform="translate(14.4531 13.9531)"/>
</clipPath>
</defs>
</svg>
