<svg width="60" height="60" viewBox="0 0 60 60" fill="none" xmlns="http://www.w3.org/2000/svg">
<circle cx="30" cy="30" r="30" fill="#FF9A6B"/>
<g clip-path="url(#clip0_1702_100699)">
<path d="M21.6404 33.5162L21.6987 32.7866C20.8343 32.7716 20.0057 32.3359 19.419 31.5863C18.8668 30.8798 18.5621 29.9534 18.5621 28.9781C18.5621 28.0027 18.8668 27.0769 19.419 26.3705C20.0164 25.6071 20.8651 25.1689 21.747 25.1689C21.9595 25.1689 22.1695 25.194 22.3744 25.2429L22.5073 23.9284C22.6891 22.137 24.1264 20.751 25.9254 20.6326C32.1973 20.1938 31.8682 20.2157 31.9077 20.2151C32.3483 20.2082 32.8228 20.0101 33.3299 19.6773C33.683 19.0914 34.222 16.8104 33.6233 14.6558C33.4346 13.977 32.6016 13.7269 32.0688 14.1882C31.5199 14.6628 30.9608 15.2576 29.8618 15.2576H23.5955C20.4689 15.2576 17.5718 16.7669 15.7822 19.2341C14.0691 21.5928 13.5238 24.5991 14.2973 27.4066L16.2479 34.6363H20.4225C21.0544 34.6363 21.5897 34.1444 21.6404 33.5162Z" fill="white"/>
<path d="M36.4576 29.5318L33.5266 25.7114C33.3235 25.4462 33.2194 25.1184 33.2345 24.7843C33.2639 24.1312 33.2965 22.949 33.2188 21.8125C32.7913 21.9861 32.3726 22.0852 31.9639 22.0939L26.053 22.5076C25.1698 22.5659 24.4672 23.2423 24.3782 24.1167L24.1024 26.849C24.0233 27.6428 23.0442 27.9841 22.4889 27.4056C22.3322 27.2426 22.0771 27.0483 21.7474 27.0483C21.0404 27.0483 20.443 27.9315 20.443 28.977C20.443 30.0225 21.0404 30.9057 21.7474 30.9057C21.9154 30.9057 22.0809 30.855 22.2388 30.7547C22.8941 30.3397 23.7417 30.8546 23.6793 31.6241L23.515 33.6662C23.3853 35.2646 22.0276 36.5157 20.4229 36.5157H16.6896C16.7956 37.7318 16.9065 40.4378 16.3574 44.2883C16.2878 44.776 16.5969 45.2386 17.077 45.3564C20.2211 46.1267 23.9002 46.3359 27.1036 45.542C27.6251 45.4122 27.9435 44.8863 27.8075 44.3661C27.526 43.298 27.1123 41.3718 27.0428 39.0869C28.7935 39.2932 30.635 39.1321 32.3776 38.9039C33.4745 38.761 34.5282 38.2495 34.5282 36.9821V35.3875L34.5276 35.3868C34.5163 35.3856 34.505 35.3843 34.4931 35.3825C33.7159 35.2659 32.6766 35.2333 32.1369 35.7366C31.7515 36.0972 31.145 36.0802 30.7792 35.6915C30.4169 35.3047 30.4376 34.698 30.825 34.3363C31.6649 33.5509 32.9104 33.2544 34.5282 33.4519V31.6598L36.1015 30.9484C36.6494 30.7002 36.823 30.0082 36.4576 29.5318Z" fill="white"/>
<path d="M36.1915 20.3903C36.5897 20.7244 37.184 20.6729 37.5187 20.2754L39.1892 18.2912C39.5239 17.8937 39.4724 17.3006 39.0741 16.9665C38.6758 16.6325 38.0816 16.6839 37.7469 17.0814L36.0763 19.0655C35.7417 19.4631 35.7931 20.0562 36.1915 20.3903Z" fill="white"/>
<path d="M36.6328 22.9129C36.6328 23.4321 37.0546 23.8531 37.5748 23.8531H40.357C40.8772 23.8531 41.299 23.4321 41.299 22.9129C41.299 22.3936 40.8772 21.9727 40.357 21.9727H37.5748C37.0546 21.9726 36.6328 22.3936 36.6328 22.9129Z" fill="white"/>
<path d="M44.0224 31.4704C43.9895 31.125 43.8953 30.785 43.7416 30.4673C43.3984 29.7585 42.7992 29.2255 42.0545 28.9664C41.3097 28.7074 40.5084 28.7534 39.7988 29.0957C39.2752 29.3478 38.842 29.7441 38.5461 30.2418C38.2806 30.6884 38.4281 31.2652 38.8755 31.5302C39.3229 31.7951 39.9009 31.648 40.1664 31.2014C40.2726 31.0228 40.4285 30.8803 40.618 30.7891C41.4492 30.3881 42.3469 31.1577 42.1162 32.02C41.9731 32.5551 42.3184 33.2016 43.0939 33.2016C43.6832 33.2016 44.1626 33.6802 44.1626 34.2684C44.1626 34.8405 43.7017 35.3492 43.048 35.3343C42.4195 35.3208 41.9547 35.9121 42.1162 36.5165C42.1623 36.6894 42.1875 36.9572 42.0452 37.2511C41.6721 38.0219 40.5931 38.0531 40.1664 37.3352C39.9009 36.8886 39.323 36.7415 38.8756 37.0064C38.4281 37.2714 38.2807 37.8482 38.5461 38.2948C38.8419 38.7925 39.275 39.1888 39.7982 39.4407C41.271 40.151 43.0329 39.5332 43.7416 38.0693C43.8953 37.7517 43.9895 37.4118 44.0224 37.0663C45.197 36.677 46.0466 35.5698 46.0466 34.2684C46.0466 32.9669 45.197 31.8598 44.0224 31.4704Z" fill="white"/>
<path d="M41.167 34.2684C41.167 33.7491 40.7452 33.3281 40.225 33.3281H37.3599C36.8397 33.3281 36.418 33.7491 36.418 34.2684C36.418 34.7876 36.8398 35.2086 37.3599 35.2086H40.225C40.7453 35.2086 41.167 34.7876 41.167 34.2684Z" fill="white"/>
</g>
<defs>
<clipPath id="clip0_1702_100699">
<rect width="32.093" height="32.093" fill="white" transform="translate(13.9531 13.9531)"/>
</clipPath>
</defs>
</svg>
