<svg width="60" height="60" viewBox="0 0 60 60" fill="none" xmlns="http://www.w3.org/2000/svg">
<circle cx="30" cy="30" r="30" fill="#FF9A6B"/>
<g clip-path="url(#clip0_1702_100603)">
<path d="M18.5381 29.6655L19.2791 30.4065C19.504 30.6237 19.8614 30.6205 20.0825 30.3995C20.3035 30.1784 20.3066 29.821 20.0894 29.5961L19.3484 28.8551C18.9009 28.4077 18.1753 28.4077 17.7277 28.8551L17.3919 29.1909L16.6509 28.4499C16.426 28.2328 16.0686 28.2359 15.8475 28.4569C15.6265 28.678 15.6234 29.0354 15.8406 29.2603L16.5816 30.0013C17.0291 30.4487 17.7547 30.4487 18.2023 30.0013L18.5381 29.6655Z" fill="white"/>
<path d="M21.3759 33.2645C21.3292 33.1198 21.227 32.9996 21.0917 32.9302C20.9564 32.8609 20.799 32.8482 20.6543 32.8949L19.6572 33.2164C19.055 33.4106 18.7241 34.056 18.9179 34.6583L19.0634 35.111L18.0657 35.432C17.7969 35.5184 17.6311 35.7877 17.675 36.0666C17.7188 36.3455 17.9593 36.5509 18.2416 36.5506C18.3014 36.5507 18.3608 36.5413 18.4176 36.5226L19.4147 36.2016C19.7042 36.1084 19.9447 35.9039 20.0834 35.6333C20.222 35.3626 20.2474 35.048 20.154 34.7586L20.0085 34.3064L21.0062 33.9855C21.3073 33.8884 21.4727 33.5657 21.3759 33.2645Z" fill="white"/>
<path d="M21.3703 26.3664L21.0144 25.3801C20.799 24.7856 20.1427 24.4778 19.5479 24.6924L19.1009 24.8535L18.7455 23.8672C18.6381 23.5693 18.3095 23.415 18.0117 23.5225C17.7139 23.6299 17.5595 23.9585 17.667 24.2563L18.0229 25.2426C18.2383 25.8374 18.895 26.1453 19.49 25.9303L19.9364 25.7693L20.2917 26.755C20.3612 26.9476 20.5281 27.0886 20.7296 27.1249C20.9312 27.1611 21.1368 27.087 21.2689 26.9306C21.4011 26.7741 21.4397 26.5591 21.3703 26.3664Z" fill="white"/>
<path d="M43.4172 30.0013L44.1582 29.2603C44.3754 29.0354 44.3723 28.678 44.1513 28.4569C43.9302 28.2359 43.5728 28.2328 43.3479 28.4499L42.6069 29.1909L42.2711 28.8551C41.8235 28.4077 41.0979 28.4077 40.6504 28.8551L39.9093 29.5961C39.7604 29.74 39.7006 29.9531 39.7531 30.1534C39.8055 30.3538 39.962 30.5103 40.1624 30.5627C40.3627 30.6152 40.5758 30.5554 40.7197 30.4065L41.4607 29.6655L41.7965 30.0013C42.2441 30.4487 42.9696 30.4487 43.4172 30.0013Z" fill="white"/>
<path d="M39.9144 35.6325C40.0523 35.9036 40.2929 36.1081 40.5827 36.2004L41.5798 36.5214C41.6366 36.5401 41.696 36.5496 41.7558 36.5495C42.0381 36.5497 42.2786 36.3443 42.3224 36.0654C42.3663 35.7865 42.2005 35.5172 41.9317 35.4308L40.934 35.1093L41.0795 34.6577C41.2737 34.0552 40.9427 33.4094 40.3402 33.2152L39.3431 32.8937C39.0491 32.8169 38.7463 32.9829 38.6529 33.272C38.5595 33.5611 38.7079 33.8728 38.9912 33.9826L39.9889 34.3035L39.8434 34.7557C39.7486 35.0457 39.7742 35.3616 39.9144 35.6325Z" fill="white"/>
<path d="M38.9764 27.1022C39.2739 27.2096 39.6022 27.0557 39.71 26.7583L40.0653 25.7726L40.5117 25.9336C41.1067 26.1486 41.7634 25.8408 41.9788 25.2459L42.3347 24.2602C42.4422 23.9624 42.2878 23.6338 41.99 23.5264C41.6922 23.4189 41.3636 23.5732 41.2562 23.8711L40.9008 24.8574L40.4538 24.6958C39.8589 24.4828 39.2037 24.79 38.9867 25.3835L38.6314 26.3698C38.5248 26.6673 38.6791 26.9949 38.9764 27.1022Z" fill="white"/>
<path d="M25.2867 21.0743C26.3835 20.6633 27.1169 19.623 27.1355 18.4519V14.5262C27.1355 14.2097 27.3921 13.9531 27.7086 13.9531H32.2933C32.6098 13.9531 32.8664 14.2097 32.8664 14.5262V18.4519C32.885 19.623 33.6184 20.6633 34.7152 21.0743C36.1793 21.659 37.0583 23.1646 36.8477 24.727C36.637 26.2895 35.3908 27.5085 33.8241 27.6847C32.2574 27.8608 30.7716 26.9489 30.2193 25.4722C30.0783 25.0827 30.0045 24.6721 30.0009 24.2579C29.9923 23.9476 29.7382 23.7007 29.4279 23.7008H29.4244C29.2724 23.7017 29.127 23.763 29.0202 23.8711C28.9134 23.9792 28.8539 24.1253 28.8548 24.2773C28.8612 24.9725 29.0252 25.6571 29.3344 26.2797C28.4772 27.4628 26.9651 27.9738 25.5659 27.5533C24.1667 27.1327 23.1869 25.8727 23.124 24.413C23.0611 22.9533 23.9289 21.6137 25.2867 21.0743ZM34.7152 38.9249C33.6183 39.3358 32.8848 40.3763 32.8664 41.5474V45.4731C32.8664 45.7896 32.6098 46.0461 32.2933 46.0461H27.7086C27.3921 46.0461 27.1355 45.7896 27.1355 45.4731V41.5474C27.1171 40.3763 26.3836 39.3358 25.2867 38.9249C23.8564 38.3565 22.9781 36.9068 23.1364 35.3758C23.2948 33.8448 24.4512 32.6056 25.9675 32.3419C26.1609 32.3092 26.3566 32.2925 26.5527 32.292C27.6553 32.2912 28.6911 32.8207 29.3362 33.715C29.0258 34.3385 28.8612 35.0244 28.8548 35.7208C28.8539 35.8728 28.9134 36.0189 29.0202 36.127C29.127 36.2352 29.2724 36.2964 29.4244 36.2973H29.4279C29.741 36.2974 29.9962 36.046 30.0009 35.7328C30.0027 35.3219 30.0768 34.9145 30.2199 34.5293C30.7716 33.0522 32.2574 32.1396 33.8244 32.3155C35.3914 32.4913 36.638 33.7104 36.8487 35.2731C37.0594 36.8358 36.1802 38.3415 34.7158 38.9261L34.7152 38.9249ZM36.4482 32.2771C35.8192 31.7234 35.0488 31.355 34.2229 31.2129C32.6523 30.9425 31.0539 31.5066 30.0009 32.7029C28.9483 31.5061 27.3496 30.9419 25.779 31.2129C24.9531 31.355 24.1827 31.7234 23.5537 32.2771C22.9366 31.6768 22.577 30.8601 22.5508 29.9996C22.5774 29.1397 22.937 28.3238 23.5537 27.7239C24.1827 28.2776 24.9531 28.646 25.779 28.7881C27.35 29.0587 28.9487 28.4938 30.0009 27.2964C30.8707 28.2882 32.1266 28.8559 33.4458 28.8535C33.7062 28.8531 33.9661 28.8314 34.2229 28.7887C35.0488 28.6466 35.8192 28.2782 36.4482 27.7245C37.0648 28.3242 37.4243 29.1399 37.4511 29.9996C37.4245 30.8595 37.0649 31.6755 36.4482 32.2754V32.2771Z" fill="white"/>
</g>
<defs>
<clipPath id="clip0_1702_100603">
<rect width="32.093" height="32.093" fill="white" transform="translate(13.9531 13.9531)"/>
</clipPath>
</defs>
</svg>
