<svg width="60" height="60" viewBox="0 0 60 60" fill="none" xmlns="http://www.w3.org/2000/svg">
<circle cx="30" cy="30" r="30" fill="#0CAA70"/>
<path d="M44.0384 25.9861C44.0384 22.1169 36.3722 15.957 29.9977 15.957C23.6233 15.957 15.957 22.1169 15.957 25.9861C15.957 29.7971 23.8008 36.0152 29.9977 36.0152C36.1947 36.0152 44.0384 29.7971 44.0384 25.9861ZM21.3286 30.439L21.9023 30.1522L22.9222 30.8321C23.0317 30.9079 23.1552 30.9611 23.2855 30.9887C23.4158 31.0162 23.5503 31.0175 23.6811 30.9925C23.812 30.9675 23.9365 30.9168 24.0475 30.8431C24.1584 30.7695 24.2536 30.6745 24.3275 30.5637C24.4013 30.4528 24.4524 30.3284 24.4776 30.1976C24.5029 30.0669 24.5018 29.9324 24.4746 29.802C24.4473 29.6717 24.3943 29.5481 24.3188 29.4384C24.2432 29.3287 24.1465 29.2352 24.0344 29.1633L22.5301 28.1604C22.3832 28.0627 22.2131 28.0056 22.037 27.9947C21.8609 27.9837 21.685 28.0195 21.5272 28.0982L19.737 28.9948C18.8295 28.2154 18.2057 27.1574 17.9628 25.9861C18.1755 24.8494 18.758 23.8149 19.6196 23.0436L19.9687 23.3926V24.9832C19.9687 25.2492 20.0743 25.5043 20.2624 25.6924C20.4505 25.8804 20.7056 25.9861 20.9716 25.9861C21.2376 25.9861 21.4926 25.8804 21.6807 25.6924C21.8688 25.5043 21.9745 25.2492 21.9745 24.9832V23.9803H22.9774C23.2434 23.9803 23.4985 23.8746 23.6865 23.6865C23.8746 23.4985 23.9803 23.2434 23.9803 22.9774C23.9803 22.7114 23.8746 22.4563 23.6865 22.2682C23.4985 22.0801 23.2434 21.9745 22.9774 21.9745H21.3868L21.0859 21.6736C23.4387 19.7089 26.8025 17.9628 29.9977 17.9628C33.1248 17.9628 36.5016 19.733 38.8815 21.7017L38.6087 21.9745H38.021C37.755 21.9745 37.4999 22.0801 37.3118 22.2682C37.1237 22.4563 37.0181 22.7114 37.0181 22.9774C37.0181 23.2434 37.1237 23.4985 37.3118 23.6865C37.4999 23.8746 37.755 23.9803 38.021 23.9803H39.0239C39.2899 23.9802 39.5449 23.8745 39.7329 23.6864L40.3487 23.0707C41.2153 23.8309 41.8071 24.8556 42.0326 25.9861C41.8071 27.1166 41.2153 28.1413 40.3487 28.9016L39.8473 28.4001L38.9166 26.5397C38.7976 26.3018 38.5889 26.1209 38.3365 26.0368C38.0841 25.9527 37.8086 25.9724 37.5707 26.0914C37.3328 26.2104 37.1519 26.4191 37.0678 26.6715C36.9837 26.9239 37.0034 27.1994 37.1224 27.4373L37.5657 28.3249L36.7724 28.5255C36.6427 28.5555 36.5202 28.6111 36.4122 28.689C36.3042 28.7669 36.2128 28.8655 36.1434 28.9791C36.0739 29.0927 36.0277 29.219 36.0076 29.3506C35.9874 29.4822 35.9936 29.6165 36.0259 29.7457C36.0582 29.8749 36.1159 29.9963 36.1956 30.103C36.2754 30.2096 36.3755 30.2993 36.4903 30.3668C36.6051 30.4344 36.7321 30.4783 36.864 30.4963C36.996 30.5142 37.1302 30.5056 37.2588 30.4711L38.714 30.107L38.8785 30.2715C36.5016 32.2392 33.1248 34.0094 29.9977 34.0094C26.9609 34.0094 23.6945 32.3385 21.3286 30.439Z" fill="white"/>
<path d="M29.9979 19.9688C28.8078 19.9688 27.6444 20.3217 26.6548 20.9829C25.6652 21.6441 24.894 22.5839 24.4385 23.6834C23.9831 24.783 23.8639 25.9929 24.0961 27.1601C24.3283 28.3274 24.9014 29.3996 25.7429 30.2412C26.5845 31.0827 27.6567 31.6558 28.824 31.888C29.9912 32.1202 31.2011 32.001 32.3007 31.5456C33.4002 31.0901 34.34 30.3189 35.0012 29.3293C35.6624 28.3397 36.0154 27.1763 36.0154 25.9862C36.0135 24.3908 35.3789 22.8614 34.2508 21.7333C33.1227 20.6052 31.5933 19.9706 29.9979 19.9688ZM29.9979 27.992C29.6012 27.992 29.2134 27.8744 28.8835 27.654C28.5537 27.4336 28.2966 27.1203 28.1448 26.7538C27.993 26.3873 27.9532 25.984 28.0306 25.5949C28.108 25.2058 28.2991 24.8484 28.5796 24.5679C28.8601 24.2873 29.2175 24.0963 29.6066 24.0189C29.9957 23.9415 30.399 23.9812 30.7655 24.1331C31.132 24.2849 31.4453 24.542 31.6657 24.8718C31.8861 25.2017 32.0037 25.5895 32.0037 25.9862C32.0037 26.5182 31.7924 27.0284 31.4162 27.4045C31.0401 27.7807 30.5299 27.992 29.9979 27.992Z" fill="white"/>
<path d="M20.1482 35.4463C19.4913 36.3961 17.9648 38.7459 17.9648 40.0276C17.9648 40.8256 18.2818 41.5909 18.8461 42.1551C19.4103 42.7193 20.1756 43.0363 20.9736 43.0363C21.7715 43.0363 22.5368 42.7193 23.1011 42.1551C23.6653 41.5909 23.9823 40.8256 23.9823 40.0276C23.9823 38.7459 22.4559 36.3961 21.799 35.4463C21.7019 35.3197 21.5769 35.217 21.4338 35.1464C21.2906 35.0758 21.1332 35.0391 20.9736 35.0391C20.814 35.0391 20.6565 35.0758 20.5134 35.1464C20.3702 35.217 20.2453 35.3197 20.1482 35.4463Z" fill="white"/>
<path d="M39.8497 36.4502C39.7526 36.3236 39.6277 36.221 39.4845 36.1503C39.3414 36.0797 39.184 36.043 39.0243 36.043C38.8647 36.043 38.7073 36.0797 38.5641 36.1503C38.421 36.221 38.2961 36.3236 38.199 36.4502C37.542 37.4 36.0156 39.7498 36.0156 41.0315C36.0156 41.8295 36.3326 42.5948 36.8969 43.159C37.4611 43.7233 38.2264 44.0402 39.0243 44.0402C39.8223 44.0402 40.5876 43.7233 41.1518 43.159C41.7161 42.5948 42.0331 41.8295 42.0331 41.0315C42.0331 39.7498 40.5066 37.4 39.8497 36.4502Z" fill="white"/>
</svg>
