<svg width="48" height="48" viewBox="0 0 48 48" fill="none" xmlns="http://www.w3.org/2000/svg">
<path fill-rule="evenodd" clip-rule="evenodd" d="M43.2008 24.0008C43.2008 34.6046 34.6046 43.2008 24.0008 43.2008C13.3969 43.2008 4.80078 34.6046 4.80078 24.0008C4.80078 13.3969 13.3969 4.80078 24.0008 4.80078C34.6046 4.80078 43.2008 13.3969 43.2008 24.0008ZM26.4008 33.6008C26.4008 34.9263 25.3263 36.0008 24.0008 36.0008C22.6753 36.0008 21.6008 34.9263 21.6008 33.6008C21.6008 32.2753 22.6753 31.2008 24.0008 31.2008C25.3263 31.2008 26.4008 32.2753 26.4008 33.6008ZM24.0008 12.0008C22.6753 12.0008 21.6008 13.0753 21.6008 14.4008V24.0008C21.6008 25.3263 22.6753 26.4008 24.0008 26.4008C25.3263 26.4008 26.4008 25.3263 26.4008 24.0008V14.4008C26.4008 13.0753 25.3263 12.0008 24.0008 12.0008Z" fill="#EB5757"/>
</svg>
