<svg width="60" height="60" viewBox="0 0 60 60" fill="none" xmlns="http://www.w3.org/2000/svg">
<circle cx="30" cy="30" r="30" fill="#0CAA70"/>
<path d="M45.5457 19.9688L33.5108 25.4847L32.1754 24.532C30.7361 23.504 29.1313 22.7303 27.4307 22.2443C26.814 22.068 26.2525 21.7376 25.799 21.2841C25.6503 21.1353 25.4608 21.034 25.2546 20.9929C25.0483 20.9518 24.8345 20.9728 24.6402 21.0532C24.4459 21.1336 24.2797 21.2698 24.1628 21.4446C24.0458 21.6194 23.9833 21.8249 23.9832 22.0352C23.9836 22.6463 24.1819 23.2407 24.5483 23.7297C25.1627 24.5492 25.9908 25.184 26.9418 25.5645L27.5937 25.8257C27.7259 25.8784 27.8367 25.9738 27.9084 26.0967C27.9801 26.2196 28.0087 26.363 27.9896 26.504C27.9704 26.6451 27.9047 26.7756 27.8028 26.875C27.7008 26.9743 27.5686 27.0367 27.4272 27.0523L23.4817 27.4906H16.9628C16.6969 27.4906 16.4418 27.5962 16.2537 27.7843C16.0656 27.9724 15.9599 28.2275 15.9599 28.4935C15.9599 28.7594 16.0656 29.0145 16.2537 29.2026C16.4418 29.3907 16.6969 29.4964 16.9628 29.4964H22.9221C23.0585 29.4975 23.1899 29.5484 23.2914 29.6395C23.3929 29.7307 23.4576 29.8558 23.4734 29.9913C23.4892 30.1268 23.4549 30.2634 23.377 30.3754C23.2991 30.4874 23.183 30.5671 23.0505 30.5996L15.625 32.3481C15.4349 32.3929 15.2655 32.5005 15.1442 32.6536C15.023 32.8067 14.957 32.9963 14.957 33.1916C14.957 33.3958 15.0044 33.5973 15.0955 33.7801C15.1866 33.9629 15.3188 34.1221 15.4818 34.2451C15.6449 34.3681 15.8342 34.4516 16.035 34.489C16.2358 34.5265 16.4425 34.5168 16.6389 34.4608L23.1132 32.6104C23.3578 32.5406 23.611 32.5051 23.8654 32.5051C24.0296 32.5052 24.1872 32.5706 24.3033 32.6868C24.4194 32.803 24.4846 32.9606 24.4846 33.1249C24.4845 33.24 24.4524 33.3528 24.392 33.4507C24.3315 33.5486 24.245 33.6278 24.1422 33.6795L17.9783 36.7614C17.791 36.8551 17.6409 37.0093 17.5522 37.1989C17.4635 37.3886 17.4414 37.6026 17.4895 37.8064C17.5376 38.0102 17.6531 38.1918 17.8172 38.3217C17.9814 38.4517 18.1846 38.5225 18.394 38.5225C18.7712 38.5224 19.1424 38.4289 19.4746 38.2502L25.1591 35.1889C25.3741 35.073 25.6144 35.0124 25.8586 35.0124C25.9986 35.0122 26.1346 35.0586 26.2454 35.1442C26.3561 35.2298 26.4353 35.3497 26.4704 35.4852C26.5056 35.6207 26.4947 35.764 26.4395 35.8926C26.3843 36.0213 26.2879 36.1279 26.1655 36.1958L22.4643 38.2517C22.2809 38.3537 22.1365 38.5137 22.0539 38.7066C21.9712 38.8994 21.955 39.1143 22.0077 39.3174C22.0603 39.5205 22.179 39.7004 22.3449 39.8288C22.5109 39.9572 22.7148 40.0269 22.9246 40.0269C23.2892 40.0268 23.647 39.9276 23.9596 39.7401L26.6173 38.1449C27.8673 37.395 29.1753 36.7462 30.5287 36.2048C32.4124 35.4483 34.1804 34.4307 35.7809 33.182L36.3967 31.796C36.5172 31.4062 36.5496 30.9944 36.4914 30.5905C36.4332 30.1866 36.2859 29.8007 36.0602 29.4608L35.6009 28.7718L36.4358 28.2152L36.8951 28.9047C37.2106 29.378 37.4138 29.9171 37.4894 30.481C37.5649 31.0448 37.5107 31.6184 37.3309 32.1581L37.0511 32.7889L45.5457 31.0007V19.9688ZM27.9948 30.4993H26.9919V29.4964H27.9948V30.4993ZM31.505 27.992H32.5079V28.9949H31.505V27.992ZM32.0065 33.0065C31.8081 33.0065 31.6142 32.9477 31.4493 32.8375C31.2843 32.7273 31.1558 32.5707 31.0799 32.3874C31.004 32.2042 30.9841 32.0025 31.0228 31.808C31.0615 31.6134 31.157 31.4347 31.2973 31.2945C31.4375 31.1542 31.6162 31.0587 31.8108 31.02C32.0053 30.9813 32.207 31.0012 32.3902 31.0771C32.5735 31.153 32.7301 31.2815 32.8403 31.4464C32.9505 31.6114 33.0094 31.8053 33.0094 32.0036C33.0094 32.2696 32.9037 32.5247 32.7156 32.7128C32.5275 32.9009 32.2724 33.0065 32.0065 33.0065ZM38.0239 27.4906H37.021V26.4876H38.0239V27.4906ZM40.5312 28.9949C40.3328 28.9949 40.1389 28.9361 39.974 28.8259C39.809 28.7157 39.6805 28.5591 39.6046 28.3758C39.5287 28.1925 39.5088 27.9909 39.5475 27.7963C39.5862 27.6018 39.6817 27.4231 39.822 27.2828C39.9623 27.1426 40.141 27.0471 40.3355 27.0084C40.53 26.9697 40.7317 26.9895 40.915 27.0654C41.0982 27.1413 41.2548 27.2699 41.365 27.4348C41.4752 27.5997 41.5341 27.7937 41.5341 27.992C41.5341 28.258 41.4284 28.5131 41.2403 28.7012C41.0522 28.8893 40.7971 28.9949 40.5312 28.9949ZM44.0413 27.992H43.0384V26.9891H44.0413V27.992Z" fill="white"/>
</svg>
