<svg width="61" height="60" viewBox="0 0 61 60" fill="none" xmlns="http://www.w3.org/2000/svg">
<circle cx="30.5" cy="30" r="30" fill="#FF9A6B"/>
<g clip-path="url(#clip0_1702_100540)">
<path d="M20.7913 26.2498L16.869 25.1758V26.6729L15.325 26.2499L14.8281 28.0635L18.7495 29.1379V27.6404L20.2947 28.0636L20.7913 26.2498Z" fill="white"/>
<path d="M18.0549 22.1843L21.588 24.1983L22.5192 22.5647L21.1273 21.7712L22.1862 20.7124L18.6538 18.6992L17.7227 20.333L19.1136 21.1257L18.0549 22.1843Z" fill="white"/>
<path d="M46.1703 28.0635L45.6734 26.2499L44.1293 26.6729V25.1758L40.207 26.2498L40.7037 28.0636L42.2489 27.6404V29.1379L46.1703 28.0635Z" fill="white"/>
<path d="M39.4078 24.1983L42.9409 22.1843L41.8822 21.1257L43.2731 20.333L42.342 18.6992L38.8096 20.7124L39.8685 21.7712L38.4766 22.5647L39.4078 24.1983Z" fill="white"/>
<path d="M38.9605 29.3145L37.2055 27.937C37.2055 23.7608 34.4203 13.9531 30.4973 13.9531C26.5742 13.9531 23.771 23.8216 23.789 27.9634L22.0531 29.3145C19.1773 31.4194 18.4797 37.1315 23.2504 37.4873C24.1576 37.5329 25.1195 37.4396 25.9947 37.1517C25.9287 37.0039 25.8687 36.8523 25.8167 36.6963C25.6284 36.1315 25.1018 35.7521 24.5065 35.7521H23.2812V33.8716H24.5065C25.9125 33.8716 27.156 34.7678 27.6006 36.1017C28.017 37.3508 29.1813 38.19 30.498 38.19C31.8146 38.19 32.979 37.3508 33.3953 36.1017C33.84 34.7678 35.0835 33.8716 36.4894 33.8716H37.6953V35.7521H36.4894C35.8941 35.7521 35.3676 36.1316 35.1793 36.6964C35.1266 36.8544 35.0657 37.0078 34.9987 37.1573C35.8731 37.4514 36.8185 37.5473 37.7174 37.5051C42.1444 37.252 42.1656 31.8149 38.9605 29.3145Z" fill="white"/>
<path d="M34.274 40.3086C34.274 40.3086 32.0156 42.5406 32.0156 43.7879C32.0156 45.0351 33.0267 46.0462 34.274 46.0462C35.5212 46.0462 36.5323 45.0351 36.5323 43.7879C36.5324 42.5406 34.274 40.3086 34.274 40.3086Z" fill="white"/>
</g>
<defs>
<clipPath id="clip0_1702_100540">
<rect width="32.093" height="32.093" fill="white" transform="translate(14.4531 13.9531)"/>
</clipPath>
</defs>
</svg>
