<svg width="60" height="60" viewBox="0 0 60 60" fill="none" xmlns="http://www.w3.org/2000/svg">
<circle cx="30" cy="30" r="30" fill="#0CAA70"/>
<g clip-path="url(#clip0_1702_100893)">
<path d="M33.5951 29.5923L31.7689 30.2511C31.1917 30.4593 30.5655 30.4376 29.998 30.1838C29.431 30.4374 28.8048 30.4595 28.2273 30.2511L26.4011 29.5923C26.4011 29.5923 26.3867 29.0453 26.3867 44.4176C26.3867 45.3178 27.1164 46.0474 28.0165 46.0474C28.9166 46.0474 29.6463 45.3178 29.6463 44.4176V31.3905L30.35 31.3905V44.4176C30.35 45.3178 31.0797 46.0474 31.9798 46.0474C32.8799 46.0474 33.6096 45.3178 33.6096 44.4176C33.6096 29.6503 33.5951 29.5923 33.5951 29.5923Z" fill="white"/>
<path d="M22.478 25.9283C22.3753 26.5723 22.7448 27.1985 23.3583 27.4198L28.569 29.2997C29.083 29.485 29.6347 29.3417 29.9965 28.9752C30.3584 29.3417 30.91 29.485 31.424 29.2997L36.6348 27.4198C37.2483 27.1985 37.6178 26.5723 37.5151 25.9283C37.51 25.8966 37.0074 22.7425 36.8456 21.4154C36.6308 19.6537 35.2833 18.375 33.6415 18.375H33.5967C33.3627 18.8976 33.0184 19.3601 32.5932 19.7331C31.899 20.3421 30.9905 20.7126 29.9965 20.7126C29.0026 20.7126 28.0941 20.3422 27.3998 19.7331C26.9747 19.3601 26.6304 18.8976 26.3964 18.375H26.3515C24.7097 18.375 23.3621 19.6536 23.1474 21.4154C22.9856 22.7425 22.4831 25.8966 22.478 25.9283ZM25.8438 21.7441C25.8734 21.5016 26.0135 21.0913 26.3515 21.0913H26.9237C26.9237 21.0913 26.5901 23.7297 26.4612 24.5762C30.1285 25.8993 29.8689 25.8023 29.9965 25.8592C30.1242 25.8024 29.8662 25.8986 33.5319 24.5762C33.403 23.7295 33.055 21.0913 33.055 21.0913H33.6415C33.9795 21.0913 34.1197 21.5016 34.1492 21.7441C34.2556 22.6163 34.493 24.1816 34.6582 25.2453L30.5022 26.7446C30.3045 26.8159 30.1347 26.9294 29.9965 27.0699C29.8583 26.9295 29.6885 26.8159 29.4907 26.7446C29.0421 26.5827 25.7812 25.4063 25.3348 25.2453C25.5 24.1815 25.7375 22.6163 25.8438 21.7441Z" fill="white"/>
<path d="M29.9984 19.5828C31.553 19.5828 32.8132 18.3225 32.8132 16.768C32.8132 15.2134 31.553 13.9531 29.9984 13.9531C28.4438 13.9531 27.1836 15.2134 27.1836 16.768C27.1836 18.3225 28.4438 19.5828 29.9984 19.5828Z" fill="white"/>
<path d="M24.3075 29.7422H20.3929C19.9925 29.7422 19.668 30.0668 19.668 30.4671C19.668 30.8674 19.9925 31.192 20.3929 31.192H24.3075C24.7078 31.192 25.0324 30.8674 25.0324 30.4671C25.0324 30.0668 24.7078 29.7422 24.3075 29.7422Z" fill="white"/>
<path d="M23.7929 32.6302L21.0249 35.3982C20.7418 35.6813 20.7417 36.1403 21.0248 36.4234C21.308 36.7065 21.7669 36.7064 22.05 36.4234L24.818 33.6554C25.1011 33.3723 25.1012 32.9133 24.8181 32.6302C24.535 32.3472 24.076 32.3472 23.7929 32.6302Z" fill="white"/>
<path d="M39.6043 29.7422H35.6898C35.2894 29.7422 34.9648 30.0668 34.9648 30.4671C34.9648 30.8674 35.2894 31.192 35.6898 31.192H39.6043C40.0047 31.192 40.3293 30.8674 40.3293 30.4671C40.3293 30.0668 40.0047 29.7422 39.6043 29.7422Z" fill="white"/>
<path d="M36.2024 32.6302C35.9193 32.3472 35.4603 32.3472 35.1772 32.6302C34.8941 32.9133 34.8941 33.3724 35.1772 33.6555L37.9451 36.4235C38.2283 36.7066 38.6873 36.7065 38.9704 36.4235C39.2535 36.1404 39.2535 35.6813 38.9704 35.3982L36.2024 32.6302Z" fill="white"/>
</g>
<defs>
<clipPath id="clip0_1702_100893">
<rect width="32.093" height="32.093" fill="white" transform="translate(13.9531 13.9531)"/>
</clipPath>
</defs>
</svg>
