<svg width="60" height="60" viewBox="0 0 60 60" fill="none" xmlns="http://www.w3.org/2000/svg">
<circle cx="30" cy="30" r="30" fill="#FF9A6B"/>
<path d="M33.1661 22.3453C33.1442 22.3548 33.1253 22.3704 33.1118 22.3902C33.0983 22.41 33.0907 22.4333 33.0898 22.4572V29.3573H38.8551V19.8672H38.448L33.1661 22.3453Z" fill="white"/>
<path d="M26.8335 22.3453L21.5516 19.8672H21.1445V29.3573H26.9098V22.4572C26.909 22.4333 26.9014 22.41 26.8879 22.3902C26.8744 22.3704 26.8555 22.3548 26.8335 22.3453Z" fill="white"/>
<path d="M21.1445 39.8041V39.8651H21.7246L26.8233 38.0383C26.8481 38.0302 26.8698 38.0146 26.8853 37.9936C26.9008 37.9727 26.9094 37.9474 26.9098 37.9213V30.375H21.1445V39.8041Z" fill="white"/>
<path d="M33.0898 37.9213C33.0903 37.9474 33.0989 37.9727 33.1144 37.9936C33.1299 38.0146 33.1515 38.0302 33.1763 38.0383L38.275 39.8651H38.8551V30.375H33.0898V37.9213Z" fill="white"/>
<path d="M44.03 42.4047C44.03 42.3024 44.0099 42.2012 43.9708 42.1068C43.9317 42.0124 43.8743 41.9265 43.8021 41.8543C43.7298 41.782 43.644 41.7246 43.5496 41.6855C43.4551 41.6464 43.3539 41.6263 43.2517 41.6263C43.2514 41.6164 42.2016 41.6454 42.2215 41.6161V18.0104C42.2297 17.6374 42.0897 17.2763 41.8321 17.0064C41.5746 16.7365 41.2205 16.5796 40.8476 16.5703H19.15C18.7771 16.5796 18.423 16.7365 18.1655 17.0064C17.9079 17.2763 17.7679 17.6374 17.7761 18.0104C17.7729 18.0158 17.7785 41.6203 17.7761 41.6262L16.7459 41.6263C16.6231 41.631 16.5029 41.6628 16.3938 41.7195C16.2848 41.7762 16.1897 41.8563 16.1153 41.9541C16.0409 42.0519 15.9891 42.1649 15.9635 42.2851C15.938 42.4053 15.9393 42.5296 15.9675 42.6492C15.9675 42.7515 15.9877 42.8527 16.0268 42.9471C16.0659 43.0415 16.1232 43.1274 16.1955 43.1996C16.2678 43.2719 16.3536 43.3292 16.448 43.3684C16.5424 43.4075 16.6437 43.4276 16.7459 43.4276H43.2517C43.3745 43.4229 43.4947 43.391 43.6037 43.3343C43.7127 43.2776 43.8078 43.1975 43.8822 43.0997C43.9566 43.002 44.0084 42.8889 44.034 42.7688C44.0595 42.6486 44.0582 42.5242 44.03 42.4047ZM39.8705 40.3745C39.8702 40.5093 39.8164 40.6385 39.7211 40.7339C39.6257 40.8292 39.4965 40.883 39.3617 40.8833H20.6359C20.501 40.883 20.3718 40.8292 20.2765 40.7339C20.1811 40.6385 20.1274 40.5093 20.127 40.3745V19.3589C20.1274 19.224 20.1811 19.0948 20.2765 18.9995C20.3718 18.9041 20.501 18.8504 20.6359 18.85H39.3617C39.4965 18.8504 39.6257 18.9041 39.7211 18.9995C39.8164 19.0948 39.8702 19.224 39.8705 19.3589V40.3745Z" fill="white"/>
</svg>
