<svg width="60" height="60" viewBox="0 0 60 60" fill="none" xmlns="http://www.w3.org/2000/svg">
<circle cx="30" cy="30" r="30" fill="#7480EC"/>
<g clip-path="url(#clip0_1752_100414)">
<path d="M29.9995 23.3555C26.3705 23.3555 23.418 26.308 23.418 29.937C23.418 33.5661 26.3705 36.5186 29.9995 36.5186C33.6286 36.5186 36.5811 33.5661 36.5811 29.937C36.5811 26.308 33.6287 23.3555 29.9995 23.3555ZM34.4253 28.7215L29.4108 33.736C29.2272 33.9195 28.9865 34.0114 28.7459 34.0114C28.5053 34.0114 28.2646 33.9195 28.0811 33.7359L25.5738 31.2287C25.2067 30.8615 25.2067 30.2662 25.5738 29.899C25.941 29.5319 26.5363 29.5319 26.9035 29.899L28.7459 31.7415L33.0956 27.3917C33.4628 27.0246 34.0581 27.0246 34.4253 27.3917C34.7925 27.7589 34.7925 28.3543 34.4253 28.7215Z" fill="white"/>
<path d="M41.283 18.9676C37.4921 18.9676 33.928 17.4913 31.2474 14.8108L30.6651 14.2285C30.2981 13.8613 29.7027 13.8614 29.3355 14.2285L28.7532 14.8108C26.0726 17.4913 22.5086 18.9676 18.7176 18.9676C18.1983 18.9676 17.7773 19.3886 17.7773 19.9079V29.2864C17.7773 36.8252 22.5663 43.5398 29.6941 45.9949C29.7933 46.0291 29.8967 46.0461 30.0003 46.0461C30.1038 46.0461 30.2073 46.0291 30.3065 45.9949C37.4343 43.5398 42.2232 36.8251 42.2232 29.2864V19.9079C42.2232 19.3886 41.8022 18.9676 41.283 18.9676ZM30.0003 38.399C25.3343 38.399 21.5382 34.6029 21.5382 29.9369C21.5382 25.271 25.3343 21.4749 30.0003 21.4749C34.6662 21.4749 38.4623 25.271 38.4623 29.9369C38.4623 34.6029 34.6663 38.399 30.0003 38.399Z" fill="white"/>
</g>
<defs>
<clipPath id="clip0_1752_100414">
<rect width="32.093" height="32.093" fill="white" transform="translate(13.9531 13.9531)"/>
</clipPath>
</defs>
</svg>
