<svg width="60" height="60" viewBox="0 0 60 60" fill="none" xmlns="http://www.w3.org/2000/svg">
<circle cx="30" cy="30" r="30" fill="#29C189"/>
<path d="M40.0288 30.499C40.3057 30.499 40.5303 30.2745 40.5303 29.9975C40.5303 29.7206 40.3057 29.4961 40.0288 29.4961C39.7519 29.4961 39.5273 29.7206 39.5273 29.9975C39.5273 30.2745 39.7519 30.499 40.0288 30.499Z" fill="white"/>
<path d="M34.9138 33.0078H34.0117V35.0142C34.4579 34.4208 34.7661 33.7354 34.9138 33.0078Z" fill="white"/>
<path d="M29.9997 37.8583C29.3232 37.8584 28.6493 37.7735 27.9939 37.6055V39.0245C27.9936 39.3282 27.9015 39.6248 27.7297 39.8752C27.5579 40.1257 27.3145 40.3184 27.0312 40.4281C27.1242 40.8809 27.3705 41.2879 27.7285 41.5803C28.0866 41.8727 28.5345 42.0326 28.9968 42.0332H31.0026C31.4649 42.0326 31.9129 41.8727 32.2709 41.5803C32.629 41.2879 32.8752 40.8809 32.9682 40.4281C32.685 40.3184 32.4415 40.1257 32.2698 39.8752C32.098 39.6248 32.0059 39.3282 32.0055 39.0245V37.6055C31.3502 37.7735 30.6763 37.8584 29.9997 37.8583Z" fill="white"/>
<path d="M35.0134 27.9932V26.4888H33.5447C31.3603 26.4951 29.2482 25.7063 27.6028 24.2695L27.1913 24.9555C26.9534 25.3492 26.6329 25.6866 26.2518 25.9443C25.8708 26.2021 25.4384 26.374 24.9844 26.4482V32.0048H26.4184L27.7947 31.6116C29.2353 31.1996 30.7625 31.1996 32.2031 31.6116L33.5794 32.0048H35.0134V27.9932ZM28.8491 27.8463L28.3477 28.3478C28.3305 28.3647 28.3121 28.3803 28.2927 28.3946C28.4018 28.5394 28.4696 28.7111 28.4888 28.8914C28.5081 29.0716 28.4781 29.2538 28.4021 29.4184C28.3261 29.583 28.2069 29.7239 28.0571 29.8262C27.9074 29.9284 27.7328 29.9881 27.5518 29.999C27.3708 30.0099 27.1902 29.9715 27.0293 29.8879C26.8684 29.8044 26.7332 29.6787 26.638 29.5244C26.5428 29.3701 26.4913 29.1929 26.4888 29.0116C26.4863 28.8303 26.5331 28.6517 26.624 28.4948H25.9873C25.8543 28.4948 25.7267 28.442 25.6327 28.348C25.5387 28.2539 25.4858 28.1264 25.4858 27.9934C25.4858 27.8604 25.5387 27.7328 25.6327 27.6388C25.7267 27.5448 25.8543 27.4919 25.9873 27.4919H27.7854L28.14 27.1373C28.234 27.0433 28.3616 26.9905 28.4945 26.9905C28.6275 26.9905 28.7551 27.0433 28.8491 27.1373C28.9432 27.2314 28.996 27.3589 28.996 27.4919C28.996 27.6249 28.9432 27.7525 28.8491 27.8465V27.8463ZM34.0105 28.4947H33.3738C33.4648 28.6515 33.5115 28.8301 33.509 29.0114C33.5066 29.1927 33.455 29.3699 33.3598 29.5242C33.2646 29.6785 33.1294 29.8042 32.9685 29.8877C32.8076 29.9713 32.627 30.0097 32.446 29.9988C32.2651 29.988 32.0904 29.9282 31.9407 29.826C31.7909 29.7237 31.6717 29.5828 31.5957 29.4182C31.5197 29.2536 31.4897 29.0715 31.509 28.8912C31.5282 28.7109 31.596 28.5392 31.7051 28.3944C31.6857 28.3801 31.6673 28.3645 31.6501 28.3476L31.1487 27.8461C31.1021 27.7996 31.0652 27.7443 31.04 27.6835C31.0148 27.6226 31.0018 27.5574 31.0018 27.4916C31.0018 27.4257 31.0148 27.3605 31.04 27.2997C31.0652 27.2388 31.1021 27.1835 31.1487 27.137C31.1952 27.0904 31.2505 27.0535 31.3114 27.0283C31.3722 27.0031 31.4374 26.9901 31.5033 26.9901C31.5691 26.9901 31.6343 27.0031 31.6952 27.0283C31.756 27.0535 31.8113 27.0904 31.8579 27.137L32.2124 27.4917H34.0105C34.1435 27.4917 34.2711 27.5446 34.3651 27.6386C34.4592 27.7327 34.512 27.8602 34.512 27.9932C34.512 28.1262 34.4592 28.2537 34.3651 28.3478C34.2711 28.4418 34.1435 28.4947 34.0105 28.4947Z" fill="white"/>
<path d="M23.9834 25.9876C23.9834 25.8547 24.0362 25.7271 24.1302 25.6331C24.2243 25.539 24.3518 25.4862 24.4848 25.4862C24.8568 25.4852 25.2223 25.3883 25.546 25.205C25.8698 25.0218 26.1408 24.7582 26.3331 24.4397L27.0636 23.2224C27.1028 23.157 27.1563 23.1015 27.2202 23.0599C27.2841 23.0184 27.3566 22.992 27.4323 22.9827C27.5079 22.9734 27.5847 22.9814 27.6567 23.0062C27.7288 23.031 27.7943 23.0719 27.8481 23.1258C28.5947 23.8765 29.4828 24.4716 30.4609 24.8768C31.4391 25.2819 32.4879 25.4891 33.5466 25.4862H35.5168C35.6498 25.4862 35.7773 25.539 35.8714 25.6331C35.9654 25.7271 36.0183 25.8547 36.0183 25.9876V27.5425C36.382 27.6168 36.7247 27.7714 37.0212 27.9948V26.4891C37.0212 24.6272 36.2815 22.8415 34.965 21.525C33.6484 20.2084 31.8627 19.4688 30.0008 19.4688C28.1389 19.4688 26.3533 20.2084 25.0367 21.525C23.7201 22.8415 22.9805 24.6272 22.9805 26.4891V27.9948C23.277 27.7714 23.6196 27.6168 23.9834 27.5425V25.9876Z" fill="white"/>
<path d="M36.0156 31.4189C36.309 31.3152 36.563 31.1231 36.7427 30.8691C36.9223 30.6151 37.0188 30.3116 37.0188 30.0005C37.0188 29.6893 36.9223 29.3858 36.7427 29.1318C36.563 28.8778 36.309 28.6857 36.0156 28.582V31.4189Z" fill="white"/>
<path d="M41.0013 44.0414C40.8778 43.0725 40.4057 42.1817 39.6731 41.5357C38.9406 40.8896 37.9977 40.5326 37.021 40.5312H33.9697C33.8504 41.2319 33.4873 41.8678 32.9445 42.3266C32.4017 42.7854 31.7142 43.0375 31.0035 43.0385H28.9977C28.287 43.0375 27.5995 42.7854 27.0568 42.3266C26.514 41.8678 26.1509 41.2319 26.0316 40.5312H22.9803C22.0035 40.5326 21.0607 40.8896 20.3281 41.5357C19.5956 42.1817 19.1234 43.0725 19 44.0414H21.4759V43.0385C21.4759 42.9055 21.5288 42.778 21.6228 42.6839C21.7168 42.5899 21.8444 42.5371 21.9774 42.5371C22.1104 42.5371 22.2379 42.5899 22.332 42.6839C22.426 42.778 22.4788 42.9055 22.4788 43.0385V44.0414H37.5224V43.0385C37.5224 42.9055 37.5753 42.778 37.6693 42.6839C37.7634 42.5899 37.8909 42.5371 38.0239 42.5371C38.1569 42.5371 38.2844 42.5899 38.3785 42.6839C38.4725 42.778 38.5253 42.9055 38.5253 43.0385V44.0414H41.0013Z" fill="white"/>
<path d="M33.0096 32.8837L31.9296 32.5751C30.6691 32.2146 29.3327 32.2146 28.0723 32.5751L26.9922 32.8837V36.1739C26.993 36.1783 26.9934 36.1828 26.9941 36.1873L27.2355 36.2907C28.1098 36.6634 29.0504 36.8556 30.0009 36.8556C30.9514 36.8556 31.892 36.6634 32.7664 36.2907L33.0096 36.1864V32.8837ZM31.5053 36.0156H28.4965C28.3636 36.0156 28.236 35.9628 28.142 35.8688C28.0479 35.7747 27.9951 35.6472 27.9951 35.5142C27.9951 35.3812 28.0479 35.2536 28.142 35.1596C28.236 35.0656 28.3636 35.0127 28.4965 35.0127H31.5053C31.6383 35.0127 31.7658 35.0656 31.8599 35.1596C31.9539 35.2536 32.0067 35.3812 32.0067 35.5142C32.0067 35.6472 31.9539 35.7747 31.8599 35.8688C31.7658 35.9628 31.6383 36.0156 31.5053 36.0156ZM31.5053 34.0098H28.4965C28.3636 34.0098 28.236 33.957 28.142 33.8629C28.0479 33.7689 27.9951 33.6414 27.9951 33.5084C27.9951 33.3754 28.0479 33.2478 28.142 33.1538C28.236 33.0597 28.3636 33.0069 28.4965 33.0069H31.5053C31.6383 33.0069 31.7658 33.0597 31.8599 33.1538C31.9539 33.2478 32.0067 33.3754 32.0067 33.5084C32.0067 33.6414 31.9539 33.7689 31.8599 33.8629C31.7658 33.957 31.6383 34.0098 31.5053 34.0098Z" fill="white"/>
<path d="M25.9881 33.0078H25.0859C25.2336 33.7355 25.5418 34.421 25.9881 35.0143V33.0078Z" fill="white"/>
<path d="M23.9837 31.4189V28.582C23.6903 28.6857 23.4363 28.8778 23.2566 29.1318C23.0769 29.3858 22.9805 29.6893 22.9805 30.0005C22.9805 30.3116 23.0769 30.6151 23.2566 30.8691C23.4363 31.1231 23.6903 31.3152 23.9837 31.4189Z" fill="white"/>
<path d="M23.4819 37.5224C23.7589 37.5224 23.9834 37.2979 23.9834 37.021C23.9834 36.744 23.7589 36.5195 23.4819 36.5195C23.205 36.5195 22.9805 36.744 22.9805 37.021C22.9805 37.2979 23.205 37.5224 23.4819 37.5224Z" fill="white"/>
<path d="M36.5171 36.5185C36.794 36.5185 37.0185 36.294 37.0185 36.0171C37.0185 35.7401 36.794 35.5156 36.5171 35.5156C36.2401 35.5156 36.0156 35.7401 36.0156 36.0171C36.0156 36.294 36.2401 36.5185 36.5171 36.5185Z" fill="white"/>
<path d="M39.5288 23.4795C39.8057 23.4795 40.0303 23.255 40.0303 22.978C40.0303 22.7011 39.8057 22.4766 39.5288 22.4766C39.2519 22.4766 39.0273 22.7011 39.0273 22.978C39.0273 23.255 39.2519 23.4795 39.5288 23.4795Z" fill="white"/>
<path d="M42.5366 27.4912C42.8136 27.4912 43.0381 27.2667 43.0381 26.9897C43.0381 26.7128 42.8136 26.4883 42.5366 26.4883C42.2597 26.4883 42.0352 26.7128 42.0352 26.9897C42.0352 27.2667 42.2597 27.4912 42.5366 27.4912Z" fill="white"/>
<path d="M17.9663 27.9951C18.2432 27.9951 18.4678 27.7706 18.4678 27.4936C18.4678 27.2167 18.2432 26.9922 17.9663 26.9922C17.6894 26.9922 17.4648 27.2167 17.4648 27.4936C17.4648 27.7706 17.6894 27.9951 17.9663 27.9951Z" fill="white"/>
<path d="M20.4741 32.0068C20.7511 32.0068 20.9756 31.7823 20.9756 31.5054C20.9756 31.2284 20.7511 31.0039 20.4741 31.0039C20.1972 31.0039 19.9727 31.2284 19.9727 31.5054C19.9727 31.7823 20.1972 32.0068 20.4741 32.0068Z" fill="white"/>
<path d="M15.9585 32.0068C16.2354 32.0068 16.4599 31.7823 16.4599 31.5054C16.4599 31.2284 16.2354 31.0039 15.9585 31.0039C15.6815 31.0039 15.457 31.2284 15.457 31.5054C15.457 31.7823 15.6815 32.0068 15.9585 32.0068Z" fill="white"/>
<path d="M20.4741 24.9834C20.7511 24.9834 20.9756 24.7589 20.9756 24.4819C20.9756 24.205 20.7511 23.9805 20.4741 23.9805C20.1972 23.9805 19.9727 24.205 19.9727 24.4819C19.9727 24.7589 20.1972 24.9834 20.4741 24.9834Z" fill="white"/>
<path d="M43.5405 31.5029C43.8175 31.5029 44.042 31.2784 44.042 31.0015C44.042 30.7245 43.8175 30.5 43.5405 30.5C43.2636 30.5 43.0391 30.7245 43.0391 31.0015C43.0391 31.2784 43.2636 31.5029 43.5405 31.5029Z" fill="white"/>
<path d="M30.5015 17.4638C30.7784 17.4638 31.0029 17.2393 31.0029 16.9624C31.0029 16.6854 30.7784 16.4609 30.5015 16.4609C30.2245 16.4609 30 16.6854 30 16.9624C30 17.2393 30.2245 17.4638 30.5015 17.4638Z" fill="white"/>
<path d="M19.4694 34.0093C19.2758 34.0091 19.0841 34.0465 18.9047 34.1193C18.627 33.832 18.2697 33.6343 17.8789 33.5514C17.488 33.4686 17.0812 33.5043 16.7108 33.6541C16.3404 33.8039 16.0231 34.061 15.7998 34.3923C15.5764 34.7236 15.457 35.1141 15.457 35.5136C15.457 35.9132 15.5764 36.3037 15.7998 36.635C16.0231 36.9663 16.3404 37.2233 16.7108 37.3731C17.0812 37.5229 17.488 37.5587 17.8789 37.4758C18.2697 37.393 18.627 37.1952 18.9047 36.908C19.1105 36.9913 19.3321 37.0281 19.5536 37.0156C19.7752 37.0032 19.9913 36.9419 20.1864 36.8361C20.3816 36.7303 20.5508 36.5827 20.6822 36.4038C20.8135 36.2249 20.9036 36.0191 20.946 35.8013C20.9885 35.5834 20.9822 35.3589 20.9276 35.1437C20.873 34.9286 20.7715 34.7282 20.6304 34.5569C20.4893 34.3857 20.312 34.2477 20.1112 34.153C19.9105 34.0584 19.6913 34.0093 19.4694 34.0093Z" fill="white"/>
<path d="M44.0348 35.8948C44.0156 35.6596 43.9413 35.4322 43.818 35.2311C43.6946 35.0299 43.5257 34.8606 43.3248 34.7368C43.1239 34.613 42.8967 34.5382 42.6615 34.5185C42.4264 34.4988 42.1899 34.5346 41.9712 34.6232C41.7049 34.3478 41.3653 34.1545 40.9926 34.066C40.6199 33.9775 40.2296 33.9976 39.8679 34.1239C39.5063 34.2502 39.1883 34.4774 38.9517 34.7787C38.7151 35.08 38.5698 35.4427 38.5328 35.824C38.4958 36.2053 38.5688 36.5892 38.7432 36.9304C38.9175 37.2715 39.1859 37.5555 39.5166 37.7489C39.8473 37.9424 40.2264 38.037 40.6092 38.0218C40.992 38.0065 41.3624 37.8819 41.6766 37.6628C41.7718 37.8647 41.9108 38.0428 42.0835 38.1844C42.2561 38.3259 42.4581 38.4272 42.6747 38.481C42.8914 38.5347 43.1173 38.5396 43.3361 38.4953C43.5548 38.4509 43.761 38.3584 43.9396 38.2245C44.1182 38.0906 44.2648 37.9186 44.3686 37.7211C44.4725 37.5235 44.5312 37.3053 44.5403 37.0822C44.5494 36.8592 44.5087 36.6369 44.4212 36.4315C44.3338 36.2262 44.2017 36.0428 44.0346 35.8948H44.0348Z" fill="white"/>
<path d="M43.4902 18.5367C43.4227 18.2316 43.285 17.9465 43.0881 17.7039C42.8911 17.4613 42.6403 17.268 42.3556 17.1393C42.3175 16.7413 42.1377 16.3701 41.8491 16.0933C41.5604 15.8166 41.182 15.6526 40.7826 15.6313C40.3833 15.61 39.9895 15.7327 39.673 15.9771C39.3565 16.2216 39.1383 16.5715 39.0579 16.9633C39.0467 16.9633 39.0356 16.9623 39.0242 16.9623C38.7967 16.9623 38.5721 17.0138 38.3674 17.1132C38.1626 17.2125 37.9831 17.3569 37.8423 17.5356C37.7014 17.7144 37.603 17.9227 37.5543 18.145C37.5057 18.3673 37.5081 18.5977 37.5614 18.8189C37.6146 19.0402 37.7174 19.2464 37.8619 19.4222C38.0064 19.5979 38.1889 19.7386 38.3957 19.8336C38.6025 19.9286 38.8281 19.9755 39.0556 19.9707C39.2831 19.9659 39.5065 19.9096 39.7091 19.8059C39.8945 20.2102 40.2092 20.5412 40.6036 20.7469C40.9979 20.9526 41.4495 21.0212 41.8871 20.9419C42.0376 21.12 42.2275 21.2607 42.4418 21.3529C42.656 21.445 42.8888 21.4861 43.1216 21.4729C43.3545 21.4596 43.5811 21.3924 43.7835 21.2765C43.9859 21.1607 44.1586 20.9993 44.2879 20.8053C44.4173 20.6112 44.4998 20.3897 44.5288 20.1583C44.5579 19.9269 44.5327 19.6919 44.4553 19.4718C44.3779 19.2518 44.2505 19.0528 44.083 18.8905C43.9155 18.7282 43.7125 18.6071 43.4902 18.5367Z" fill="white"/>
<path d="M21.4739 16.4598C21.2838 16.4598 21.0947 16.4869 20.9123 16.5401C20.8326 16.2668 20.6769 16.0217 20.4634 15.8333C20.2499 15.6449 19.9873 15.521 19.7061 15.476C19.425 15.4309 19.1368 15.4666 18.8752 15.5788C18.6135 15.6911 18.389 15.8752 18.2279 16.11C17.9538 15.9969 17.6582 15.946 17.3621 15.9609C17.066 15.9758 16.7769 16.0561 16.5156 16.1961C16.2543 16.3361 16.0273 16.5323 15.8509 16.7705C15.6744 17.0088 15.553 17.2832 15.4954 17.5739C15.4377 17.8647 15.4452 18.1647 15.5173 18.4522C15.5894 18.7397 15.7244 19.0077 15.9125 19.2369C16.1006 19.466 16.3371 19.6506 16.6051 19.7773C16.8731 19.9041 17.1658 19.9699 17.4623 19.97C17.4862 19.97 17.5099 19.969 17.5336 19.9682C17.9468 20.2771 18.5479 20.4714 19.2174 20.4714C19.654 20.4753 20.0864 20.3866 20.4862 20.2111C20.7533 20.3624 21.0516 20.4503 21.358 20.4681C21.6645 20.4859 21.9709 20.4331 22.2538 20.3138C22.5366 20.1945 22.7883 20.0119 22.9895 19.78C23.1907 19.5482 23.3359 19.2732 23.4141 18.9764C23.4922 18.6795 23.5012 18.3687 23.4403 18.0678C23.3795 17.7669 23.2503 17.484 23.0629 17.2409C22.8755 16.9978 22.6347 16.801 22.3593 16.6655C22.0838 16.5301 21.7809 16.4597 21.4739 16.4598Z" fill="white"/>
</svg>
