<svg width="61" height="60" viewBox="0 0 61 60" fill="none" xmlns="http://www.w3.org/2000/svg">
<circle cx="30.5" cy="30" r="30" fill="#FF9A6B"/>
<path d="M43.3119 35.0641C39.898 30.5008 32.4886 32.9613 32.5039 38.6906C32.5039 42.0089 35.2038 44.708 38.5214 44.708C43.4182 44.7709 46.328 38.9179 43.3119 35.0641ZM40.4122 39.636C41.0273 40.2558 40.0879 41.1979 39.4668 40.5814L38.5214 39.636L37.576 40.5814C37.3145 40.8428 36.892 40.8428 36.6306 40.5814C36.3691 40.32 36.3691 39.8974 36.6306 39.636L37.576 38.6906L36.6306 37.7452C36.0154 37.1254 36.9548 36.1833 37.576 36.7998L38.5214 37.7452L39.4668 36.7998C39.7282 36.5383 40.1508 36.5383 40.4122 36.7998C40.6736 37.0612 40.6736 37.4838 40.4122 37.7452L39.4668 38.6906L40.4122 39.636Z" fill="white"/>
<path d="M31.1663 38.6908C31.0647 33.2671 37.1998 29.5758 41.9255 32.178C42.2485 30.348 43.1705 26.7736 43.6492 24.9356C44.1934 22.6303 40.7882 21.7283 40.1303 24.009L38.65 29.2963L39.7024 20.5877C39.9658 18.9015 37.9065 17.6479 36.5299 18.6548C36.0492 18.9837 35.7322 19.5039 35.66 20.0822L34.5923 28.625C34.3703 28.7774 34.5782 17.2995 34.5094 17.2955C34.4425 14.6572 30.5679 14.6458 30.4977 17.2955L30.4576 28.6491L28.6664 18.287C28.1777 15.7163 24.3773 16.3421 24.7451 18.9409C25.4518 23.3049 26.8191 28.8817 25.4926 33.2197C25.4137 33.4263 25.2666 33.4784 25.0753 33.3808C23.355 32.1205 16.6396 29.5336 16.457 33.2009C16.457 33.9672 16.917 34.6465 17.6291 34.9326C19.2097 35.5645 20.5857 36.6188 21.608 37.9815C21.971 38.4201 23.8585 41.1165 24.2917 41.4107L28.0633 44.5538C28.1844 44.6535 28.3355 44.7083 28.4919 44.7083H34.3054C32.4106 43.3764 31.1663 41.1781 31.1663 38.6908Z" fill="white"/>
</svg>
