<svg width="61" height="60" viewBox="0 0 61 60" fill="none" xmlns="http://www.w3.org/2000/svg">
<circle cx="30.5" cy="30" r="30" fill="#FF9A6B"/>
<path d="M41.8299 30.0079C41.8252 29.9999 41.8203 29.9919 41.8152 29.9841L40.3695 27.7601L40.3684 27.7585L39.6933 26.7198C39.7136 25.2961 39.5211 23.8774 39.1222 22.5107C38.1945 19.3987 36.2378 17.3241 33.4637 16.511C30.4354 15.6234 27.4741 15.7543 24.9001 16.8896C22.7904 17.8201 20.9667 19.4426 19.8967 21.341C19.0048 22.9234 18.7408 24.7638 19.1122 26.8109C19.455 28.7003 20.276 30.3766 20.9043 31.45C21.2274 32.002 21.5498 32.4833 21.8617 32.9487C22.8862 34.4781 23.6268 35.5833 23.2164 37.5714C22.7227 39.9627 21.7317 43.2435 21.7218 43.2763C21.6938 43.3685 21.6879 43.466 21.7044 43.561C21.7209 43.6559 21.7594 43.7457 21.8168 43.8231C21.8742 43.9004 21.949 43.9633 22.035 44.0066C22.1211 44.0499 22.2161 44.0725 22.3125 44.0725H33.2905C33.3772 44.0725 33.463 44.0542 33.5421 44.0189C33.6213 43.9836 33.6922 43.9319 33.75 43.8674C33.8079 43.8028 33.8516 43.7268 33.8781 43.6443C33.9047 43.5617 33.9135 43.4745 33.9041 43.3883C33.6621 41.1679 33.9568 40.3285 34.2468 40.0152C34.5459 39.6922 35.0689 39.6845 35.8946 39.7105C36.3481 39.7247 36.8503 39.7404 37.3454 39.6558C37.3494 39.6551 37.3534 39.6546 37.3573 39.6539C37.4747 39.6337 37.591 39.6073 37.7057 39.5748C39.4603 39.0734 40.6249 35.6619 41.5332 32.3909C41.5964 32.163 41.6614 31.929 41.6991 31.8081C42.2574 31.1675 42.0372 30.3609 41.8299 30.0079ZM37.9294 22.8302C38.3134 24.1358 38.4902 25.4937 38.4533 26.8541C38.4452 26.9863 38.4798 27.1176 38.5521 27.2285L39.0266 27.9586C36.2046 30.0475 33.1198 30.4154 32.4214 30.4733L29.648 29.1126C30.3846 28.3307 31.4378 26.6942 31.7889 23.1643C31.9247 21.7989 32.6751 20.723 34.0199 19.9662C34.5977 19.647 35.2165 19.4085 35.8591 19.2573C36.7868 20.1457 37.4769 21.3366 37.9294 22.8301V22.8302ZM31.5682 31.43L30.3022 36.0864L28.7362 33.0653H28.7359C28.6839 32.9649 28.6054 32.8807 28.5088 32.8219C28.4122 32.7631 28.3013 32.7321 28.1882 32.732H27.2973C27.0755 32.732 26.8606 32.6543 26.69 32.5124C26.5194 32.3706 26.4038 32.1735 26.3632 31.9554L25.9702 29.8385C25.9242 29.5908 25.9785 29.3349 26.1211 29.1272C26.2638 28.9195 26.483 28.7769 26.7307 28.7308C26.7307 28.7308 28.2586 29.8047 28.2685 29.8097C28.2721 29.812 30.5676 30.9388 31.5682 31.43ZM32.614 42.8383H23.138C23.4678 41.701 24.0658 39.5625 24.4251 37.821C24.7159 36.4118 24.5388 35.3455 24.1311 34.3879L25.5497 33.0928C25.7531 33.3642 26.0169 33.5844 26.3202 33.7362C26.6235 33.8879 26.958 33.9669 27.2971 33.9669H27.8126L30.0339 38.2522L30.0448 38.2466C30.1075 38.3452 30.1832 38.4349 30.27 38.5133C30.7804 38.9807 31.8926 39.2861 33.1128 39.4699C32.6572 40.1694 32.4984 41.2414 32.614 42.8383Z" fill="white"/>
</svg>
