<svg width="60" height="60" viewBox="0 0 60 60" fill="none" xmlns="http://www.w3.org/2000/svg">
<circle cx="30" cy="30" r="30" fill="#29C189"/>
<path d="M30.7774 26.476C29.3147 26.6828 28.0371 28.056 28.0248 28.0683C28.0064 28.0874 27.9857 28.104 27.9631 28.1177C25.9758 29.4076 24.8556 28.4263 24.8093 28.3676C23.5379 27.2228 24.7044 25.3034 24.7538 25.2232C25.2746 24.3576 25.9052 23.563 26.63 22.8594H21.2328L18.8906 30.5864C18.9158 30.6003 18.9387 30.618 18.9585 30.6388C22.5937 34.7492 27.42 38.3967 29.3239 39.773C29.5221 39.9195 29.7685 39.9853 30.0133 39.9571C30.2581 39.9288 30.4831 39.8087 30.6427 39.6209C30.8022 39.4331 30.8845 39.1917 30.8729 38.9455C30.8612 38.6993 30.7565 38.4668 30.5799 38.2949L27.96 35.675C27.9025 35.6172 27.8703 35.539 27.8703 35.4574C27.8703 35.3759 27.9025 35.2977 27.96 35.2399C27.9887 35.211 28.0228 35.188 28.0604 35.1723C28.098 35.1567 28.1384 35.1486 28.1791 35.1486C28.2198 35.1486 28.2602 35.1567 28.2978 35.1723C28.3354 35.188 28.3695 35.211 28.3982 35.2399L29.793 36.6347L31.0273 37.869L31.6445 38.5016C31.8659 38.7173 32.163 38.8376 32.472 38.8369C32.7811 38.8361 33.0776 38.7143 33.2979 38.4976C33.5182 38.2809 33.6449 37.9865 33.6508 37.6775C33.6567 37.3685 33.5413 37.0695 33.3294 36.8445L30.9255 34.3357L30.4688 33.8636C30.4399 33.8349 30.4169 33.8008 30.4013 33.7632C30.3856 33.7256 30.3775 33.6852 30.3775 33.6445C30.3775 33.6037 30.3856 33.5634 30.4013 33.5258C30.4169 33.4882 30.4399 33.4541 30.4688 33.4254C30.4975 33.3965 30.5316 33.3735 30.5692 33.3578C30.6068 33.3422 30.6472 33.3341 30.6879 33.3341C30.7286 33.3341 30.769 33.3422 30.8066 33.3578C30.8442 33.3735 30.8783 33.3965 30.907 33.4254L34.4156 37.0667C34.5855 37.2349 34.8006 37.3501 35.0347 37.3983C35.2688 37.4466 35.5119 37.4258 35.7345 37.3386C35.957 37.2513 36.1494 37.1013 36.2884 36.9068C36.4273 36.7123 36.5068 36.4816 36.5171 36.2428C36.5222 36.0745 36.4919 35.9071 36.4281 35.7513C36.3643 35.5956 36.2685 35.4549 36.1468 35.3386L34.0422 33.302L32.5764 31.8794C32.5438 31.8521 32.5172 31.8185 32.4982 31.7805C32.4791 31.7425 32.4682 31.7009 32.466 31.6585C32.4638 31.6161 32.4703 31.5736 32.4853 31.5338C32.5002 31.4941 32.5232 31.4578 32.5529 31.4273C32.5825 31.3969 32.6181 31.3728 32.6574 31.3568C32.6968 31.3407 32.739 31.3329 32.7815 31.3339C32.824 31.3349 32.8658 31.3447 32.9043 31.3626C32.9428 31.3806 32.9772 31.4062 33.0054 31.4381L37.1713 35.4713C37.2806 35.5835 37.4114 35.6725 37.556 35.7328C37.7005 35.7931 37.8558 35.8235 38.0124 35.8222C38.169 35.8209 38.3237 35.7879 38.4672 35.7252C38.6108 35.6624 38.7401 35.5713 38.8474 35.4573C38.9548 35.3433 39.038 35.2087 39.0919 35.0616C39.1459 34.9146 39.1695 34.7582 39.1614 34.6018C39.1533 34.4454 39.1136 34.2922 39.0447 34.1516C38.9758 34.0109 38.8791 33.8856 38.7605 33.7833L30.7774 26.476Z" fill="white"/>
<path d="M20.2915 21.0487C18.6895 20.3285 16.9427 19.9884 15.1875 20.0551V32.1579H17.073C17.2742 32.1583 17.4701 32.0932 17.631 31.9724C17.7919 31.8516 17.9091 31.6816 17.9648 31.4882L20.7976 22.1596C20.8624 21.9446 20.8467 21.7133 20.7536 21.509C20.6605 21.3046 20.4963 21.141 20.2915 21.0487Z" fill="white"/>
<path d="M31.7781 21.6478C31.1127 21.3739 30.3691 21.3574 29.6921 21.6015C28.5102 22.0336 26.7852 23.0704 25.27 25.5453C25.27 25.5638 24.3227 27.0882 25.2145 27.9091C25.2453 27.9368 26.0415 28.6034 27.5844 27.619C27.8066 27.3875 29.1983 25.9927 30.8431 25.8415C30.8856 25.838 30.9284 25.8432 30.9688 25.8571C31.0092 25.8709 31.0462 25.8929 31.0776 25.9218L39.1657 33.3278C39.2027 33.3618 39.2367 33.3988 39.2706 33.4358C40.1964 33.2939 40.8136 32.4484 40.9925 32.1398L38.061 24.1505L31.7781 21.6478Z" fill="white"/>
<path d="M44.1943 21.5276C42.4342 21.516 40.6884 21.845 39.0533 22.4966C38.8334 22.5908 38.6585 22.7665 38.5653 22.9869C38.4721 23.2072 38.4678 23.4551 38.5534 23.6785L41.9879 33.0256C42.055 33.2059 42.1753 33.3615 42.333 33.4718C42.4906 33.582 42.6781 33.6417 42.8705 33.6428H44.8115V21.5431C44.6572 21.5338 44.4443 21.5276 44.1943 21.5276Z" fill="white"/>
</svg>
