<svg width="60" height="60" viewBox="0 0 60 60" fill="none" xmlns="http://www.w3.org/2000/svg">
<circle cx="30" cy="30" r="30" fill="#7480EC"/>
<path fill-rule="evenodd" clip-rule="evenodd" d="M17.9635 19.3007C17.9635 17.0851 19.7596 15.2891 21.9751 15.2891C24.1907 15.2891 25.9867 17.0851 25.9867 19.3007C25.9867 21.5162 24.1907 23.3123 21.9751 23.3123C19.7596 23.3123 17.9635 21.5162 17.9635 19.3007ZM18.8082 25.1907C18.2843 24.9084 17.6249 24.8865 17.2076 25.3108C16.0211 26.5174 15.2891 28.1724 15.2891 29.9985V35.7144C15.2891 35.9527 15.5771 36.072 15.7456 35.9035L16.464 35.185C18.0307 33.6185 20.5707 33.6185 22.1373 35.185C22.4569 35.5046 22.7112 35.8647 22.9004 36.2486C23.0257 36.503 23.2735 36.6845 23.557 36.6845H27.3239C28.0625 36.6845 28.6612 36.0859 28.6612 35.3473V29.9985C28.6612 28.1724 27.9292 26.5174 26.7426 25.3108C26.3253 24.8865 25.6659 24.9084 25.142 25.1907C24.1994 25.6986 23.1209 25.9868 21.9751 25.9868C20.8293 25.9868 19.7508 25.6986 18.8082 25.1907ZM20.2462 37.0761C19.724 36.5539 18.8774 36.5539 18.3551 37.0761L15.6807 39.7505C15.1585 40.2727 15.1585 41.1194 15.6807 41.6416L18.3551 44.316C18.8774 44.8382 19.724 44.8382 20.2462 44.316C20.7685 43.7938 20.7685 42.9471 20.2462 42.4249L19.8546 42.0332H40.1422L39.7505 42.4249C39.2283 42.9471 39.2283 43.7938 39.7505 44.316C40.2727 44.8382 41.1194 44.8382 41.6416 44.316L44.316 41.6416C44.8382 41.1194 44.8382 40.2727 44.316 39.7505L41.6416 37.0761C41.1194 36.5539 40.2727 36.5539 39.7505 37.0761C39.2283 37.5983 39.2283 38.445 39.7505 38.9672L40.1422 39.3588H19.8546L20.2462 38.9672C20.7685 38.445 20.7685 37.5983 20.2462 37.0761ZM33.2541 25.3108C33.6714 24.8865 34.3308 24.9084 34.8547 25.1907C35.7973 25.6986 36.8758 25.9868 38.0216 25.9868C39.1675 25.9868 40.2459 25.6986 41.1885 25.1907C41.7125 24.9084 42.3718 24.8865 42.7892 25.3108C43.9757 26.5174 44.7077 28.1724 44.7077 29.9985V35.7144C44.7077 35.9527 44.4196 36.072 44.2511 35.9035L43.5327 35.185C41.966 33.6185 39.4261 33.6185 37.8594 35.185C37.5398 35.5046 37.2855 35.8647 37.0963 36.2486C36.971 36.503 36.7232 36.6845 36.4397 36.6845H32.6728C31.9342 36.6845 31.3356 36.0859 31.3356 35.3473V29.9985C31.3356 28.1724 32.0676 26.5174 33.2541 25.3108ZM38.0216 15.2891C35.806 15.2891 34.01 17.0851 34.01 19.3007C34.01 21.5162 35.806 23.3123 38.0216 23.3123C40.2372 23.3123 42.0333 21.5162 42.0333 19.3007C42.0333 17.0851 40.2372 15.2891 38.0216 15.2891Z" fill="white"/>
</svg>
