<svg width="61" height="60" viewBox="0 0 61 60" fill="none" xmlns="http://www.w3.org/2000/svg">
<circle cx="30.5" cy="30" r="30" fill="#FF9A6B"/>
<path d="M39.7403 28.74C39.6424 28.4451 40.0058 28.1861 40.2503 28.3655L42.9717 30.1707C43.0164 30.2009 43.0532 30.2412 43.0792 30.2885C43.1051 30.3358 43.1193 30.3886 43.1206 30.4425C43.1219 30.4964 43.1103 30.5498 43.0868 30.5983C43.0632 30.6468 43.0284 30.689 42.9852 30.7213L41.1757 32.0752C41.1318 32.1075 41.0807 32.1289 41.0268 32.1374C40.973 32.1459 40.9178 32.1413 40.8661 32.1241C40.8143 32.1068 40.7675 32.0774 40.7295 32.0382C40.6915 31.9991 40.6634 31.9514 40.6477 31.8992L39.7403 28.74ZM43.0213 27.5531C43.0603 27.5856 43.1062 27.6086 43.1555 27.6203C43.2048 27.6321 43.2562 27.6323 43.3056 27.6209C43.3553 27.6106 43.4021 27.5895 43.4427 27.5591C43.4833 27.5287 43.5166 27.4896 43.5403 27.4448L44.4474 25.6395C44.471 25.591 44.4827 25.5375 44.4816 25.4835C44.4805 25.4295 44.4666 25.3766 44.4411 25.329C44.4155 25.2814 44.3791 25.2406 44.3347 25.2099C44.2903 25.1791 44.2392 25.1594 44.1857 25.1522L40.5617 24.7009C40.4888 24.6908 40.4145 24.7047 40.3502 24.7405C40.2859 24.7764 40.235 24.8321 40.2051 24.8995C40.1771 24.9672 40.1712 25.0421 40.1882 25.1134C40.2053 25.1846 40.2443 25.2488 40.2999 25.2966L43.0213 27.5531ZM43.9916 19.4657C43.969 19.42 43.936 19.3803 43.8952 19.3498C43.8544 19.3192 43.8071 19.2986 43.7569 19.2896C43.7075 19.2792 43.6563 19.2798 43.6072 19.2915C43.558 19.3033 43.512 19.3258 43.4726 19.3574L40.7557 21.6139C40.6993 21.6611 40.6595 21.7252 40.6425 21.7968C40.6254 21.8684 40.6319 21.9435 40.661 22.0111C40.6902 22.0779 40.7403 22.1334 40.8038 22.1692C40.8673 22.2051 40.9407 22.2192 41.013 22.2097L44.637 21.7584C44.6908 21.7518 44.7423 21.7324 44.7871 21.7018C44.8318 21.6712 44.8686 21.6303 44.8943 21.5825C44.9199 21.5347 44.9337 21.4815 44.9345 21.4272C44.9353 21.373 44.923 21.3194 44.8988 21.2709L43.9916 19.4657ZM44.0772 24.0128C44.5066 24.1012 44.6451 23.435 44.2094 23.349L41.9432 22.8977C41.5098 22.8122 41.3766 23.4736 41.811 23.5615L44.0772 24.0128ZM44.77 29.4829L42.5042 28.129C42.1248 27.904 41.7771 28.4811 42.1569 28.7103L44.4227 30.0642C44.8012 30.2891 45.1505 29.7127 44.7702 29.4829H44.77ZM24.6473 27.3941C25.301 26.9616 25.9142 26.3623 26.183 25.6018C26.3563 25.3021 26.2774 24.6062 26.7921 24.7085C26.8081 24.7129 28.411 25.1477 30.155 25.1477C31.9082 25.1477 33.8606 24.7089 33.88 24.7047C33.9495 24.6884 34.0223 24.6947 34.088 24.7227C34.1536 24.7507 34.2086 24.7989 34.2449 24.8603C34.4409 25.1945 34.6721 25.5068 34.9344 25.7919C35.6794 26.5623 36.3037 26.5996 37.0714 27.4042H37.126C38.7562 21.8791 36.5033 18.3144 31.9151 18.1523C27.8752 18.1523 25.4935 19.6155 25.0277 22.3834C25.0164 22.4511 24.9847 22.5137 24.9369 22.563C24.8891 22.6123 24.8275 22.6458 24.7601 22.6592C22.6101 23.2233 22.9162 25.5044 24.0254 27.4045L24.6473 27.3941ZM37.3756 28.0811H37.3028C37.3602 28.7587 37.3341 29.4408 37.2251 30.112C37.5877 30.1474 37.9718 30.0493 38.0433 29.641L38.1971 28.7376C38.2096 28.6567 38.2045 28.574 38.1821 28.4953C38.1597 28.4165 38.1207 28.3435 38.0675 28.2812C38.0144 28.2189 37.9485 28.1688 37.8743 28.1343C37.8001 28.0998 37.7193 28.0816 37.6374 28.0811H37.3756ZM34.7424 26.5463C35.3898 27.1325 35.9878 27.3247 36.6052 27.9037C36.7476 28.993 36.6097 30.2332 36.2139 31.439C34.3759 30.9219 32.5364 31.0909 31.0411 31.5514C29.8936 31.8728 28.7928 32.3425 27.7668 32.9487C27.2838 33.1967 26.8558 33.416 26.5874 33.4956C25.0305 31.7405 25.0744 29.8173 25.0768 27.927C25.9781 27.3273 26.6623 26.4968 26.9521 25.4452C28.0029 25.6861 29.0765 25.8133 30.1545 25.8245C31.3712 25.8433 33.2576 25.5378 33.7927 25.4153C34.0521 25.8368 34.3721 26.2179 34.7424 26.5463ZM29.4033 28.7938L27.598 27.8912C27.201 27.6951 26.9006 28.2978 27.2957 28.4968L28.4952 29.0966L27.2952 29.6966C26.9767 29.8429 27.1042 30.3506 27.4472 30.3379C27.4416 30.4193 29.362 29.406 29.4036 29.3993C29.6494 29.2864 29.649 28.9065 29.4033 28.7938ZM34.328 29.6983L33.1539 29.0966L34.3275 28.4954C34.7208 28.2917 34.4144 27.6937 34.019 27.8929L32.257 28.7955C32.2022 28.8245 32.1563 28.8678 32.1244 28.9209C32.0924 28.974 32.0755 29.0348 32.0755 29.0968C32.0755 29.1587 32.0924 29.2195 32.1244 29.2726C32.1563 29.3257 32.2022 29.369 32.257 29.398L34.0195 30.3006C34.0591 30.3216 34.1025 30.3345 34.1472 30.3386C34.1918 30.3427 34.2369 30.3379 34.2797 30.3244C34.3224 30.3109 34.3621 30.2891 34.3964 30.2602C34.4307 30.2312 34.4588 30.1958 34.4793 30.1558C34.4997 30.1159 34.512 30.0723 34.5155 30.0276C34.5189 29.9829 34.5134 29.9379 34.4994 29.8953C34.4853 29.8527 34.4629 29.8134 34.4335 29.7795C34.4041 29.7457 34.3682 29.718 34.328 29.6981V29.6983ZM31.6215 39.6728C28.8367 39.9438 26.1176 39.4641 23.5383 37.9347C22.7798 39.2026 22.3473 40.5417 22.2841 41.846H24.3372C24.3739 41.4537 24.6235 39.3249 25.2983 39.6185C25.3803 39.6549 25.4446 39.7223 25.4769 39.8061C25.5092 39.8898 25.507 39.9829 25.4706 40.065C25.217 40.6279 25.0627 41.2305 25.0144 41.846H31.6215V39.6728ZM20.2391 29.1517C19.8819 29.431 18.0994 30.8261 17.7054 31.1345L18.1258 31.6678L20.7647 29.6028L20.3443 29.0695L20.2396 29.1514L20.2391 29.1517ZM33.5395 40.9434C33.5096 40.9434 33.4809 40.9553 33.4597 40.9765C33.4386 40.9976 33.4267 41.0263 33.4267 41.0562C33.4267 41.1805 33.6523 41.1805 33.6523 41.0562C33.6523 41.0263 33.6405 40.9976 33.6193 40.9765C33.5981 40.9553 33.5694 40.9434 33.5395 40.9434ZM18.819 31.9849L20.9126 30.3464C22.091 31.552 23.3569 32.6688 24.7 33.6877C25.1877 34.0518 25.7881 34.2324 26.3958 34.1977C26.4647 34.2191 26.539 34.2151 26.6052 34.1864C26.6213 34.1834 26.6411 34.1755 26.6577 34.1718C27.1801 34.1137 27.6425 33.8173 28.0863 33.5459C28.985 33.0847 30.1848 32.4703 31.5815 32.105C37.7854 30.6462 41.544 34.7864 41.5361 41.846H32.2984V39.5969C34.1068 39.3382 35.8618 38.7904 37.4963 37.9745C37.5749 37.9335 37.6343 37.8633 37.6617 37.779C37.689 37.6947 37.6823 37.603 37.6428 37.5236C37.6033 37.4443 37.5343 37.3836 37.4505 37.3546C37.3668 37.3255 37.275 37.3305 37.1949 37.3685C31.7045 40.1022 23.6374 40.3009 18.819 31.9849ZM33.5395 40.4921C32.7982 40.5051 32.7981 41.6072 33.5395 41.6204C34.2807 41.6074 34.2807 40.5053 33.5395 40.4921ZM23.4807 28.2808C23.2007 28.5583 23.4704 29.2288 23.5066 29.6403C23.5287 29.7726 23.5971 29.8927 23.6997 29.9792C23.8022 30.0656 23.9322 30.1127 24.0664 30.1121H24.471C24.4112 29.4369 24.3875 28.7589 24.4001 28.0812C24.1207 28.0906 23.6706 28.0134 23.4807 28.2808ZM17.5608 30.1049C17.6401 30.1235 17.7117 30.1664 17.7657 30.2274C18.1985 29.8889 19.1074 29.1776 19.5343 28.8435L19.2585 28.542C19.2273 28.5074 19.2035 28.4668 19.1886 28.4227C19.1737 28.3786 19.1681 28.3319 19.1719 28.2855C19.1758 28.239 19.1892 28.1939 19.2112 28.1529C19.2332 28.1118 19.2634 28.0757 19.2999 28.0468L20.047 27.4625C20.1856 27.3532 20.2753 27.1935 20.2964 27.0182C20.3176 26.843 20.2684 26.6665 20.1598 26.5274C20.0492 26.3882 19.8881 26.2983 19.7115 26.2773C19.5349 26.2563 19.3572 26.3059 19.2171 26.4153C19.1661 26.4548 19.1049 26.479 19.0407 26.4851C18.9765 26.4913 18.9119 26.479 18.8544 26.4499C18.5842 26.3077 18.2839 26.2323 17.9787 26.2299C15.6336 26.2726 15.388 29.5792 17.5608 30.105L17.5608 30.1049Z" fill="white"/>
</svg>
