<svg width="60" height="60" viewBox="0 0 60 60" fill="none" xmlns="http://www.w3.org/2000/svg">
<circle cx="30" cy="30" r="30" fill="#29C189"/>
<g clip-path="url(#clip0_1733_99496)">
<path d="M29.9982 13.9531C21.5731 13.9531 14.7188 20.8075 14.7188 29.2326C14.7188 30.6803 14.9211 32.0816 15.2991 33.4097C16.1952 32.3734 17.4789 31.7762 18.88 31.7762C19.3158 31.7762 19.7527 31.8358 20.1785 31.9534C20.682 32.0924 21.2086 32.1629 21.7433 32.1629C23.4551 32.1628 24.9911 31.4647 26.1127 30.9548C26.9248 30.5857 27.5663 30.294 28.3044 30.294C28.8534 30.294 29.3756 30.4641 29.8148 30.7857C30.7615 31.4793 31.352 32.665 31.5796 34.3206C33.5911 34.7593 35.3767 36.0161 36.4494 37.8165C36.7149 38.2622 36.569 38.8386 36.1233 39.1041C35.9726 39.1939 35.8069 39.2367 35.6434 39.2367C35.3233 39.2367 35.0114 39.073 34.8356 38.778C34.1213 37.579 32.9852 36.7016 31.6834 36.2895C31.6527 38.0499 31.3397 40.0698 30.814 41.8754C30.5107 42.9173 30.1713 43.7862 29.8096 44.5096C29.8724 44.5104 29.9351 44.512 29.9981 44.512C38.4232 44.512 45.2775 37.6577 45.2775 29.2326C45.2775 20.8075 38.4233 13.9531 29.9982 13.9531ZM27.8683 27.2523C27.5721 27.8799 26.9487 28.2606 26.2441 28.2606C26.1749 28.2606 26.1049 28.2569 26.0343 28.2494L21.775 27.7984C21.2591 27.7438 20.8851 27.2813 20.9397 26.7654C20.9944 26.2496 21.4573 25.8758 21.9727 25.9303L25.9624 26.3527L23.1084 23.5463C22.7385 23.1826 22.7335 22.5878 23.0972 22.218C23.4608 21.848 24.0556 21.8431 24.4255 22.2068L27.4724 25.203C28.0379 25.7589 28.1932 26.5633 27.8683 27.2523ZM38.2214 27.7984L33.962 28.2494C33.8915 28.2569 33.8215 28.2606 33.7523 28.2606C33.0477 28.2606 32.4244 27.88 32.1282 27.2524C31.8032 26.5633 31.9585 25.7589 32.5237 25.2029L35.5707 22.2068C35.9406 21.843 36.5354 21.8481 36.8991 22.2179C37.2628 22.5878 37.2578 23.1825 36.8878 23.5462L34.0339 26.3526L38.0235 25.9302C38.5388 25.8759 39.0019 26.2494 39.0565 26.7654C39.1113 27.2813 38.7373 27.7438 38.2214 27.7984Z" fill="white"/>
<path d="M28.7066 32.3005C28.3181 32.016 27.8414 32.2326 26.8918 32.6642C25.3101 33.3832 22.6628 34.5866 19.6802 33.7635C18.3769 33.4036 17.0499 33.9504 16.3783 35.1238C15.7067 36.297 15.9074 37.718 16.8774 38.6596C17.0456 38.8228 17.0576 39.09 16.9046 39.2678C16.2314 40.0507 15.8979 41.0494 15.9657 42.0799C16.1018 44.1492 17.8287 45.742 19.8736 45.7419C19.9595 45.7419 20.0464 45.739 20.1334 45.7333C20.9625 45.6787 21.738 45.3703 22.3759 44.8411C22.4754 44.7586 22.5771 44.7277 22.7055 44.7412C22.8341 44.7546 22.9272 44.8058 23.0075 44.9071C23.5794 45.6286 24.4473 46.0453 25.3598 46.0453C25.4253 46.0453 25.491 46.0431 25.5568 46.0387C27.4108 45.9168 28.5175 43.0484 29.0121 41.3493C29.5153 39.6209 29.8061 37.6846 29.8097 36.037C29.8126 34.7033 29.6237 32.9725 28.7066 32.3005Z" fill="white"/>
</g>
<defs>
<clipPath id="clip0_1733_99496">
<rect width="32.093" height="32.093" fill="white" transform="translate(13.9531 13.9531)"/>
</clipPath>
</defs>
</svg>
