<svg width="60" height="60" viewBox="0 0 60 60" fill="none" xmlns="http://www.w3.org/2000/svg">
<circle cx="30" cy="30" r="30" fill="#FF9A6B"/>
<g clip-path="url(#clip0_1733_101047)">
<path d="M36.5811 22.4761C36.5811 18.8474 33.6283 15.8945 29.9995 15.8945C26.3708 15.8945 23.418 18.8474 23.418 22.4761C23.418 26.1048 26.3708 29.0577 29.9995 29.0577C33.6283 29.0577 36.5811 26.1048 36.5811 22.4761ZM29.9995 27.1772C29.043 27.1772 28.1544 26.8868 27.4112 26.394L33.9175 19.8877C34.4102 20.631 34.7007 21.5196 34.7007 22.4761C34.7007 25.0682 32.5916 27.1772 29.9995 27.1772ZM29.9995 17.775C30.9561 17.775 31.8446 18.0654 32.5879 18.5582L26.0816 25.0645C25.5889 24.3212 25.2984 23.4326 25.2984 22.4761C25.2984 19.884 27.4075 17.775 29.9995 17.775Z" fill="white"/>
<path d="M20.1259 33.7582C20.1259 32.2028 18.8606 30.9375 17.3052 30.9375C15.7498 30.9375 14.4219 32.2028 14.4219 33.7582C14.4219 35.3136 15.7498 36.5789 17.3052 36.5789C18.8606 36.5789 20.1259 35.3136 20.1259 33.7582Z" fill="white"/>
<path d="M20.5974 39.8689C20.5974 38.0515 19.1241 36.5781 17.3066 36.5781C15.4891 36.5781 13.9531 38.0515 13.9531 39.8689V44.0999H20.5974V39.8689Z" fill="white"/>
<path d="M25.7699 36.5789C27.3277 36.5789 28.5906 35.316 28.5906 33.7582C28.5906 32.2004 27.3277 30.9375 25.7699 30.9375C24.2121 30.9375 22.9492 32.2004 22.9492 33.7582C22.9492 35.316 24.2121 36.5789 25.7699 36.5789Z" fill="white"/>
<path d="M22.4766 39.8689V44.0999H29.0581V39.8689C29.0581 38.0515 27.5848 36.5781 25.7674 36.5781C23.9499 36.5781 22.4766 38.0515 22.4766 39.8689Z" fill="white"/>
<path d="M34.2308 36.5789C35.7886 36.5789 37.0515 35.316 37.0515 33.7582C37.0515 32.2004 35.7886 30.9375 34.2308 30.9375C32.673 30.9375 31.4102 32.2004 31.4102 33.7582C31.4102 35.316 32.673 36.5789 34.2308 36.5789Z" fill="white"/>
<path d="M37.523 39.8689C37.523 38.0515 36.0497 36.5781 34.2322 36.5781C32.4147 36.5781 30.9414 38.0515 30.9414 39.8689V44.0999H37.523V39.8689Z" fill="white"/>
<path d="M45.5751 33.7582C45.5751 32.2028 44.2472 30.9375 42.6918 30.9375C41.1364 30.9375 39.8711 32.2028 39.8711 33.7582C39.8711 35.3136 41.1364 36.5789 42.6918 36.5789C44.2472 36.5789 45.5751 35.3136 45.5751 33.7582Z" fill="white"/>
<path d="M42.6931 36.5781C40.8757 36.5781 39.4023 38.0515 39.4023 39.8689V44.0999H46.0466V39.8689C46.0466 38.0515 44.5106 36.5781 42.6931 36.5781Z" fill="white"/>
</g>
<defs>
<clipPath id="clip0_1733_101047">
<rect width="32.093" height="32.093" fill="white" transform="translate(13.9531 13.9531)"/>
</clipPath>
</defs>
</svg>
