<svg width="60" height="60" viewBox="0 0 60 60" fill="none" xmlns="http://www.w3.org/2000/svg">
<circle cx="30" cy="30" r="30" fill="#7480EC"/>
<path d="M29.0467 24.173V26.0985H30.9588V24.1765C30.9588 24.0431 31.0119 23.9152 31.1062 23.8214C31.2005 23.7277 31.3369 23.6645 31.4617 23.675L33.3828 23.681L33.3848 21.769L31.4587 21.763C31.1824 21.7625 30.9588 21.5378 30.9588 21.2615V19.3359H29.0467V21.258C29.0467 21.3914 28.9936 21.5193 28.8993 21.613C28.805 21.7068 28.6782 21.7595 28.5453 21.7595C28.5448 21.7595 28.5443 21.7595 28.5438 21.7595L26.6222 21.7534L26.6172 23.6655L28.5468 23.6715C28.8231 23.6725 29.0467 23.8967 29.0467 24.173Z" fill="white"/>
<path d="M35.9863 20.5955L38.9338 20.7831L36.8809 17.9574L36.2365 17.0703L35.4146 19.7711C35.3575 19.9592 35.3891 20.1598 35.5009 20.3217C35.6132 20.4832 35.7897 20.583 35.9863 20.5955Z" fill="white"/>
<path d="M39.4515 21.82L35.9228 21.5958C35.4188 21.5637 34.9645 21.307 34.6771 20.8923C34.3893 20.4771 34.3086 19.9621 34.456 19.4787L35.3737 16.4609H21.9793C21.183 16.4609 20.5352 17.1088 20.5352 17.9051V42.0952C20.5352 42.8915 21.183 43.5394 21.9793 43.5394H38.0208C38.8171 43.5394 39.465 42.8915 39.465 42.0952V21.996C39.465 21.9368 39.458 21.8781 39.4515 21.82ZM25.6199 21.2503C25.6199 21.1169 25.6736 20.9896 25.7678 20.8958C25.8621 20.802 25.989 20.7499 26.1213 20.7499H26.1229L28.0434 20.7559V18.8353C28.0434 18.5585 28.2681 18.3339 28.5449 18.3339H31.4598C31.7366 18.3339 31.9613 18.5585 31.9613 18.8353V20.7624L33.8884 20.7684C34.1652 20.7689 34.3888 20.9941 34.3883 21.2704L34.3848 24.1853C34.3848 24.3182 34.3316 24.4461 34.2374 24.5399C34.1431 24.6336 34.0162 24.6863 33.8833 24.6863C33.8828 24.6863 33.8823 24.6863 33.8818 24.6863L31.9613 24.6803V26.6008C31.9613 26.8776 31.7366 27.1023 31.4598 27.1023H28.5449C28.2681 27.1023 28.0434 26.8776 28.0434 26.6008V24.6737L26.1128 24.6677C25.836 24.6672 25.6119 24.4421 25.6129 24.1653L25.6199 21.2503ZM36.2472 40.6124H23.9616C23.6848 40.6124 23.4601 40.3878 23.4601 40.111C23.4601 39.8342 23.6848 39.6095 23.9616 39.6095H36.2472C36.524 39.6095 36.7487 39.8342 36.7487 40.111C36.7487 40.3878 36.5245 40.6124 36.2472 40.6124ZM36.2472 36.9328H23.9616C23.6848 36.9328 23.4601 36.7081 23.4601 36.4313C23.4601 36.1545 23.6848 35.9299 23.9616 35.9299H36.2472C36.524 35.9299 36.7487 36.1545 36.7487 36.4313C36.7487 36.7081 36.5245 36.9328 36.2472 36.9328ZM36.2472 33.2531H23.9616C23.6848 33.2531 23.4601 33.0285 23.4601 32.7517C23.4601 32.4749 23.6848 32.2502 23.9616 32.2502H36.2472C36.524 32.2502 36.7487 32.4749 36.7487 32.7517C36.7487 33.0285 36.5245 33.2531 36.2472 33.2531ZM36.2472 29.5734H23.9616C23.6848 29.5734 23.4601 29.3488 23.4601 29.072C23.4601 28.7952 23.6848 28.5705 23.9616 28.5705H36.2472C36.524 28.5705 36.7487 28.7952 36.7487 29.072C36.7487 29.3488 36.5245 29.5734 36.2472 29.5734Z" fill="white"/>
</svg>
