<svg width="61" height="60" viewBox="0 0 61 60" fill="none" xmlns="http://www.w3.org/2000/svg">
<circle cx="30.5" cy="30" r="30" fill="#FF9A6B"/>
<path fill-rule="evenodd" clip-rule="evenodd" d="M21.2558 26.3384C21.464 27.4344 21.8574 28.3815 22.2046 29.062C22.2385 27.963 22.4226 26.5589 22.6155 25.5484C22.6434 25.4005 22.7657 25.2899 22.9158 25.2771C28.0565 24.8453 31.2067 23.8919 32.9443 23.1685C34.8229 22.386 35.497 21.6974 35.5034 21.6904C35.5817 21.6097 35.6945 21.5712 35.806 21.5918C38.611 22.0676 39.0461 27.2272 39.0761 29.4516C40.9645 26.6555 39.0304 20.8355 38.8385 20.2785C36.9345 17.6313 34.6983 16.1481 32.192 15.8705C26.6662 15.2591 20.1149 20.3232 21.2558 26.3384Z" fill="white"/>
<path fill-rule="evenodd" clip-rule="evenodd" d="M35.8405 22.2891C35.1555 22.8832 32.0179 25.1431 23.2291 25.9198C23.0047 27.2398 22.7328 28.963 22.9155 30.2026C23.1291 31.3061 23.4315 32.3345 23.8157 33.267L25.3691 31.7137C25.7326 31.3508 26.3817 31.4094 26.817 31.8447C26.9277 31.9553 27.0164 32.0821 27.0793 32.2171L27.3509 31.9455C27.7137 31.5827 28.3634 31.6412 28.7981 32.0765C28.997 32.2753 29.1256 32.5263 29.1598 32.7831C29.1986 33.0694 29.1146 33.3395 28.9297 33.5244L28.7328 33.7213C28.8676 33.7842 28.9942 33.8729 29.1047 33.9835C29.54 34.4187 29.5985 35.068 29.2357 35.4308L28.9629 35.7037C29.0449 35.7509 29.1232 35.8104 29.1945 35.8817C29.568 36.2544 29.6148 36.8149 29.2989 37.1308L28.1757 38.254C29.7143 38.9596 31.3719 38.9939 32.9272 38.3516L31.7061 37.1308C31.3908 36.8149 31.4377 36.2544 31.811 35.8817C31.8822 35.8104 31.9603 35.751 32.0422 35.7038L31.7692 35.4307C31.4064 35.0679 31.4655 34.4188 31.9008 33.9835C32.0112 33.8728 32.1378 33.7841 32.2727 33.7211L32.076 33.5244C31.713 33.1615 31.7716 32.5118 32.2069 32.0765C32.6422 31.6412 33.2913 31.5827 33.6548 31.9455L33.9262 32.2172C33.9892 32.0822 34.0779 31.9554 34.1886 31.8447C34.6239 31.4093 35.2731 31.3509 35.6359 31.7137L37.4207 33.4985C37.8413 32.5321 38.1712 31.4591 38.4027 30.3013C38.4782 28.1245 38.1547 23.0097 35.8405 22.2891Z" fill="white"/>
<path fill-rule="evenodd" clip-rule="evenodd" d="M36.5611 37.0713C36.6915 37.2017 36.6915 37.4128 36.5611 37.5432C36.4963 37.6086 36.4104 37.6411 36.3252 37.6411C36.2401 37.6411 36.1542 37.6087 36.0893 37.5432L33.0156 34.4698L33.0086 34.4631L32.9596 34.4138L32.8673 34.3216C32.8165 34.2772 32.7368 34.2802 32.6927 34.2863C32.5815 34.3013 32.4638 34.364 32.3693 34.4579C32.1908 34.6369 32.1519 34.8752 32.2383 34.9616L33.041 35.7642L33.0567 35.7794L33.0671 35.7903L35.4547 38.1778C35.5851 38.3082 35.585 38.5198 35.4546 38.6503C35.3897 38.7151 35.3039 38.7476 35.2188 38.7476C35.133 38.7476 35.0477 38.7152 34.9822 38.6503L32.5828 36.2503C32.5489 36.2213 32.405 36.2312 32.2795 36.3561C32.1526 36.4836 32.1444 36.6303 32.1752 36.661L34.5731 39.0588C36.4563 40.942 37.321 41.2041 37.7151 41.0916C37.8318 41.0585 37.9569 41.0916 38.0426 41.1768L39.5352 42.6693L41.9029 40.3016L40.3953 38.794C40.3002 38.6989 40.2713 38.5558 40.3222 38.4312C40.7616 37.3606 40.2463 35.8304 39.8997 35.0131C39.5364 34.1558 39.5137 33.9918 39.3879 33.0801L39.3717 32.9636C39.3614 32.8876 39.3491 32.8025 39.1711 32.8262C38.9325 32.8587 38.6124 33.1021 38.653 33.4105L38.8692 35.0502C38.8884 35.1922 38.8141 35.3302 38.686 35.3934C38.5579 35.4565 38.4032 35.431 38.3023 35.3302L37.2949 34.3227C37.2879 34.3163 37.2812 34.3096 37.2749 34.3027L35.1609 32.1886C35.0744 32.1023 34.8362 32.1411 34.6571 32.3197C34.5632 32.4141 34.5 32.5318 34.4855 32.6431C34.4804 32.6795 34.4745 32.7712 34.5261 32.8228L37.6677 35.9649C37.7981 36.0953 37.798 36.3063 37.6676 36.4367C37.5373 36.5671 37.3262 36.5671 37.1958 36.4367L34.1521 33.3929L33.1791 32.4205C33.0933 32.3341 32.8545 32.373 32.6759 32.5515C32.4974 32.73 32.4586 32.9688 32.5449 33.0546L36.5611 37.0713Z" fill="white"/>
<path fill-rule="evenodd" clip-rule="evenodd" d="M21.1008 35.0131C20.7543 35.8303 20.2389 37.3606 20.6777 38.4311C20.7287 38.5557 20.7003 38.6989 20.6052 38.794L19.0977 40.3015L21.4655 42.6693L22.9579 41.1767C23.0437 41.0916 23.1689 41.0586 23.2854 41.0916C23.6796 41.2034 24.5443 40.942 26.4269 39.0589C27.2264 38.2595 28.0259 37.4602 28.8254 36.6609C28.8557 36.6302 28.848 36.4836 28.7205 36.3561C28.662 36.2975 28.4867 36.1841 28.4067 36.2609L26.0179 38.6502C25.8886 38.7793 25.6751 38.7795 25.5459 38.6502C25.4156 38.5198 25.4155 38.3083 25.5459 38.1778C26.618 37.1057 27.6902 36.0336 28.7623 34.9615C28.8481 34.8751 28.8097 34.6369 28.6306 34.4579C28.5324 34.3595 28.2684 34.2053 28.1342 34.3207C27.0599 35.3948 25.9856 36.469 24.9113 37.5431C24.7823 37.6731 24.5683 37.6732 24.4394 37.5432C24.309 37.4127 24.309 37.2018 24.4394 37.0714C25.7782 35.7324 27.1169 34.3935 28.4557 33.0545C28.5847 32.9256 28.4223 32.6492 28.3246 32.5515C28.1462 32.3729 27.9073 32.3341 27.8209 32.4205C26.4822 33.7592 25.1435 35.0979 23.8048 36.4366C23.6744 36.5671 23.4627 36.5671 23.3323 36.4367C23.2019 36.3062 23.2019 36.0953 23.3323 35.9649L26.4739 32.8227C26.6033 32.6948 26.4396 32.4164 26.3429 32.3196C26.1644 32.1411 25.9256 32.1023 25.8398 32.1886C24.7926 33.2358 23.7454 34.283 22.6983 35.3301C22.5969 35.4316 22.4426 35.4565 22.3145 35.3934C22.1859 35.3301 22.1122 35.1922 22.1308 35.0502L22.3476 33.4104C22.3881 33.1021 22.0676 32.8587 21.8294 32.8262C21.6159 32.7971 21.634 32.9266 21.6127 33.08C21.4868 33.9918 21.4636 34.1559 21.1008 35.0131Z" fill="white"/>
</svg>
