<svg width="60" height="60" viewBox="0 0 60 60" fill="none" xmlns="http://www.w3.org/2000/svg">
<circle cx="30" cy="30" r="30" fill="#FF9A6B"/>
<path d="M32.5216 20.992H32.5334V18.1769C32.5334 17.5549 32.0292 17.0508 31.4073 17.0508C30.7854 17.0508 30.2812 17.5549 30.2812 18.1769V19.866C31.1637 19.8676 31.9937 20.2849 32.5216 20.992Z" fill="white"/>
<path d="M29.1545 20.1029V15.3604C29.1545 14.7385 28.6503 14.2344 28.0284 14.2344C27.4065 14.2344 26.9023 14.7385 26.9023 15.3604V22.3139C27.1008 22.2417 27.3058 22.1885 27.5144 22.1552C27.687 21.2415 28.3014 20.4728 29.1545 20.1029Z" fill="white"/>
<path d="M35.9123 21.0383V20.9894C35.9123 20.3674 35.4081 19.8633 34.7862 19.8633C34.1643 19.8633 33.6602 20.3674 33.6602 20.9894V21.2303C33.9332 21.3488 34.1857 21.5098 34.4084 21.7072C34.8468 21.3636 35.3635 21.1338 35.9123 21.0383Z" fill="white"/>
<path d="M28.8733 41.4122C26.8836 40.5603 26.0379 39.2276 26.1595 37.1022L26.5277 31.9785L25.5514 30.0811C25.2765 29.5504 25.2256 28.9318 25.4101 28.3633C25.4659 28.1938 25.5415 28.0314 25.6353 27.8796C24.9793 27.2248 24.6225 26.3282 24.6493 25.4016C24.676 24.475 25.0839 23.6005 25.7766 22.9846V18.1769C25.7766 17.5549 25.2725 17.0508 24.6506 17.0508C24.0287 17.0508 23.5245 17.5549 23.5245 18.1769L23.5194 31.1267C23.5199 31.537 23.2965 31.9148 22.9368 32.1122C22.5772 32.3096 22.1384 32.295 21.7926 32.0743C19.9174 30.9632 17.7532 30.4373 15.5773 30.5636C14.9857 30.5872 14.5135 31.0649 14.4966 31.6566C14.4796 32.2484 14.9238 32.7522 15.5131 32.8096C16.5071 32.9279 17.4657 33.2513 18.3283 33.7594C19.2133 34.2298 19.9017 35.0004 20.2696 35.9327C20.6836 36.8482 21.2513 37.6861 21.948 38.4101C22.4344 38.9469 22.9796 39.4272 23.5735 39.8419C25.7519 41.5293 25.7766 45.0534 25.7766 45.2026V45.7656H33.6591V45.2026C33.6693 44.7493 33.7147 44.2975 33.7948 43.8513C33.7278 43.8169 33.6659 43.7747 33.5972 43.7449L28.8733 41.4122Z" fill="white"/>
<path d="M44.1392 40.3739C43.7374 39.5936 43.4799 38.747 43.3791 37.8751L43.1055 35.5307C43.0199 34.793 42.8019 34.0767 42.4619 33.4165L38.644 25.9895C38.3779 25.437 37.7374 25.175 37.1604 25.3825C36.8719 25.5045 36.6472 25.7411 36.5404 26.0356C36.4336 26.33 36.4542 26.6556 36.5973 26.9342L37.3693 28.4353C37.5114 28.7119 37.4023 29.0513 37.1257 29.1934C36.8491 29.3355 36.5097 29.2265 36.3676 28.9499L34.5659 25.445C34.389 25.0751 34.025 24.8305 33.6157 24.8066C33.2063 24.7827 32.8163 24.9832 32.5976 25.33C32.3788 25.6768 32.3659 26.1151 32.5637 26.4742L34.1093 29.4808C34.2012 29.6598 34.1907 29.8741 34.0817 30.0432C33.9727 30.2123 33.7818 30.3104 33.5809 30.3005C33.38 30.2907 33.1996 30.1744 33.1076 29.9955L30.7902 25.4912C30.6133 25.1212 30.2493 24.8767 29.84 24.8528C29.4306 24.8289 29.0406 25.0293 28.8219 25.3761C28.6031 25.723 28.5901 26.1613 28.788 26.5204L30.8471 30.527C30.9892 30.8036 30.8801 31.143 30.6035 31.2851C30.3269 31.4272 29.9875 31.3182 29.8454 31.0416L28.5577 28.5355C28.3797 28.1674 28.0161 27.9248 27.6079 27.9016C27.1996 27.8784 26.8109 28.0783 26.5924 28.4239C26.3738 28.7695 26.3597 29.2064 26.5556 29.5653L30.6748 37.5773C30.8169 37.8539 30.7078 38.1933 30.4312 38.3354C30.1547 38.4775 29.8152 38.3685 29.6731 38.0919L27.5218 33.904L27.2864 37.1736C27.1935 38.8092 27.7712 39.7129 29.3483 40.3885L34.0687 42.724C35.03 43.1439 35.8164 43.8836 36.2944 44.8174L36.764 45.6816L45.7782 43.5635L44.1392 40.3739Z" fill="white"/>
<path d="M26.4603 27.0911C26.4834 27.0787 26.5025 27.0607 26.5261 27.0489C26.8872 26.8645 27.2918 26.7823 27.6961 26.8113C27.2744 25.7406 27.7327 24.5245 28.7562 23.9984C29.7797 23.4723 31.0353 23.8075 31.6605 24.7737C32.0857 24.0832 32.8506 23.6761 33.6609 23.7092C34.4711 23.7422 35.2003 24.2102 35.5679 24.933L35.7104 25.2106C36.3449 24.1885 37.685 23.8695 38.7119 24.4961C38.7119 24.4533 38.7254 24.4133 38.7254 24.3705C38.7298 23.4342 38.1518 22.5938 37.276 22.2629C36.4001 21.9319 35.4108 22.1801 34.7949 22.8852C34.6841 23.0173 34.5164 23.0879 34.3445 23.075C34.1729 23.0658 34.0149 22.9787 33.9154 22.8385C33.6846 22.5111 33.3457 22.2756 32.9583 22.1736C32.7726 22.1231 32.5789 22.109 32.3879 22.1319L32.2995 22.1432C32.0744 22.168 31.8563 22.0555 31.7461 21.8577C31.4507 21.3245 30.8895 20.9932 30.2799 20.9923C30.1413 20.9905 30.0032 21.0081 29.8695 21.0447C29.1178 21.2317 28.5904 21.9069 28.5908 22.6814C28.5908 22.9924 28.3387 23.2445 28.0278 23.2445C27.54 23.2416 27.065 23.3999 26.6765 23.6949C26.1488 24.0853 25.8201 24.6884 25.778 25.3434C25.7359 25.9984 25.9847 26.6386 26.458 27.0934L26.4603 27.0911Z" fill="white"/>
<path d="M41.5401 20.9904C42.162 20.9904 42.6662 20.4863 42.6662 19.8644C42.6662 19.2424 42.162 18.7383 41.5401 18.7383C40.9182 18.7383 40.4141 19.2424 40.4141 19.8644C40.4141 20.4863 40.9182 20.9904 41.5401 20.9904Z" fill="white"/>
<path d="M43.794 27.7482C44.416 27.7482 44.9201 27.2441 44.9201 26.6222C44.9201 26.0003 44.416 25.4961 43.794 25.4961C43.1721 25.4961 42.668 26.0003 42.668 26.6222C42.668 27.2441 43.1721 27.7482 43.794 27.7482Z" fill="white"/>
</svg>
