<svg width="60" height="60" viewBox="0 0 60 60" fill="none" xmlns="http://www.w3.org/2000/svg">
<circle cx="30" cy="30" r="30" fill="#7480EC"/>
<path d="M25.2346 27.2735C25.0401 26.9817 24.6025 26.9817 24.408 27.2735C24.1648 27.6625 18.7188 36.2693 18.7188 39.4786C18.7188 42.8338 21.4418 45.5568 24.797 45.5568C28.1522 45.5568 30.8752 42.8338 30.8752 39.4786C30.8752 36.2693 25.4777 27.6625 25.2346 27.2735ZM26.8879 39.6245H25.3319V41.1805C25.3319 41.4722 25.1374 41.6667 24.8456 41.6667C24.5538 41.6667 24.3593 41.4722 24.3593 41.1805V39.6245H22.8033C22.5116 39.6245 22.3171 39.43 22.3171 39.1382C22.3171 38.8464 22.5116 38.6519 22.8033 38.6519H24.3593V37.0959C24.3593 36.8042 24.5538 36.6097 24.8456 36.6097C25.1374 36.6097 25.3319 36.8042 25.3319 37.0959V38.6519H26.8879C27.1796 38.6519 27.3741 38.8464 27.3741 39.1382C27.3741 39.43 27.131 39.6245 26.8879 39.6245Z" fill="white"/>
<path d="M40.1616 25.7679V39.7721C40.1616 42.641 37.4872 44.9751 34.2292 44.9751C32.8191 44.9751 31.5062 44.5374 30.4364 43.7594C31.3603 42.5924 31.8952 41.085 31.8952 39.4803C31.8952 37.3894 30.0474 33.6453 28.2969 30.5332V27.0321C28.5886 27.0808 28.8804 27.0808 29.1235 27.0808C31.0199 27.0808 32.4301 26.3514 33.743 25.6706C35.688 24.6009 37.2926 23.7742 40.1616 25.7679Z" fill="white"/>
<path d="M40.1616 19.543V24.6001C37.1468 22.7523 35.2017 23.7734 33.3053 24.7946C31.8952 25.5239 30.3878 26.302 28.2969 26.0588V19.543H40.1616Z" fill="white"/>
<path d="M41.2812 14.9238V18.0844C41.2812 18.3762 41.038 18.5707 40.7949 18.5707H27.6659C27.3742 18.5707 27.1797 18.3762 27.1797 18.0844V14.9238C27.1797 14.632 27.3742 14.4375 27.6659 14.4375H40.7949C41.038 14.4375 41.2812 14.632 41.2812 14.9238Z" fill="white"/>
</svg>
