<svg width="60" height="60" viewBox="0 0 60 60" fill="none" xmlns="http://www.w3.org/2000/svg">
<circle cx="30" cy="30" r="30" fill="#FF9A6B"/>
<path d="M21.2402 37.1281C22.5065 36.2865 22.8509 34.5778 22.0093 33.3115C21.1677 32.0452 19.459 31.7009 18.1927 32.5425C16.9264 33.3841 16.5821 35.0928 17.4237 36.3591C17.6602 36.7149 17.9762 37.0108 18.3469 37.2234C16.3355 37.8293 14.9584 39.681 14.957 41.7816V44.5396C14.957 44.8165 15.1816 45.041 15.4585 45.041H24.4846C24.7616 45.041 24.9861 44.8165 24.9861 44.5396V41.7816C24.9822 39.5443 23.425 37.6099 21.2402 37.1281Z" fill="white"/>
<path d="M41.2988 20.5812C42.5651 19.7397 42.9094 18.031 42.0679 16.7647C41.2263 15.4984 39.5176 15.1541 38.2513 15.9956C36.985 16.8372 36.6407 18.5459 37.4823 19.8122C37.7188 20.168 38.0348 20.4639 38.4054 20.6765C36.3941 21.2824 35.017 23.1341 35.0156 25.2347V27.9927C35.0156 28.2696 35.2402 28.4942 35.5171 28.4942H44.5432C44.8202 28.4942 45.0447 28.2696 45.0447 27.9927V25.2347C45.0408 22.9974 43.4836 21.063 41.2988 20.5812Z" fill="white"/>
<path d="M26.2555 35.6547L29.6955 35.1532C29.9697 35.1144 30.1605 34.8608 30.1217 34.5866C30.0829 34.3124 29.8293 34.1216 29.5551 34.1603L27.3186 34.5114L32.5086 28.0928V30.4826C32.5086 30.7496 32.7102 30.9828 32.9767 31.0001C33.2687 31.0191 33.5116 30.7878 33.5116 30.4997V26.8692C33.5128 26.7234 33.4506 26.5843 33.3411 26.4881C33.2304 26.3932 33.084 26.3511 32.9399 26.3728L32.6741 26.4029L29.3044 26.9043C29.0274 26.9431 28.8343 27.199 28.8731 27.476C28.9119 27.7529 29.1678 27.946 29.4448 27.9072L31.6411 27.5963L26.4912 33.9146V31.5198C26.4912 31.2527 26.2897 31.0196 26.0232 31.0023C25.7311 30.9834 25.4883 31.2147 25.4883 31.5026V35.1833C25.487 35.3291 25.5493 35.4682 25.6588 35.5644C25.7279 35.6235 25.8113 35.6623 25.8999 35.6776C25.9479 35.6858 25.997 35.6839 26.0454 35.6784L26.2555 35.6547Z" fill="white"/>
</svg>
