<svg width="34" height="34" viewBox="0 0 34 34" fill="none" xmlns="http://www.w3.org/2000/svg">
<g id="data-analytics" clip-path="url(#clip0_1530_101025)">
<path id="Vector" d="M1.84471 21.4844H5.41038C5.90269 21.4844 6.30196 21.8833 6.30196 22.3756V31.2905C6.30196 31.7828 5.90269 32.1821 5.41038 32.1821H1.84471C1.35239 32.1821 0.953125 31.7828 0.953125 31.2905V22.3756C0.953125 21.8833 1.35239 21.4844 1.84471 21.4844Z" fill="#FF9A6B"/>
<path id="Vector_2" d="M10.7594 14.3516H14.3254C14.8177 14.3516 15.217 14.7508 15.217 15.2431V31.2897C15.217 31.782 14.8177 32.1812 14.3254 32.1812H10.7594C10.2671 32.1812 9.86816 31.782 9.86816 31.2897V15.2431C9.86816 14.7508 10.2671 14.3516 10.7594 14.3516Z" fill="#FF9A6B"/>
<path id="Vector_3" d="M19.6738 17.918H23.2398C23.7321 17.918 24.1311 18.3172 24.1311 18.8096V31.2901C24.1311 31.7824 23.7321 32.1816 23.2398 32.1816H19.6738C19.1815 32.1816 18.7822 31.7824 18.7822 31.2901V18.8096C18.7822 18.3172 19.1815 17.918 19.6738 17.918Z" fill="#FF9A6B"/>
<path id="Vector_4" d="M28.5888 12.5703H32.1545C32.6468 12.5703 33.0461 12.9696 33.0461 13.4619V31.2912C33.0461 31.7836 32.6468 32.1828 32.1545 32.1828H28.5888C28.0965 32.1828 27.6973 31.7836 27.6973 31.2912V13.4619C27.6973 12.9696 28.0965 12.5703 28.5888 12.5703Z" fill="#FF9A6B"/>
<path id="Vector_5" d="M30.3717 1.87109C28.8954 1.87273 27.6989 3.06923 27.6973 4.54551C27.7009 4.83672 27.7525 5.12532 27.8501 5.39955L23.3873 8.05242C22.8016 7.43116 21.9525 7.13015 21.1063 7.24344C20.2597 7.35672 19.52 7.87058 19.1181 8.62407L15.1819 6.6744C15.2011 6.55981 15.2126 6.44425 15.2168 6.32835C15.2188 5.24578 14.5681 4.26899 13.5685 3.8534C12.5688 3.43814 11.4174 3.66634 10.6518 4.43158C9.88592 5.19681 9.65706 6.34794 10.072 7.34791L4.96606 11.1584C4.56124 10.9172 4.09896 10.7885 3.62754 10.7859C2.15061 10.7859 0.953125 11.9831 0.953125 13.4604C0.953125 14.9373 2.15061 16.1348 3.62754 16.1348C5.10448 16.1348 6.30196 14.9373 6.30196 13.4604C6.29968 13.1385 6.23895 12.8201 6.12273 12.5201L11.2796 8.6714C12.2884 9.23391 13.5466 9.06904 14.3761 8.26528L18.8523 10.4823C19.1507 11.8114 20.4014 12.7033 21.7553 12.5524C23.1091 12.4016 24.1329 11.2567 24.1313 9.89435C24.1313 9.82645 24.1163 9.76246 24.1114 9.69586L28.9653 6.81022C29.3861 7.07629 29.8735 7.2183 30.3717 7.21993C31.8487 7.21993 33.0461 6.02245 33.0461 4.54551C33.0461 3.06858 31.8487 1.87109 30.3717 1.87109Z" fill="#FF9A6B"/>
</g>
<defs>
<clipPath id="clip0_1530_101025">
<rect width="32.093" height="32.093" fill="white" transform="translate(0.953125 0.953125)"/>
</clipPath>
</defs>
</svg>
