<svg width="100" height="100" viewBox="0 0 100 100" fill="none" xmlns="http://www.w3.org/2000/svg">
<g opacity="0.1">
<path fill-rule="evenodd" clip-rule="evenodd" d="M71.2891 20.9015C79.9591 22.9134 83.2756 27.9831 87.4336 34.9609H71.2891V20.9015ZM20.6207 35.5469C22.3183 35.5469 23.5504 36.3663 23.5504 38.2812C23.5504 39.8964 22.2435 41.2064 20.6291 41.2109H2.92969C1.31149 41.2109 0 42.5232 0 44.1406C0 45.7588 1.31149 47.0703 2.92969 47.0703H29.2969C30.9303 47.0703 32.238 48.381 32.238 50C32.238 51.6182 30.9265 52.9297 29.3083 52.9297H2.92969C1.31149 52.9297 0 54.2412 0 55.8594C0 57.4776 1.31149 58.7891 2.92969 58.7891H9.375V67.5781C9.375 69.1963 10.6865 70.5078 12.3047 70.5078H18.1938C19.2436 75.679 23.8129 79.4922 29.1992 79.4922C34.5856 79.4922 39.1548 75.679 40.2046 70.5078H69.9516C71.0014 75.679 75.5707 79.4922 80.957 79.4922C86.3434 79.4922 90.9126 75.679 91.9624 70.5078H97.0703C98.6885 70.5078 100 69.1963 100 67.5781V50C100 41.404 90.9332 40.8333 90.9248 40.8203H68.3594C66.7412 40.8203 65.4297 39.5088 65.4297 37.8906V20.3125H12.3047C10.6865 20.3125 9.375 21.624 9.375 23.2422V29.6875H5.85938C4.24118 29.6875 2.92969 30.999 2.92969 32.6172C2.92969 34.2354 4.24118 35.5469 5.85938 35.5469H20.6207ZM84.7549 64.4638C86.8523 66.5611 86.8523 69.9631 84.7549 72.0604C81.3812 75.4341 75.5859 73.0339 75.5859 68.2617C75.5859 63.4903 81.3812 61.0901 84.7549 64.4638V64.4638ZM32.9971 64.4638C35.0945 66.5611 35.0945 69.9631 32.9971 72.0604C29.6234 75.4341 23.8281 73.0339 23.8281 68.2617C23.8281 63.4903 29.6234 61.0901 32.9971 64.4638V64.4638Z" fill="white"/>
</g>
</svg>
