<svg width="60" height="60" viewBox="0 0 60 60" fill="none" xmlns="http://www.w3.org/2000/svg">
<g opacity="0.2" clip-path="url(#clip0_1128_10006)">
<path d="M56.0104 30.7771C55.769 30.2832 55.769 29.7167 56.0104 29.2229L58.2482 24.6449C59.4942 22.096 58.507 19.058 56.0008 17.7282L51.4997 15.34C51.014 15.0824 50.6811 14.624 50.5861 14.0827L49.7058 9.06367C49.2156 6.26924 46.6307 4.39143 43.8221 4.78882L38.7768 5.50248C38.2322 5.57936 37.6938 5.40428 37.2987 5.02213L33.6365 1.47934C31.5974 -0.493381 28.4029 -0.493498 26.3638 1.47934L22.7015 5.02249C22.3063 5.40475 21.7679 5.57947 21.2234 5.50283L16.1782 4.78917C13.3686 4.39155 10.7846 6.26959 10.2944 9.06402L9.41414 14.0828C9.3191 14.6242 8.98617 15.0825 8.50067 15.3402L3.99952 17.7285C1.49336 19.0581 0.506182 22.0964 1.75211 24.6453L3.98979 29.2231C4.2312 29.717 4.2312 30.2835 3.98979 30.7773L1.75199 35.3551C0.506064 37.9041 1.49325 40.9421 3.9994 42.2718L8.50055 44.6601C8.98617 44.9177 9.3191 45.3761 9.41414 45.9174L10.2944 50.9364C10.7407 53.4803 12.922 55.2643 15.429 55.2641C15.6759 55.2641 15.9264 55.2468 16.1783 55.2111L21.2235 54.4975C21.7676 54.4202 22.3064 54.5957 22.7016 54.9778L26.3638 58.5206C27.3836 59.5071 28.6916 60.0002 30.0001 60.0001C31.3083 60 32.6171 59.5069 33.6364 58.5206L37.2987 54.9778C37.6939 54.5957 38.2325 54.4211 38.7768 54.4975L43.8221 55.2111C46.632 55.6086 49.2156 53.7307 49.7058 50.9363L50.5862 45.9175C50.6812 45.3761 51.0142 44.9178 51.4997 44.6601L56.0008 42.2718C58.507 40.9422 59.4942 37.9039 58.2482 35.355L56.0104 30.7771ZM23.0789 14.4275C26.5772 14.4275 29.4233 17.2737 29.4233 20.7719C29.4233 24.2702 26.5772 27.1163 23.0789 27.1163C19.5807 27.1163 16.7346 24.2702 16.7346 20.7719C16.7346 17.2737 19.5807 14.4275 23.0789 14.4275ZM19.8043 42.6426C19.4664 42.9805 19.0236 43.1495 18.5808 43.1495C18.1381 43.1495 17.6951 42.9806 17.3574 42.6426C16.6817 41.9669 16.6817 40.8713 17.3574 40.1956L40.1958 17.3572C40.8714 16.6815 41.9671 16.6815 42.6428 17.3572C43.3185 18.0329 43.3185 19.1285 42.6428 19.8042L19.8043 42.6426ZM36.921 45.5725C33.4228 45.5725 30.5767 42.7264 30.5767 39.2281C30.5767 35.7299 33.4228 32.8838 36.921 32.8838C40.4193 32.8838 43.2654 35.7299 43.2654 39.2281C43.2654 42.7264 40.4193 45.5725 36.921 45.5725Z" fill="white"/>
<path d="M36.921 36.3445C35.3309 36.3445 34.0371 37.6381 34.0371 39.2282C34.0371 40.8183 35.3307 42.1119 36.921 42.1119C38.5111 42.1119 39.8047 40.8183 39.8047 39.2282C39.8047 37.6381 38.5111 36.3445 36.921 36.3445Z" fill="white"/>
<path d="M23.0789 17.8882C21.4888 17.8882 20.1952 19.1818 20.1952 20.7719C20.1952 22.362 21.4888 23.6558 23.0789 23.6558C24.669 23.6558 25.9628 22.3621 25.9628 20.7719C25.9627 19.1819 24.669 17.8882 23.0789 17.8882Z" fill="white"/>
</g>
<defs>
<clipPath id="clip0_1128_10006">
<rect width="60" height="60" fill="white"/>
</clipPath>
</defs>
</svg>
