<svg width="33" height="34" viewBox="0 0 33 34" fill="none" xmlns="http://www.w3.org/2000/svg">
<g id="health-care" clip-path="url(#clip0_1530_99931)">
<g id="XMLID_481_">
<path id="XMLID_482_" d="M11.6983 28.0344C12.277 28.5426 12.8745 29.0669 13.489 29.6104C13.4932 29.6141 13.4975 29.6179 13.5018 29.6216L15.5463 31.3876C15.8202 31.6243 16.1602 31.7426 16.5001 31.7426C16.8401 31.7426 17.1802 31.6242 17.4541 31.3876L19.4982 29.6216C19.5024 29.6179 19.5066 29.6142 19.5108 29.6105C23.558 26.0313 26.5925 23.2911 28.7878 20.6186C31.3519 17.4973 32.5462 14.6752 32.5462 11.7371C32.5462 6.42158 28.3825 2.25781 23.0671 2.25781C20.6781 2.25781 18.3176 3.15739 16.5001 4.71677C14.6822 3.15729 12.3217 2.25781 9.93256 2.25781C4.61699 2.25772 0.453125 6.42158 0.453125 11.737C0.453125 18.1624 4.9267 22.0897 11.6983 28.0344ZM10.6633 14.0821H14.5541V10.1911H18.4451V14.0821H22.336V17.973H18.4451V21.8638H14.5541V17.973H10.6633V14.0821Z" fill="#FF9A6B"/>
</g>
</g>
<defs>
<clipPath id="clip0_1530_99931">
<rect width="32.093" height="32.093" fill="white" transform="translate(0.453125 0.953125)"/>
</clipPath>
</defs>
</svg>
