<svg width="60" height="60" viewBox="0 0 60 60" fill="none" xmlns="http://www.w3.org/2000/svg">
<g id="heart 1" clip-path="url(#clip0_1187_203085)">
<g id="Layer 2">
<g id="heart_check">
<path id="background" d="M30 60C46.5685 60 60 46.5685 60 30C60 13.4315 46.5685 0 30 0C13.4315 0 0 13.4315 0 30C0 46.5685 13.4315 60 30 60Z" fill="#0CAA70"/>
<path id="Vector" d="M46.2108 22.2657C45.7817 20.1348 44.5653 18.2439 42.8041 16.97C40.8588 15.5333 38.6686 14.9555 36.2639 15.3036C34.5424 15.552 33.0647 16.3583 31.7123 17.4047C31.117 17.8676 30.5592 18.3774 29.9721 18.879C29.9487 18.8602 28.5952 17.6379 27.9014 17.127C26.4483 16.0524 24.8405 15.3106 23.0041 15.2169C20.8303 15.1055 18.8499 15.695 17.1178 17.0274C14.7987 18.8133 13.6127 21.1981 13.594 24.1172C13.5776 26.9379 14.3979 29.5571 15.7327 32.0227C16.9502 34.268 18.51 36.2579 20.3135 38.0614C22.7581 40.5083 25.5166 42.5508 28.4616 44.345C29.5163 44.9907 30.6084 44.9251 31.6584 44.2735C33.3391 43.2418 34.9568 42.1109 36.503 40.8868C39.1338 38.7926 41.4846 36.4337 43.3221 33.6001C44.7038 31.4672 45.7256 29.1844 46.1686 26.6661C46.4252 25.2024 46.5237 23.7294 46.2108 22.2657ZM38.7354 26.8922L29.2655 36.361C29.0269 36.5995 28.7438 36.7888 28.4321 36.9179C28.1204 37.0469 27.7864 37.1134 27.4491 37.1134C27.1117 37.1134 26.7777 37.0469 26.466 36.9179C26.1544 36.7888 25.8712 36.5995 25.6327 36.361L21.2663 31.9922C21.0276 31.7538 20.8382 31.4706 20.7091 31.159C20.5799 30.8473 20.5134 30.5132 20.5134 30.1758C20.5134 29.8385 20.5799 29.5044 20.7091 29.1927C20.8382 28.881 21.0276 28.5979 21.2663 28.3594C21.5046 28.1205 21.7877 27.9309 22.0993 27.8015C22.411 27.6722 22.7452 27.6056 23.0827 27.6056C23.4201 27.6056 23.7543 27.6722 24.066 27.8015C24.3777 27.9309 24.6608 28.1205 24.8991 28.3594L27.4502 30.9094L35.1038 23.2571C35.3423 23.0186 35.6255 22.8293 35.9371 22.7002C36.2488 22.5711 36.5828 22.5047 36.9202 22.5047C37.2575 22.5047 37.5915 22.5711 37.9032 22.7002C38.2149 22.8293 38.498 23.0186 38.7366 23.2571C38.9754 23.4957 39.1648 23.7791 39.294 24.091C39.4232 24.403 39.4897 24.7373 39.4895 25.0749C39.4894 25.4125 39.4228 25.7468 39.2934 26.0586C39.164 26.3705 38.9744 26.6537 38.7354 26.8922Z" fill="white"/>
</g>
</g>
</g>
<defs>
<clipPath id="clip0_1187_203085">
<rect width="60" height="60" fill="white"/>
</clipPath>
</defs>
</svg>
