<svg width="52" height="52" viewBox="0 0 52 52" fill="none" xmlns="http://www.w3.org/2000/svg">
<circle cx="26" cy="26" r="26" fill="#F378A4"/>
<g clip-path="url(#clip0_1469_83256)">
<path d="M12.741 33.4225H34.307C34.5005 33.4225 34.6874 33.3548 34.8357 33.2315C35.0428 33.058 39.7679 28.9932 40.056 20.2188H16.8945C16.6075 28.1836 12.2559 31.9273 12.2107 31.9646C11.9455 32.1886 11.848 32.5545 11.9673 32.8801C12.0857 33.2049 12.3944 33.4225 12.741 33.4225Z" fill="white"/>
<path d="M39.2582 15.2677H35.132V14.4424C35.132 13.9803 34.7689 13.6172 34.3068 13.6172C33.8446 13.6172 33.4815 13.9803 33.4815 14.4424V15.2677H29.3004V14.4424C29.3004 13.9803 28.9373 13.6172 28.4751 13.6172C28.013 13.6172 27.6499 13.9803 27.6499 14.4424V15.2677H23.5237V14.4424C23.5237 13.9803 23.1606 13.6172 22.6985 13.6172C22.2364 13.6172 21.8733 13.9803 21.8733 14.4424V15.2677H17.7471C17.285 15.2677 16.9219 15.6308 16.9219 16.0929V18.5686H40.0834V16.0929C40.0834 15.6308 39.7203 15.2677 39.2582 15.2677Z" fill="white"/>
<path d="M35.8952 34.4956C35.4471 34.8687 34.8846 35.0718 34.3068 35.0718H16.9219V37.5475C16.9219 38.0036 17.291 38.3727 17.7471 38.3727H39.2582C39.7143 38.3727 40.0834 38.0036 40.0834 37.5475V28.2969C38.4923 32.2003 36.2721 34.1801 35.8952 34.4956Z" fill="white"/>
</g>
<defs>
<clipPath id="clip0_1469_83256">
<rect width="28.1667" height="28.1667" fill="white" transform="translate(11.917 11.9141)"/>
</clipPath>
</defs>
</svg>
