<svg width="52" height="52" viewBox="0 0 52 52" fill="none" xmlns="http://www.w3.org/2000/svg">
<circle cx="26" cy="26" r="26" fill="#29C189"/>
<g clip-path="url(#clip0_1469_83250)">
<path fill-rule="evenodd" clip-rule="evenodd" d="M31.9967 17.7987C34.4388 18.3654 35.373 19.7934 36.5441 21.7588H31.9967V17.7987ZM17.7252 21.9238C18.2033 21.9238 18.5504 22.1546 18.5504 22.694C18.5504 23.1489 18.1822 23.5179 17.7275 23.5192H12.7422C12.2864 23.5192 11.917 23.8888 11.917 24.3444C11.917 24.8002 12.2864 25.1696 12.7422 25.1696H20.1689C20.629 25.1696 20.9974 25.5388 20.9974 25.9948C20.9974 26.4506 20.628 26.82 20.1722 26.82H12.7422C12.2864 26.82 11.917 27.1894 11.917 27.6452C11.917 28.101 12.2864 28.4704 12.7422 28.4704H14.5576V30.946C14.5576 31.4018 14.927 31.7712 15.3828 31.7712H17.0416C17.3373 33.2277 18.6243 34.3018 20.1414 34.3018C21.6586 34.3018 22.9456 33.2277 23.2413 31.7712H31.62C31.9157 33.2277 33.2027 34.3018 34.7199 34.3018C36.237 34.3018 37.524 33.2277 37.8197 31.7712H39.2585C39.7143 31.7712 40.0837 31.4018 40.0837 30.946V25.9948C40.0837 23.5736 37.5298 23.4128 37.5275 23.4092H31.1715C30.7158 23.4092 30.3464 23.0398 30.3464 22.584V17.6328H15.3828C14.927 17.6328 14.5576 18.0022 14.5576 18.458V20.2734H13.5674C13.1116 20.2734 12.7422 20.6428 12.7422 21.0986C12.7422 21.5544 13.1116 21.9238 13.5674 21.9238H17.7252ZM35.7896 30.0688C36.3804 30.6595 36.3804 31.6177 35.7896 32.2085C34.8394 33.1587 33.207 32.4827 33.207 31.1385C33.207 29.7946 34.8394 29.1185 35.7896 30.0688ZM21.2112 30.0688C21.8019 30.6595 21.8019 31.6177 21.2112 32.2085C20.2609 33.1587 18.6286 32.4827 18.6286 31.1385C18.6286 29.7946 20.2609 29.1185 21.2112 30.0688Z" fill="white"/>
</g>
<defs>
<clipPath id="clip0_1469_83250">
<rect width="28.1667" height="28.1667" fill="white" transform="translate(11.917 11.9141)"/>
</clipPath>
</defs>
</svg>
