<svg width="52" height="52" viewBox="0 0 52 52" fill="none" xmlns="http://www.w3.org/2000/svg">
<circle cx="26" cy="26" r="26" fill="#FFC656"/>
<g clip-path="url(#clip0_1469_83253)">
<path d="M26.0003 40.0807C33.7764 40.0807 40.0837 33.7734 40.0837 25.9974C40.0837 18.2214 33.7764 11.9141 26.0003 11.9141C18.2243 11.9141 11.917 18.2214 11.917 25.9974C11.917 33.7734 18.2243 40.0807 26.0003 40.0807ZM24.9943 17.9498C24.9943 17.3965 25.447 16.9438 26.0003 16.9438C26.5536 16.9438 27.0063 17.3965 27.0063 17.9498V25.5145L31.6588 29.2366C32.0914 29.5836 32.1618 30.2173 31.8147 30.6499C31.6185 30.8964 31.3269 31.0271 31.0301 31.0271C30.8088 31.0271 30.5874 30.9567 30.4014 30.8058L25.3716 26.7821C25.1352 26.5909 24.9944 26.3042 24.9944 25.9974V17.9498H24.9943Z" fill="white"/>
</g>
<defs>
<clipPath id="clip0_1469_83253">
<rect width="28.1667" height="28.1667" fill="white" transform="translate(11.917 11.9141)"/>
</clipPath>
</defs>
</svg>
