<svg width="52" height="52" viewBox="0 0 52 52" fill="none" xmlns="http://www.w3.org/2000/svg">
<circle cx="26" cy="26" r="26" fill="#7480EC"/>
<g clip-path="url(#clip0_1469_83259)">
<path d="M27.622 38.5885V39.4848C27.622 39.6981 27.4513 39.9115 27.1953 39.9115H12.7705C12.5145 39.9115 12.3438 39.6981 12.3438 39.4848V38.5885C12.3438 34.705 15.5018 31.5469 19.3854 31.5469H20.5804C24.464 31.5469 27.622 34.705 27.622 38.5885Z" fill="white"/>
<path d="M39.6567 38.5885V39.4848C39.6567 39.6981 39.4434 39.9115 39.23 39.9115H28.3901C28.4328 39.7835 28.4754 39.6555 28.4754 39.4848C28.3901 39.0153 28.9022 36.1986 26.5977 33.4673C27.878 32.2297 29.6277 31.5469 31.4201 31.5469H32.6151C36.4987 31.5469 39.6567 34.705 39.6567 38.5885Z" fill="white"/>
<path d="M35.3894 27.0668C35.3894 28.9019 33.8957 30.4382 32.0179 30.4382C30.1402 30.4382 28.6465 28.9446 28.6465 27.0668C28.6465 25.2317 30.1402 23.6953 32.0179 23.6953C33.8957 23.6953 35.3894 25.189 35.3894 27.0668Z" fill="white"/>
<path d="M23.3543 27.0668C23.3543 28.9019 21.8606 30.4382 19.9828 30.4382C18.1477 30.4382 16.6113 28.9446 16.6113 27.0668C16.6113 25.2317 18.105 23.6953 19.9828 23.6953C21.8179 23.6953 23.3543 25.189 23.3543 27.0668Z" fill="white"/>
<path d="M29.4147 16.1402C29.4147 18.4021 26.8968 20.1945 23.8241 20.1945C23.568 20.1945 23.3119 20.1945 23.0559 20.1518L19.7271 22.2003C19.4283 22.4137 19.0016 22.115 19.0869 21.7309L19.8551 18.9996C18.8309 18.2314 18.2334 17.2071 18.2334 16.1402C18.2334 13.8784 20.7513 12.0859 23.7814 12.0859C26.8968 12.0859 29.4147 13.921 29.4147 16.1402Z" fill="white"/>
<path d="M34.0236 22.926C34.237 23.3101 33.7676 23.6942 33.4261 23.4808L30.4814 21.6457C28.8597 21.8164 27.366 21.3896 26.3418 20.6641C28.6463 19.8959 30.2681 18.1889 30.2681 16.1404C30.2681 15.5002 30.0974 14.9454 29.8413 14.3906C32.5726 14.3906 34.7918 16.055 34.7918 18.0608C34.7918 19.0424 34.2797 19.9386 33.3835 20.6214L34.0236 22.926Z" fill="white"/>
</g>
<defs>
<clipPath id="clip0_1469_83259">
<rect width="28.1667" height="28.1667" fill="white" transform="translate(11.917 11.9141)"/>
</clipPath>
</defs>
</svg>
