<svg width="18" height="19" viewBox="0 0 18 19" fill="none" xmlns="http://www.w3.org/2000/svg">
<rect y="0.5" width="18" height="18" rx="9" fill="#0CAA70"/>
<path d="M7.90341 11.3196V11.1989C7.90578 10.7846 7.94247 10.4543 8.01349 10.2081C8.08688 9.96188 8.19342 9.76302 8.3331 9.61151C8.47277 9.45999 8.64086 9.32268 8.83736 9.19957C8.98414 9.10488 9.11553 9.00663 9.23153 8.90483C9.34754 8.80303 9.43987 8.69058 9.50852 8.56747C9.57718 8.442 9.61151 8.30232 9.61151 8.14844C9.61151 7.98509 9.57244 7.84186 9.49432 7.71875C9.41619 7.59564 9.31084 7.50095 9.17827 7.43466C9.04806 7.36837 8.90365 7.33523 8.74503 7.33523C8.59115 7.33523 8.44555 7.36955 8.30824 7.43821C8.17093 7.5045 8.05848 7.60393 7.97088 7.73651C7.88329 7.86671 7.83594 8.02888 7.82884 8.22301H6.37997C6.39181 7.74953 6.50545 7.3589 6.72088 7.05114C6.93632 6.741 7.22159 6.51018 7.5767 6.35866C7.93182 6.20478 8.32363 6.12784 8.75213 6.12784C9.22325 6.12784 9.63991 6.20597 10.0021 6.36222C10.3643 6.5161 10.6484 6.73982 10.8544 7.03338C11.0604 7.32694 11.1634 7.68087 11.1634 8.09517C11.1634 8.37216 11.1172 8.61837 11.0249 8.83381C10.9349 9.04687 10.8082 9.23627 10.6449 9.40199C10.4815 9.56534 10.2886 9.7133 10.0661 9.84588C9.87902 9.95715 9.72514 10.0732 9.6044 10.1939C9.48603 10.3146 9.39725 10.4543 9.33807 10.6129C9.28125 10.7715 9.25166 10.9669 9.24929 11.1989V11.3196H7.90341ZM8.60653 13.5923C8.36979 13.5923 8.16738 13.5095 7.99929 13.3438C7.83357 13.1757 7.75189 12.9744 7.75426 12.7401C7.75189 12.508 7.83357 12.3092 7.99929 12.1435C8.16738 11.9777 8.36979 11.8949 8.60653 11.8949C8.83144 11.8949 9.02912 11.9777 9.19957 12.1435C9.37003 12.3092 9.45644 12.508 9.45881 12.7401C9.45644 12.8963 9.41501 13.0395 9.33452 13.1697C9.25639 13.2976 9.15341 13.4006 9.02557 13.4787C8.89773 13.5545 8.75805 13.5923 8.60653 13.5923Z" fill="white"/>
</svg>
