<svg width="34" height="34" viewBox="0 0 34 34" fill="none" xmlns="http://www.w3.org/2000/svg">
<g id="lawyer">
<path id="Vector" fill-rule="evenodd" clip-rule="evenodd" d="M17.1745 8.37741L15.3189 5.2469L13.4634 8.37741H17.1745ZM11.5872 11.4933C14.3761 11.4933 16.6369 13.7541 16.6369 16.543C16.6369 19.3319 14.3761 21.5927 11.5872 21.5927C8.79841 21.5927 6.53755 19.3318 6.53755 16.543C6.53755 13.7541 8.79835 11.4933 11.5872 11.4933ZM2.38119 31.1324L20.7931 31.1323C21.1868 31.1323 21.4808 30.7795 21.4097 30.3923C20.5984 25.973 16.8785 22.571 12.3077 22.2451L14.0276 27.6527L11.5871 30.4082L9.14667 27.6527L10.8665 22.2451C6.29572 22.5711 2.57582 25.973 1.76453 30.3923C1.69351 30.7796 1.98755 31.1324 2.38119 31.1324ZM22.1644 2.86719C22.6629 2.86719 23.0935 3.15828 23.2953 3.57975C25.009 3.22128 25.7312 3.49469 26.4159 3.75413C26.97 3.96418 27.4937 4.1625 28.8533 3.78974C29.0719 3.71753 29.3189 3.80422 29.4408 4.01056L32.168 8.61178C32.2316 8.71257 32.2597 8.8363 32.2381 8.96304C31.9688 10.5293 30.5988 11.6817 29.0099 11.6817C27.4327 11.6817 26.0697 10.5461 25.7872 8.99439C25.755 8.85799 25.7813 8.71332 25.8603 8.59711L28.0048 4.979C27.0951 5.08129 26.5899 4.88999 26.0633 4.69035C25.4911 4.47353 24.8868 4.24487 23.3239 4.59658C23.2 4.89776 22.9622 5.14003 22.6642 5.26984L22.6657 12.5049C24.0941 12.6579 25.3283 13.4598 26.0676 14.6102C26.1312 14.7091 26.1354 14.8265 26.079 14.9298C26.0226 15.0331 25.9216 15.093 25.804 15.093H18.5292C18.4115 15.093 18.3105 15.0331 18.2541 14.9298C18.1977 14.8265 18.2019 14.7091 18.2655 14.6102C19.0047 13.46 20.2386 12.6581 21.6667 12.5049L21.6651 5.27015C21.3668 5.1404 21.1288 4.89801 21.0049 4.5967C19.442 4.24506 18.8376 4.47366 18.2655 4.69047C17.7389 4.89005 17.2337 5.08142 16.324 4.97912L18.4772 8.61184C18.5407 8.71263 18.5689 8.83636 18.5472 8.96311C18.2779 10.5294 16.9079 11.6818 15.319 11.6818C13.7419 11.6818 12.3789 10.5461 12.0963 8.99445C12.0641 8.85805 12.0905 8.71338 12.1695 8.59717L14.8842 4.01708C15.0014 3.8113 15.2477 3.71571 15.4739 3.78924C16.8347 4.16269 17.3587 3.96424 17.913 3.75413C18.5977 3.49463 19.3199 3.22121 21.0336 3.57975C21.2353 3.15828 21.6658 2.86719 22.1644 2.86719ZM30.8654 8.37741L29.0098 5.2469L27.1542 8.37741H30.8654Z" fill="#FF9A6B"/>
</g>
</svg>
