<svg width="60" height="60" viewBox="0 0 60 60" fill="none" xmlns="http://www.w3.org/2000/svg">
<g opacity="0.2" clip-path="url(#clip0_1128_2330)">
<path d="M54.8823 42.067C54.0312 41.5995 52.9625 41.9104 52.4953 42.7612C52.0279 43.6121 52.3386 44.6809 53.1895 45.1482C55.2834 46.2985 56.4844 47.5737 56.4844 48.647C56.4844 49.9596 54.6246 51.9939 49.4047 53.7673C44.2479 55.5195 37.3564 56.4843 30 56.4843C22.6436 56.4843 15.7521 55.5195 10.5953 53.7673C5.37539 51.9941 3.51562 49.9596 3.51562 48.647C3.51562 47.5737 4.71656 46.2985 6.81047 45.1481C7.66137 44.6807 7.97215 43.612 7.50469 42.7611C7.03723 41.9103 5.96883 41.5994 5.1177 42.0669C2.78309 43.3495 0 45.5322 0 48.647C0 51.0345 1.64203 54.4386 9.4643 57.0962C14.9759 58.9687 22.2689 60 30 60C37.7311 60 45.0241 58.9687 50.5357 57.0962C58.358 54.4386 60 51.0345 60 48.647C60 45.5322 57.2169 43.3495 54.8823 42.067Z" fill="white"/>
<path d="M16.7283 51.2262C20.2967 52.2342 25.0098 52.7894 29.9996 52.7894C34.9893 52.7894 39.7024 52.2343 43.2708 51.2262C47.6364 49.993 49.8499 48.2078 49.8499 45.9205C49.8499 43.6331 47.6364 41.8481 43.2708 40.615C42.3017 40.3412 41.2477 40.1011 40.1271 39.8962C39.5186 40.9476 38.881 42.0299 38.2143 43.1433C39.4546 43.3294 40.6191 43.5575 41.6766 43.8269C44.8894 44.6453 46.0631 45.5665 46.3044 45.9206C46.063 46.2749 44.8895 47.1961 41.6767 48.0143C38.6358 48.7888 34.7234 49.2306 30.6027 49.2701C30.4031 49.2848 30.2021 49.2932 29.9996 49.2932C29.7969 49.2932 29.596 49.2848 29.3963 49.2701C25.2756 49.2306 21.3632 48.7889 18.3223 48.0143C15.1095 47.1961 13.9358 46.2748 13.6946 45.9206C13.9358 45.5665 15.1096 44.6453 18.3224 43.8269C19.3799 43.5576 20.5444 43.3294 21.7848 43.1433C21.1182 42.03 20.4805 40.9475 19.872 39.8962C18.7514 40.1012 17.6973 40.3412 16.7283 40.615C12.3627 41.8481 10.1492 43.6332 10.1492 45.9205C10.1492 48.2078 12.3627 49.9929 16.7283 51.2262Z" fill="white"/>
<path d="M30.0001 45.7774C31.5649 45.7774 32.9862 44.9801 33.8026 43.6445C39.5225 34.2863 46.3407 21.9527 46.3407 16.3405C46.3407 7.33031 39.0104 0 30.0001 0C20.9897 0 13.6594 7.33031 13.6594 16.3405C13.6594 21.9527 20.4777 34.2863 26.1976 43.6445C27.0139 44.9801 28.4354 45.7774 30.0001 45.7774ZM23.432 15.2186C23.432 11.5971 26.3785 8.65078 30.0001 8.65078C33.6216 8.65078 36.5681 11.5971 36.5681 15.2186C36.5681 18.8401 33.6216 21.7864 30.0001 21.7864C26.3785 21.7864 23.432 18.8402 23.432 15.2186Z" fill="white"/>
</g>
<defs>
<clipPath id="clip0_1128_2330">
<rect width="60" height="60" fill="white"/>
</clipPath>
</defs>
</svg>
