<svg width="142" height="36" viewBox="0 0 142 36" fill="none" xmlns="http://www.w3.org/2000/svg">
<g clip-path="url(#clip0_1101_8051)">
<path fill-rule="evenodd" clip-rule="evenodd" d="M50.6479 2.51954L50.2888 1.15615C50.2018 0.827611 50.0049 0.536511 49.7291 0.328635C49.4533 0.12076 49.1142 0.00789632 48.7652 0.0078125C46.2606 0.028101 43.756 0.028101 41.364 0.0078125C40.9984 0.0134213 40.6447 0.135566 40.3574 0.355482C40.0701 0.575397 39.865 0.88092 39.7736 1.22513C39.089 3.86669 33.6748 24.2567 33.6748 24.2567H38.3835C38.3835 24.2567 42.9753 6.98708 43.6641 4.37391V4.34551H43.7559C44.6081 4.43071 45.4669 4.43071 46.319 4.34551H46.4109C46.9201 6.30538 51.6873 24.2283 51.6873 24.2283H56.3542L56.0954 23.2463C54.3422 16.612 52.3969 9.21882 50.6353 2.51143L50.6479 2.51954Z" fill="#353535"/>
<path fill-rule="evenodd" clip-rule="evenodd" d="M78.2234 0.0324707H72.7967L72.4919 0.669534C72.4346 0.799727 72.3705 0.927031 72.2999 1.05096C69.3069 5.88775 62.4359 16.9531 62.4359 16.9531V0.0324707H57.748C57.748 0.0324707 57.748 18.9049 57.748 22.5852C57.7476 22.9513 57.7982 23.3157 57.8983 23.6686L58.0695 24.2367H63.1246L63.3542 23.8309C63.4085 23.7376 63.4628 23.6362 63.5129 23.5388C63.563 23.4414 73.5689 7.3323 73.5689 7.3323V24.2367H78.2192V0.0324707H78.2234Z" fill="#353535"/>
<path fill-rule="evenodd" clip-rule="evenodd" d="M79.9893 0.0202637V4.37825H87.5031V24.2367H92.1701L92.1242 4.37825H99.613V0.0202637C99.613 0.0202637 81.0871 0.0446099 79.9934 0.0202637H79.9893Z" fill="#353535"/>
<path fill-rule="evenodd" clip-rule="evenodd" d="M135.016 12.4693C134.903 12.2624 134.92 12.23 134.987 12.1082C135.325 11.4874 141.094 0.0324707 141.094 0.0324707H136.139C136.139 0.0324707 132.382 7.27955 131.518 9.13392C131.159 9.89677 130.85 10.1078 130.336 10.1037C129.823 10.0997 129.502 9.89677 129.155 9.13392C128.287 7.27955 124.53 0.0324707 124.53 0.0324707H119.579C119.579 0.0324707 125.348 11.4874 125.686 12.1082C125.753 12.23 125.77 12.2624 125.653 12.4693C124.092 15.2692 119.17 24.2043 119.17 24.2043H124.179C124.179 24.2043 128.153 17.0911 129.468 14.6727C129.606 14.4211 129.648 14.3684 130.094 14.3237C130.178 14.3197 130.261 14.3197 130.345 14.3237C130.428 14.3197 130.512 14.3197 130.595 14.3237C131.038 14.3684 131.084 14.4211 131.221 14.6727C132.532 17.1073 136.506 24.2043 136.506 24.2043H141.515C141.515 24.2043 136.594 15.2773 135.028 12.4693H135.016Z" fill="#353535"/>
<path fill-rule="evenodd" clip-rule="evenodd" d="M102.99 -0.000410852C102.775 -0.0179077 102.557 0.00683839 102.352 0.0723525C102.146 0.137867 101.956 0.24282 101.792 0.381015C101.651 0.536813 101.543 0.718859 101.476 0.916202C101.408 1.11355 101.382 1.3221 101.4 1.52934C101.4 4.18308 101.4 22.7917 101.4 22.7917V22.881C101.378 23.0591 101.395 23.2397 101.449 23.411C101.504 23.5823 101.595 23.7405 101.717 23.8752C101.845 23.9947 101.996 24.0874 102.162 24.1475C102.328 24.2075 102.505 24.2336 102.682 24.2241C107.532 24.2241 118.047 24.2241 118.047 24.2241V19.8824C118.047 19.8824 109.753 19.8824 106.013 19.9108C106.05 17.9468 106.05 16.0275 106.013 14.23C108.455 14.23 118.047 14.23 118.047 14.23V9.85982C118.047 9.85982 107.49 9.85981 106.013 9.8801C106.042 7.7498 106.046 5.98065 106.013 4.33728C107.445 4.33728 118.047 4.35757 118.047 4.35757V-0.000410852C118.047 -0.000410852 108.029 0.0279931 102.974 -0.000410852H102.99Z" fill="#353535"/>
<path fill-rule="evenodd" clip-rule="evenodd" d="M8.27758 20.3986C8.30168 19.9128 8.36588 19.4297 8.46959 18.954C8.71384 18.0864 9.25148 17.3239 9.99587 16.7895C10.7403 16.2551 11.6481 15.9799 12.573 16.0081C13.5138 16.0651 14.4031 16.4453 15.0821 17.0808C15.7611 17.7163 16.1857 18.5658 16.2799 19.4774C16.3216 19.8832 16.3675 20.2525 16.4301 20.6379C16.5474 21.4 16.8868 22.1134 17.4081 22.6939C17.9294 23.2743 18.6109 23.6975 19.3719 23.9132C20.1328 24.129 20.9414 24.1284 21.7021 23.9115C22.4627 23.6945 23.1434 23.2704 23.6638 22.6891C24.1842 22.1079 24.5224 21.3939 24.6385 20.6317C24.7545 19.8695 24.6435 19.0909 24.3186 18.3881C23.9937 17.6852 23.4685 17.0876 22.8051 16.6658C22.1417 16.244 21.3679 16.0158 20.5753 16.0081C18.1709 15.9107 16.6013 14.385 16.4594 11.9747C16.3174 9.56446 14.8814 8.09151 12.4186 7.86428C9.8054 7.62081 8.49464 6.33452 8.24418 3.76599C8.1486 2.73489 7.64719 1.77947 6.84452 1.099C6.04186 0.418539 4.9999 0.0655769 3.93601 0.113726C2.87212 0.161875 1.86843 0.607423 1.13428 1.35744C0.400125 2.10746 -0.00779542 3.10403 -0.00440535 4.1393C-0.0359738 5.18755 0.36016 6.20539 1.09759 6.97086C1.83501 7.73632 2.8539 8.18731 3.93204 8.22542C6.43667 8.35121 8.05215 9.84849 8.07719 12.0681C8.10642 14.3769 6.54103 15.8945 3.9863 16.0406C3.18035 16.0642 2.39869 16.3141 1.73574 16.7603C1.0728 17.2064 0.556961 17.8296 0.250583 18.5546C-0.0557961 19.2796 -0.1396 20.0753 0.00927655 20.8456C0.158153 21.6159 0.533335 22.3279 1.08951 22.8953C1.64569 23.4628 2.35904 23.8616 3.14335 24.0434C3.92766 24.2253 4.74937 24.1824 5.50917 23.9201C6.26898 23.6577 6.93436 23.1871 7.4249 22.565C7.91543 21.943 8.21015 21.1961 8.2734 20.4148L8.27758 20.3986Z" fill="#0CAA70"/>
<path fill-rule="evenodd" clip-rule="evenodd" d="M16.3264 4.15922C16.3351 5.22277 16.7731 6.24048 17.546 6.9933C18.3189 7.74613 19.365 8.17386 20.4591 8.18446C21.008 8.20083 21.5546 8.1095 22.0664 7.91592C22.5781 7.72235 23.0445 7.4305 23.4376 7.05782C23.8308 6.68514 24.1427 6.23927 24.3546 5.74683C24.5665 5.25438 24.6741 4.72546 24.671 4.19168C24.681 3.65096 24.5806 3.11369 24.3758 2.61088C24.1709 2.10808 23.8656 1.64971 23.4775 1.26225C23.0893 0.874781 22.6261 0.565894 22.1145 0.353434C21.6029 0.140975 21.053 0.0291514 20.4966 0.0244141C19.385 0.0528014 18.3283 0.499921 17.5494 1.2714C16.7706 2.04287 16.3305 3.07834 16.3223 4.15922H16.3264Z" fill="#FE8045"/>
<path fill-rule="evenodd" clip-rule="evenodd" d="M4.45397 33.0784C4.45502 32.8854 4.41818 32.6939 4.34543 32.5144C4.27768 32.3393 4.17238 32.1802 4.03653 32.0477C3.89635 31.9094 3.73068 31.7979 3.54814 31.719C3.34021 31.6299 3.11895 31.5738 2.89276 31.5527V34.596C3.11882 34.5794 3.34038 34.5259 3.54814 34.4377C3.73155 34.3604 3.89749 34.2487 4.03653 34.109C4.17141 33.9773 4.2766 33.8198 4.34543 33.6465C4.41783 33.4654 4.45464 33.2727 4.45397 33.0784ZM0.876523 33.0784C0.875453 33.2727 0.912284 33.4655 0.985061 33.6465C1.0542 33.823 1.16089 33.9834 1.29814 34.1172C1.4406 34.2566 1.60923 34.3681 1.79489 34.4458C2.00246 34.5345 2.22413 34.5881 2.45027 34.6041V31.5527C2.22413 31.5687 2.00246 31.6222 1.79489 31.7109C1.6082 31.7887 1.43933 31.9017 1.29814 32.0437C1.16184 32.1781 1.05529 32.3383 0.985061 32.5144C0.912315 32.6939 0.875474 32.8854 0.876523 33.0784ZM2.89276 31.1794C3.17069 31.197 3.44401 31.2573 3.70259 31.3579C3.93906 31.4544 4.15549 31.5919 4.34128 31.7637C4.51925 31.9293 4.6612 32.128 4.75872 32.348C4.86463 32.5818 4.91732 32.8351 4.91317 33.0905C4.91726 33.3473 4.86459 33.6019 4.75872 33.8372C4.6633 34.0583 4.52107 34.2573 4.34128 34.4215C4.15776 34.5961 3.94075 34.7339 3.70259 34.8273C3.44463 34.9298 3.17099 34.9901 2.89276 35.0058V35.5049H2.45027V35.0058C2.16369 34.9919 1.88152 34.9316 1.6154 34.8273C1.3757 34.7322 1.15629 34.5946 0.968373 34.4215C0.788586 34.2573 0.646357 34.0583 0.550934 33.8372C0.448984 33.6007 0.396484 33.3469 0.396484 33.0905C0.396484 32.8342 0.448984 32.5804 0.550934 32.3439C0.646357 32.1229 0.788586 31.9238 0.968373 31.7596C1.15629 31.5865 1.3757 31.4489 1.6154 31.3539C1.88215 31.2516 2.16399 31.1913 2.45027 31.1753V30.7168H2.89276V31.1794Z" fill="#353535"/>
<path fill-rule="evenodd" clip-rule="evenodd" d="M7.45518 34.7998H9.76361V35.1771H7.0127V30.9814H9.69265V31.3588H7.45518V32.7993H9.54655V33.1807H7.45518V34.7998Z" fill="#353535"/>
<path fill-rule="evenodd" clip-rule="evenodd" d="M12.2477 34.7866H14.7147L13.4624 31.4552L12.2101 34.7866H12.2477ZM11.7133 35.1924V36.0039H11.2959V34.7866H11.8302L13.2996 30.9805H13.717L15.1739 34.7866H15.7082V36.0039H15.2699V35.1924H11.7133Z" fill="#353535"/>
<path fill-rule="evenodd" clip-rule="evenodd" d="M17.9334 34.7998H20.246V35.1771H17.4951V30.9814H20.1751V31.3588H17.9334V32.7993H20.0248V33.1807H17.9334V34.7998Z" fill="#353535"/>
<path fill-rule="evenodd" clip-rule="evenodd" d="M22.7667 32.8673H23.5098C23.7861 32.8857 24.0611 32.8174 24.2945 32.6726C24.3843 32.6068 24.4559 32.5205 24.5033 32.4215C24.5506 32.3224 24.5721 32.2135 24.5659 32.1045C24.5738 31.9938 24.5522 31.8829 24.5032 31.7827C24.4542 31.6825 24.3795 31.5963 24.2862 31.5323C24.0518 31.3978 23.7815 31.3342 23.5098 31.3497H22.7667V32.8673ZM22.3242 30.9845H23.5473C23.7486 30.9812 23.9494 31.0044 24.1443 31.0535C24.3099 31.0925 24.4659 31.1628 24.6034 31.2605C24.7304 31.3511 24.8323 31.4711 24.8998 31.6094C24.9712 31.7653 25.008 31.9339 25.008 32.1045C25.008 32.275 24.9712 32.4437 24.8998 32.5995C24.8309 32.737 24.7293 32.8566 24.6034 32.9485C24.4637 33.0459 24.3066 33.1174 24.1401 33.1595C23.944 33.2097 23.7418 33.2343 23.539 33.2325H22.7709V35.1802H22.3284V30.9805L22.3242 30.9845Z" fill="#353535"/>
<path fill-rule="evenodd" clip-rule="evenodd" d="M27.689 33.679H29.5926L28.6408 31.4513L27.689 33.679ZM27.0545 35.1722H26.5703L28.4404 30.9766H28.8579L30.7113 35.1722H30.2229L29.7554 34.0848H27.5221L27.0545 35.1844V35.1722Z" fill="#353535"/>
<path fill-rule="evenodd" clip-rule="evenodd" d="M32.5435 35.1771H32.0635L33.9294 30.9814H34.3552L36.2086 35.1771H35.7202L34.1298 31.513L32.5435 35.1771Z" fill="#353535"/>
<path fill-rule="evenodd" clip-rule="evenodd" d="M38.3797 33.0661V34.7988H39.1061C39.3914 34.8175 39.6729 34.7272 39.8908 34.5472C39.9792 34.4687 40.0492 34.3726 40.096 34.2655C40.1428 34.1584 40.1654 34.0427 40.1622 33.9264C40.1672 33.8088 40.1451 33.6917 40.0974 33.5835C40.0497 33.4754 39.9777 33.379 39.8867 33.3015C39.6648 33.133 39.3871 33.0492 39.1061 33.0661H38.3797ZM37.9414 30.9805H38.3797V32.6888H39.1436C39.3464 32.6855 39.5482 32.7157 39.7406 32.7781C39.91 32.8308 40.0673 32.9148 40.2039 33.0256C40.3332 33.1363 40.4334 33.2754 40.4961 33.4313C40.5683 33.5939 40.6039 33.7696 40.6005 33.9467C40.6041 34.1224 40.5685 34.2968 40.4961 34.4579C40.4286 34.6134 40.3258 34.7521 40.1956 34.8637C40.0602 34.9772 39.9026 35.0628 39.7322 35.1153C39.5384 35.1777 39.3352 35.2079 39.1311 35.2046H37.9414V30.9805Z" fill="#353535"/>
<path fill-rule="evenodd" clip-rule="evenodd" d="M42.6992 30.9814H43.1375V32.7993H45.4919V30.9814H45.9302V35.1771H45.4919V33.1929H43.1375V35.1771H42.6992V30.9814Z" fill="#353535"/>
<path fill-rule="evenodd" clip-rule="evenodd" d="M48.9027 33.6789H50.8062L49.8544 31.4512L48.9027 33.6789ZM48.2682 35.1721H47.7881L49.6749 30.9805H50.0924L51.9458 35.1762H51.4574L50.969 34.0846H48.7399L48.2682 35.1843V35.1721Z" fill="#353535"/>
<path fill-rule="evenodd" clip-rule="evenodd" d="M56.1082 31.3701H55.3067C55.0057 31.3534 54.7053 31.4121 54.4343 31.5406C54.3348 31.5949 54.2534 31.6757 54.1994 31.7735C54.1455 31.8712 54.1212 31.9818 54.1295 32.0924C54.1257 32.2023 54.1524 32.3111 54.2068 32.4074C54.2611 32.5038 54.3411 32.5842 54.4384 32.6402C54.7025 32.7808 55.0018 32.8469 55.3025 32.8309H56.1082V31.3701ZM54.6305 33.0663C54.3706 33.0341 54.1273 32.925 53.9333 32.7538C53.8436 32.668 53.7734 32.5647 53.7274 32.4507C53.6813 32.3368 53.6605 32.2147 53.6662 32.0924C53.663 31.9237 53.7017 31.7566 53.7789 31.6055C53.8545 31.465 53.965 31.3451 54.1003 31.2565C54.2534 31.1566 54.4249 31.0863 54.6054 31.0496C54.8215 31.0002 55.043 30.977 55.265 30.9806H56.5465V35.1763H56.1082V33.2205H55.6114C55.3917 33.2175 55.173 33.2504 54.9644 33.3178C54.7706 33.3826 54.5978 33.496 54.4635 33.6465C54.3076 33.8228 54.191 34.0287 54.1212 34.2511C54.024 34.5514 53.9651 34.8621 53.9459 35.1763H53.4658C53.482 34.9363 53.5226 34.6984 53.5869 34.4662C53.6427 34.2529 53.7255 34.0471 53.8332 33.8535C53.9276 33.6819 54.0456 33.5236 54.1838 33.3828C54.3104 33.2535 54.4623 33.15 54.6305 33.0784V33.0663Z" fill="#353535"/>
<path fill-rule="evenodd" clip-rule="evenodd" d="M65.2956 34.4897C65.2183 34.6004 65.1287 34.7025 65.0284 34.7941C64.9191 34.8911 64.7986 34.9755 64.6694 35.0456C64.527 35.1205 64.3756 35.1777 64.2186 35.2161C64.0411 35.2593 63.8588 35.2812 63.6759 35.281C63.367 35.2835 63.0607 35.2269 62.7742 35.1146C62.5073 35.0092 62.2651 34.8524 62.062 34.6537C61.859 34.455 61.6994 34.2184 61.5929 33.9582C61.3675 33.3888 61.3675 32.7584 61.5929 32.189C61.7012 31.9291 61.8618 31.6929 62.0654 31.4943C62.269 31.2957 62.5114 31.1387 62.7784 31.0326C63.0623 30.922 63.3659 30.8668 63.6717 30.8703C63.8288 30.8686 63.9856 30.8836 64.1393 30.9149C64.2832 30.9458 64.4232 30.9921 64.5567 31.0529C64.6873 31.1072 64.8106 31.1767 64.9241 31.2598C65.0303 31.3386 65.1232 31.4331 65.1996 31.5398L64.8322 31.7995C64.781 31.725 64.7208 31.6569 64.6527 31.5966C64.5709 31.5274 64.4813 31.4675 64.3855 31.418C64.2805 31.366 64.1699 31.3252 64.0558 31.2963C63.9292 31.2631 63.7986 31.2468 63.6676 31.2476C63.4079 31.2434 63.1502 31.2932 62.912 31.3937C62.6972 31.4894 62.5052 31.6276 62.3484 31.7995C62.1931 31.9691 62.0727 32.166 61.9936 32.3797C61.9133 32.6041 61.8724 32.8401 61.8726 33.0777C61.8713 33.3157 61.9138 33.552 61.9978 33.7756C62.0783 33.9895 62.2002 34.1864 62.3568 34.3558C62.5136 34.5277 62.7055 34.6659 62.9203 34.7616C63.1558 34.8617 63.4106 34.9116 63.6676 34.9077C63.9108 34.9086 64.1513 34.8588 64.373 34.7616C64.6023 34.6569 64.7974 34.4926 64.9366 34.2869L65.2789 34.4979L65.2956 34.4897Z" fill="#353535"/>
<path fill-rule="evenodd" clip-rule="evenodd" d="M67.7088 34.7998H70.0214V35.1771H67.2705V30.9814H69.9463V31.3588H67.7088V32.7993H69.8002V33.1807H67.7088V34.7998Z" fill="#353535"/>
<path fill-rule="evenodd" clip-rule="evenodd" d="M73.4862 35.1771H73.0479V31.3588H71.6035V30.9814H74.9305V31.3588H73.4862V35.1771Z" fill="#353535"/>
<path fill-rule="evenodd" clip-rule="evenodd" d="M77.226 33.0661V34.7988H77.9524C78.2363 34.8168 78.5164 34.7266 78.733 34.5472C78.8214 34.4687 78.8913 34.3726 78.9382 34.2655C78.985 34.1584 79.0075 34.0427 79.0043 33.9264C79.0094 33.8088 78.9872 33.6917 78.9395 33.5835C78.8919 33.4754 78.8198 33.379 78.7288 33.3015C78.5069 33.133 78.2292 33.0492 77.9482 33.0661H77.226ZM76.8086 30.9805H77.226V32.6888H77.9858C78.1899 32.6855 78.3931 32.7157 78.5869 32.7781C78.7546 32.8317 78.9104 32.9157 79.0461 33.0256C79.1765 33.1361 79.2781 33.2752 79.3424 33.4313C79.4126 33.5945 79.4481 33.7698 79.4468 33.9467C79.4491 34.1227 79.4121 34.2971 79.3383 34.4579C79.2707 34.6134 79.168 34.7521 79.0377 34.8637C78.9035 34.9788 78.7455 35.0646 78.5743 35.1153C78.3806 35.1777 78.1773 35.2079 77.9732 35.2046H76.8086V30.9805Z" fill="#353535"/>
<path fill-rule="evenodd" clip-rule="evenodd" d="M84.2723 35.1771H83.7881L85.654 30.9814H86.084L87.9374 35.1771H87.449L85.8544 31.513L84.2723 35.1771Z" fill="#353535"/>
<path fill-rule="evenodd" clip-rule="evenodd" d="M90.2708 33.679H92.1743L91.2226 31.4513L90.2708 33.679ZM89.6363 35.1722H89.1562L91.0222 30.9766H91.4396L93.2972 35.1722H92.8088L92.3329 34.0726H90.0997L89.628 35.1722H89.6363Z" fill="#353535"/>
<path fill-rule="evenodd" clip-rule="evenodd" d="M96.428 34.7866C96.7098 34.8039 96.9893 34.7281 97.2212 34.5716C97.3128 34.5015 97.386 34.4112 97.4346 34.3082C97.4832 34.2052 97.5059 34.0924 97.5008 33.9791C97.508 33.8654 97.4853 33.7517 97.4349 33.6488C97.3845 33.5459 97.3081 33.4571 97.2128 33.3907C96.9792 33.246 96.7046 33.1764 96.428 33.1919H95.5931V34.7866H96.428ZM95.1465 35.1924V30.9805H97.5968V31.3862H95.5931V32.8146H96.4739C96.6759 32.813 96.8771 32.8404 97.0709 32.8957C97.238 32.9429 97.394 33.0215 97.5301 33.127C97.657 33.2277 97.7584 33.3554 97.8264 33.5003C97.8967 33.6592 97.9322 33.8305 97.9308 34.0035C97.9333 34.1769 97.8963 34.3488 97.8223 34.5066C97.7526 34.6517 97.6498 34.7794 97.5217 34.8799C97.3854 34.9861 97.2296 35.0659 97.0625 35.1153C96.867 35.1689 96.6646 35.1949 96.4614 35.1924H95.1465Z" fill="#353535"/>
<path fill-rule="evenodd" clip-rule="evenodd" d="M103.9 33.0826C103.901 32.845 103.86 32.6089 103.779 32.3847C103.701 32.1693 103.58 31.9708 103.424 31.8004C103.266 31.6298 103.074 31.4918 102.861 31.3946C102.638 31.2906 102.394 31.2337 102.147 31.2278C101.9 31.2219 101.654 31.267 101.426 31.3602C101.198 31.4533 100.993 31.5925 100.824 31.7684C100.656 31.9443 100.527 32.153 100.448 32.3806C100.286 32.8327 100.286 33.3244 100.448 33.7765C100.521 33.9931 100.641 34.1921 100.8 34.3606C100.958 34.5291 101.151 34.6633 101.366 34.7544C101.603 34.8508 101.857 34.9005 102.113 34.9005C102.37 34.9005 102.624 34.8508 102.861 34.7544C103.075 34.6575 103.266 34.5195 103.424 34.3486C103.579 34.179 103.7 33.982 103.779 33.7684C103.86 33.544 103.9 33.3081 103.9 33.0704V33.0826ZM104.363 33.0826C104.366 33.3855 104.308 33.686 104.192 33.9672C104.084 34.2269 103.924 34.4628 103.72 34.6611C103.516 34.8592 103.273 35.0164 103.007 35.1236C102.433 35.3455 101.794 35.3455 101.22 35.1236C100.953 35.0168 100.71 34.8595 100.506 34.6611C100.302 34.4626 100.14 34.2268 100.03 33.9672C99.8076 33.3973 99.8076 32.7679 100.03 32.198C100.14 31.9385 100.302 31.7027 100.506 31.5042C100.71 31.3057 100.953 31.1485 101.22 31.0416C101.795 30.825 102.432 30.825 103.007 31.0416C103.273 31.1488 103.516 31.306 103.72 31.5042C103.924 31.7024 104.084 31.9384 104.192 32.198C104.308 32.4793 104.366 32.7798 104.363 33.0826Z" fill="#353535"/>
<path fill-rule="evenodd" clip-rule="evenodd" d="M106.94 32.8673H107.699C107.976 32.8863 108.251 32.818 108.484 32.6726C108.574 32.6068 108.645 32.5205 108.693 32.4215C108.74 32.3224 108.762 32.2135 108.755 32.1045C108.764 31.9937 108.743 31.8826 108.694 31.7822C108.645 31.6818 108.57 31.5957 108.476 31.5323C108.241 31.3978 107.971 31.3342 107.699 31.3497H106.956V32.8673H106.94ZM106.497 30.9845H107.72C107.921 30.9812 108.122 31.0044 108.317 31.0535C108.483 31.0925 108.639 31.1628 108.776 31.2605C108.903 31.3511 109.005 31.4711 109.073 31.6094C109.144 31.7653 109.181 31.9339 109.181 32.1045C109.181 32.275 109.144 32.4437 109.073 32.5995C109.004 32.737 108.902 32.8566 108.776 32.9485C108.636 33.0459 108.479 33.1174 108.313 33.1595C108.117 33.2097 107.915 33.2343 107.712 33.2325H106.944V35.1802H106.501V30.9805L106.497 30.9845Z" fill="#353535"/>
<path fill-rule="evenodd" clip-rule="evenodd" d="M111.874 33.679H113.777L112.825 31.4513L111.874 33.679ZM111.239 35.1722H110.755L112.625 30.9766H113.042L114.896 35.1722H114.407L113.932 34.0726H111.698L111.231 35.1722H111.239Z" fill="#353535"/>
<path fill-rule="evenodd" clip-rule="evenodd" d="M118.131 35.1771H117.692V31.3588H116.248V30.9814H119.575V31.3588H118.131V35.1771Z" fill="#353535"/>
<path fill-rule="evenodd" clip-rule="evenodd" d="M125.232 33.0826C125.235 32.8448 125.194 32.6084 125.111 32.3847C125.035 32.1686 124.914 31.9698 124.756 31.8004C124.598 31.6298 124.406 31.4918 124.193 31.3946C123.956 31.2982 123.702 31.2485 123.445 31.2485C123.189 31.2485 122.935 31.2982 122.698 31.3946C122.484 31.4918 122.293 31.6298 122.135 31.8004C121.978 31.9708 121.858 32.1693 121.78 32.3847C121.618 32.8368 121.618 33.3285 121.78 33.7805C121.859 33.9942 121.979 34.1912 122.135 34.3608C122.292 34.5316 122.484 34.6697 122.698 34.7666C122.935 34.863 123.189 34.9127 123.445 34.9127C123.702 34.9127 123.956 34.863 124.193 34.7666C124.406 34.6727 124.597 34.5376 124.755 34.3695C124.913 34.2014 125.034 34.0038 125.111 33.7887C125.194 33.5649 125.235 33.3285 125.232 33.0907V33.0826ZM125.695 33.0826C125.7 33.3857 125.642 33.6866 125.524 33.9672C125.416 34.2271 125.255 34.4633 125.052 34.6619C124.848 34.8605 124.606 35.0175 124.339 35.1236C123.765 35.3455 123.126 35.3455 122.552 35.1236C122.285 35.0175 122.043 34.8605 121.839 34.6619C121.635 34.4633 121.475 34.2271 121.366 33.9672C121.138 33.3984 121.138 32.7669 121.366 32.198C121.475 31.9382 121.635 31.702 121.839 31.5034C122.043 31.3048 122.285 31.1477 122.552 31.0416C123.127 30.825 123.764 30.825 124.339 31.0416C124.606 31.1477 124.848 31.3048 125.052 31.5034C125.255 31.702 125.416 31.9382 125.524 32.198C125.642 32.4788 125.7 32.7796 125.695 33.0826Z" fill="#353535"/>
<path fill-rule="evenodd" clip-rule="evenodd" d="M128.287 32.8683H129.03C129.307 32.8864 129.584 32.8182 129.819 32.6735C129.908 32.6073 129.978 32.5209 130.025 32.4219C130.072 32.3228 130.092 32.2141 130.086 32.1054C130.095 31.9946 130.073 31.8835 130.024 31.7832C129.975 31.6828 129.9 31.5967 129.806 31.5333C129.572 31.3988 129.301 31.3352 129.03 31.3507H128.287V32.8683ZM127.869 30.9855H129.088C129.289 30.9819 129.49 31.0052 129.685 31.0545C129.852 31.0934 130.009 31.1637 130.148 31.2614C130.274 31.3524 130.374 31.4723 130.441 31.6104C130.509 31.7669 130.545 31.9353 130.545 32.1054C130.545 32.2756 130.509 32.444 130.441 32.6005C130.371 32.739 130.268 32.8589 130.14 32.9494C130 33.0469 129.843 33.1184 129.677 33.1604C129.481 33.2112 129.278 33.2358 129.076 33.2335H128.307V35.1812H127.89V30.9814L127.869 30.9855Z" fill="#353535"/>
<path fill-rule="evenodd" clip-rule="evenodd" d="M133.058 34.5563L135.571 30.9814H136.118V35.1771H135.68V31.5658H135.667L133.154 35.1771H132.607V30.9814H133.046V34.5563H133.058Z" fill="#353535"/>
<path fill-rule="evenodd" clip-rule="evenodd" d="M139.474 29.8037C139.529 29.9469 139.625 30.0721 139.75 30.1649C139.853 30.2348 139.97 30.2812 140.094 30.3007C140.218 30.3203 140.345 30.3124 140.466 30.2777C140.586 30.243 140.697 30.1823 140.789 30.1003C140.882 30.0182 140.955 29.9168 141.002 29.8037L141.315 29.9457C141.28 30.04 141.231 30.1289 141.169 30.2095C141.105 30.2923 141.029 30.3661 140.944 30.4286C140.848 30.4932 140.742 30.5426 140.631 30.5747C140.372 30.6505 140.096 30.6505 139.837 30.5747C139.727 30.5434 139.622 30.494 139.529 30.4286C139.441 30.3672 139.364 30.2933 139.299 30.2095C139.237 30.1297 139.189 30.0406 139.157 29.9457L139.466 29.8037H139.474ZM141.449 30.9804H142V35.1761H141.561V31.5647L139.057 35.1761H138.506V30.9804H138.948V34.5553L141.453 30.9804H141.449Z" fill="#353535"/>
</g>
<defs>
<clipPath id="clip0_1101_8051">
<rect width="142" height="36" fill="white"/>
</clipPath>
</defs>
</svg>
