<svg width="40" height="40" viewBox="0 0 40 40" fill="none" xmlns="http://www.w3.org/2000/svg">
<path d="M35 16.6667C35 28.3334 20 38.3334 20 38.3334C20 38.3334 5 28.3334 5 16.6667C5 12.6884 6.58035 8.87313 9.3934 6.06009C12.2064 3.24704 16.0218 1.66669 20 1.66669C23.9782 1.66669 27.7936 3.24704 30.6066 6.06009C33.4196 8.87313 35 12.6884 35 16.6667Z" fill="#0CAA70"/>
<path fill-rule="evenodd" clip-rule="evenodd" d="M22.4341 11.3204C22.4393 11.9815 22.7048 12.6142 23.1733 13.0822C23.6418 13.5502 24.2759 13.8161 24.9391 13.8227C25.2718 13.8328 25.6032 13.7761 25.9134 13.6557C26.2236 13.5354 26.5063 13.354 26.7446 13.1223C26.9829 12.8906 27.172 12.6134 27.3004 12.3073C27.4289 12.0012 27.4941 11.6724 27.4923 11.3406C27.4983 11.0044 27.4375 10.6704 27.3133 10.3579C27.1891 10.0453 27.004 9.76036 26.7688 9.51949C26.5335 9.27863 26.2527 9.08661 25.9426 8.95453C25.6324 8.82246 25.2991 8.75294 24.9619 8.75C24.2881 8.76765 23.6475 9.0456 23.1754 9.52518C22.7033 10.0048 22.4365 10.6485 22.4315 11.3204H22.4341Z" fill="#FE8045"/>
<path fill-rule="evenodd" clip-rule="evenodd" d="M17.5555 21.4153C17.5701 21.1134 17.609 20.8131 17.6719 20.5173C17.8199 19.978 18.1458 19.504 18.597 19.1718C19.0483 18.8396 19.5986 18.6684 20.1592 18.686C20.7295 18.7215 21.2686 18.9578 21.6802 19.3529C22.0917 19.7479 22.3491 20.276 22.4062 20.8427C22.4315 21.095 22.4593 21.3245 22.4973 21.5641C22.5684 22.0379 22.7741 22.4814 23.0901 22.8422C23.4061 23.203 23.8192 23.4661 24.2805 23.6002C24.7417 23.7344 25.2319 23.734 25.6929 23.5991C26.154 23.4643 26.5667 23.2006 26.8821 22.8393C27.1975 22.4779 27.4026 22.0341 27.4729 21.5603C27.5432 21.0864 27.476 20.6024 27.279 20.1655C27.0821 19.7286 26.7637 19.3571 26.3616 19.0949C25.9595 18.8327 25.4904 18.6908 25.0099 18.686C23.5524 18.6255 22.601 17.677 22.515 16.1787C22.429 14.6803 21.5585 13.7647 20.0656 13.6234C18.4816 13.4721 17.6871 12.6725 17.5352 11.0757C17.4773 10.4348 17.1734 9.84082 16.6868 9.41781C16.2003 8.9948 15.5687 8.77539 14.9238 8.80532C14.2789 8.83525 13.6705 9.11222 13.2254 9.57847C12.7804 10.0447 12.5332 10.6642 12.5352 11.3078C12.5161 11.9594 12.7562 12.5922 13.2032 13.068C13.6502 13.5439 14.2678 13.8242 14.9214 13.8479C16.4396 13.9261 17.4188 14.8569 17.434 16.2367C17.4517 17.672 16.5028 18.6154 14.9542 18.7062C14.4657 18.7209 13.9919 18.8762 13.59 19.1536C13.1882 19.4309 12.8755 19.8184 12.6898 20.269C12.5041 20.7197 12.4533 21.2144 12.5435 21.6932C12.6338 22.1721 12.8612 22.6147 13.1983 22.9674C13.5354 23.3202 13.9679 23.5681 14.4433 23.6811C14.9187 23.7942 15.4168 23.7676 15.8774 23.6045C16.3379 23.4414 16.7413 23.1488 17.0386 22.7621C17.336 22.3754 17.5146 21.9111 17.5529 21.4254L17.5555 21.4153Z" fill="white"/>
</svg>
