<svg width="60" height="60" viewBox="0 0 60 60" fill="none" xmlns="http://www.w3.org/2000/svg">
<path d="M52.5 25C52.5 42.5 30 57.5 30 57.5C30 57.5 7.5 42.5 7.5 25C7.5 19.0326 9.87053 13.3097 14.0901 9.0901C18.3097 4.87053 24.0326 2.5 30 2.5C35.9674 2.5 41.6903 4.87053 45.9099 9.0901C50.1295 13.3097 52.5 19.0326 52.5 25Z" fill="#FE8045"/>
<path fill-rule="evenodd" clip-rule="evenodd" d="M33.6522 16.9806C33.6601 17.9723 34.0583 18.9213 34.7611 19.6233C35.4639 20.3253 36.415 20.7241 37.4098 20.734C37.9089 20.7493 38.4059 20.6641 38.8713 20.4836C39.3366 20.3031 39.7606 20.031 40.1181 19.6834C40.4756 19.3359 40.7591 18.9202 40.9518 18.461C41.1445 18.0018 41.2423 17.5086 41.2396 17.0109C41.2486 16.5066 41.1574 16.0057 40.9711 15.5368C40.7848 15.068 40.5072 14.6405 40.1543 14.2792C39.8014 13.9179 39.3802 13.6299 38.915 13.4318C38.4498 13.2337 37.9498 13.1294 37.444 13.125C36.4333 13.1515 35.4724 13.5684 34.7642 14.2878C34.0561 15.0072 33.656 15.9727 33.6484 16.9806H33.6522Z" fill="white"/>
<path fill-rule="evenodd" clip-rule="evenodd" d="M26.3332 32.1222C26.3551 31.6693 26.4135 31.2188 26.5078 30.7752C26.7299 29.9661 27.2187 29.2552 27.8956 28.7569C28.5724 28.2585 29.3978 28.0019 30.2388 28.0282C31.0942 28.0814 31.9028 28.4359 32.5202 29.0285C33.1376 29.6211 33.5236 30.4132 33.6093 31.2633C33.6473 31.6417 33.689 31.986 33.7459 32.3454C33.8526 33.056 34.1611 33.7213 34.6351 34.2625C35.1092 34.8038 35.7288 35.1983 36.4207 35.3995C37.1126 35.6007 37.8478 35.6002 38.5394 35.3979C39.231 35.1956 39.85 34.8001 40.3232 34.2581C40.7963 33.7161 41.1038 33.0503 41.2094 32.3396C41.3149 31.6288 41.2139 30.9028 40.9185 30.2475C40.6231 29.5921 40.1456 29.0348 39.5424 28.6415C38.9392 28.2482 38.2356 28.0354 37.5149 28.0282C35.3287 27.9374 33.9016 26.5147 33.7725 24.2672C33.6435 22.0197 32.3378 20.6462 30.0984 20.4343C27.7224 20.2073 26.5306 19.0079 26.3028 16.6128C26.2159 15.6513 25.76 14.7604 25.0302 14.1259C24.3004 13.4914 23.353 13.1623 22.3856 13.2072C21.4183 13.2521 20.5057 13.6675 19.8382 14.3669C19.1706 15.0663 18.7997 15.9956 18.8028 16.9609C18.7741 17.9384 19.1343 18.8875 19.8048 19.6013C20.4753 20.315 21.4017 20.7356 22.382 20.7711C24.6594 20.8884 26.1282 22.2846 26.151 24.3542C26.1776 26.5072 24.7543 27.9223 22.4314 28.0585C21.6986 28.0805 20.9878 28.3136 20.3851 28.7296C19.7823 29.1456 19.3132 29.7267 19.0347 30.4028C18.7561 31.0788 18.6799 31.8208 18.8153 32.5391C18.9506 33.2574 19.2918 33.9212 19.7975 34.4504C20.3032 34.9795 20.9518 35.3513 21.6649 35.5209C22.3781 35.6905 23.1252 35.6505 23.816 35.4059C24.5069 35.1613 25.1119 34.7224 25.5579 34.1424C26.0039 33.5623 26.2719 32.8659 26.3294 32.1373L26.3332 32.1222Z" fill="white"/>
</svg>
