<svg width="140" height="146" viewBox="0 0 140 146" fill="none" xmlns="http://www.w3.org/2000/svg">
<g clip-path="url(#clip0_1473_94106)">
<path d="M1.02604 54.1526L136.228 53.168L140 145.501L0 144.2L1.02604 54.1526Z" fill="white"/>
<path d="M1.01953 54.1503L65.0181 2.14541C66.328 1.07114 67.9671 0.484375 69.6582 0.484375C71.3492 0.484375 72.9883 1.07114 74.2983 2.14541L136.233 53.137" fill="white"/>
<g opacity="0.3">
<path d="M1.01953 54.1503L65.0181 2.14541C66.328 1.07114 67.9671 0.484375 69.6582 0.484375C71.3492 0.484375 72.9883 1.07114 74.2983 2.14541L136.233 53.137" fill="#A1A1A1"/>
</g>
<path d="M0.00592647 144.197C-0.166036 144.036 10.6618 132.169 24.1781 117.682C37.6943 103.195 48.826 91.5874 48.9635 91.7717C49.1011 91.9559 38.3133 103.794 24.7857 118.258C11.258 132.722 0.172156 144.352 0.00592647 144.197Z" fill="#0CAA70"/>
<path d="M139.999 145.501C139.827 145.657 129.286 134.026 116.457 119.528C103.629 105.029 93.3687 93.1453 93.5292 92.9898C93.6897 92.8344 104.242 104.465 117.077 118.969C129.911 133.473 140.171 145.346 139.999 145.501Z" fill="#0CAA70"/>
<g opacity="0.5">
<path d="M136.228 53.168L68.3371 107.649L1.02539 54.1526" fill="#A1A1A1"/>
</g>
<path d="M7.83513 59.1941L7.62305 16.7818L126.013 15.3711L127.349 60.0002L68.3314 106.932L7.83513 59.1941Z" fill="white"/>
<path d="M7.84141 59.2032L8.9477 60.0554L12.1634 62.5658L24.3784 72.1641L68.4122 106.838H68.2574L127.258 59.8884L127.2 60.0093C126.948 51.4992 126.679 42.563 126.409 33.4771C126.226 27.3565 126.042 21.3108 125.87 15.3802L126.019 15.5299L7.62933 16.8772L7.72678 16.7851C7.77264 30.1318 7.80703 40.7262 7.82995 47.9926C7.82995 51.6259 7.82995 54.4242 7.82995 56.3185V58.4662C7.82995 58.9498 7.82995 59.2032 7.82995 59.2032C7.82995 59.2032 7.82995 58.9614 7.82995 58.4777C7.82995 57.994 7.82995 57.2801 7.82995 56.3415C7.82995 54.4472 7.78983 51.6546 7.76117 48.0272C7.71532 40.755 7.64653 30.1433 7.56055 16.7851V16.6699H7.65798L126.014 15.2305H126.163V15.3802C126.34 21.305 126.524 27.3565 126.707 33.4713C126.977 42.563 127.246 51.4934 127.498 60.0093V60.0841L127.441 60.1302L68.4007 107.039L68.3262 107.097L68.2459 107.039L24.2466 72.2505L12.0831 62.6061L8.90759 60.0784L7.84141 59.2032Z" fill="#0CAA70"/>
<path d="M107.303 36.7329C107.303 36.8135 89.2016 36.992 66.8694 37.1302C44.5373 37.2684 26.4297 37.3087 26.4297 37.2223C26.4297 37.1359 44.5316 36.9632 66.8694 36.825C89.2073 36.6868 107.303 36.6465 107.303 36.7329Z" fill="#0CAA70"/>
<path d="M107.303 48.7173C107.303 48.7979 89.2016 48.9764 66.8694 49.1088C44.5373 49.2412 26.4297 49.293 26.4297 49.2067C26.4297 49.1203 44.5316 48.9476 66.8694 48.8094C89.2073 48.6712 107.303 48.6309 107.303 48.7173Z" fill="#0CAA70"/>
<path d="M107.303 62.5243C107.303 62.6049 89.2016 62.7834 66.8694 62.9215C44.5373 63.0597 26.4297 63.1 26.4297 63.0194C26.4297 62.9388 44.5316 62.7546 66.8694 62.6221C89.2073 62.4897 107.303 62.4436 107.303 62.5243Z" fill="#0CAA70"/>
<path d="M107.304 76.3322C107.304 76.4185 90.0333 76.5913 68.7329 76.7179C47.4326 76.8446 30.1504 76.8849 30.1504 76.8043C30.1504 76.7237 47.4154 76.551 68.7272 76.4185C90.039 76.2861 107.304 76.2515 107.304 76.3322Z" fill="#0CAA70"/>
<path d="M92.1605 88.4507C92.0033 88.4768 91.844 88.4884 91.6847 88.4852L90.3262 88.5255L85.3221 88.6061L68.8195 88.8422C62.3766 88.9516 56.5414 88.9919 52.3169 88.9919H47.3128H45.9543C45.7951 88.9983 45.6357 88.9887 45.4785 88.9631C45.6357 88.9366 45.795 88.925 45.9543 88.9286L47.3128 88.894L52.3111 88.8134L68.8195 88.5716C75.2623 88.4679 81.0976 88.4276 85.3221 88.4219H90.3262H91.6847C91.8437 88.4217 92.0026 88.4313 92.1605 88.4507Z" fill="#0CAA70"/>
<path d="M76.9247 100.107C76.9247 100.187 73.0613 100.256 68.3266 100.256C63.5919 100.256 59.7285 100.187 59.7285 100.107C59.7285 100.026 63.5862 99.957 68.3266 99.957C73.067 99.957 76.9247 100.026 76.9247 100.107Z" fill="#0CAA70"/>
<path d="M113.048 90.6965C120.946 90.6965 127.349 84.2647 127.349 76.3307C127.349 68.3966 120.946 61.9648 113.048 61.9648C105.149 61.9648 98.7461 68.3966 98.7461 76.3307C98.7461 84.2647 105.149 90.6965 113.048 90.6965Z" fill="#FE8045"/>
<path d="M114.87 69.6406V81.5824H112.657V71.5062H110.146V69.6406H114.87Z" fill="white"/>
</g>
<defs>
<clipPath id="clip0_1473_94106">
<rect width="140" height="145" fill="white" transform="translate(0 0.5)"/>
</clipPath>
</defs>
</svg>
