<svg width="20" height="20" viewBox="0 0 20 20" fill="none" xmlns="http://www.w3.org/2000/svg">
<g clip-path="url(#clip0_1436_85194)">
<path d="M18.3351 14.0975V16.5975C18.3361 16.8296 18.2886 17.0593 18.1956 17.2719C18.1026 17.4846 17.9662 17.6755 17.7952 17.8324C17.6242 17.9893 17.4223 18.1087 17.2024 18.1831C16.9826 18.2574 16.7496 18.285 16.5185 18.2641C13.9542 17.9855 11.491 17.1093 9.32682 15.7058C7.31334 14.4264 5.60626 12.7193 4.32682 10.7058C2.91846 8.53181 2.04202 6.05664 1.76848 3.48081C1.74766 3.25037 1.77505 3.01811 1.8489 2.79883C1.92275 2.57955 2.04146 2.37805 2.19745 2.20716C2.35345 2.03627 2.54332 1.89973 2.75498 1.80624C2.96663 1.71276 3.19543 1.66436 3.42682 1.66414H5.92682C6.33124 1.66016 6.72331 1.80338 7.02995 2.06709C7.33659 2.3308 7.53688 2.69702 7.59348 3.09748C7.699 3.89753 7.89469 4.68308 8.17682 5.43914C8.28894 5.73741 8.3132 6.06157 8.24674 6.37321C8.18028 6.68485 8.02587 6.9709 7.80182 7.19748L6.74348 8.25581C7.92978 10.3421 9.65719 12.0695 11.7435 13.2558L12.8018 12.1975C13.0284 11.9734 13.3144 11.819 13.6261 11.7526C13.9377 11.6861 14.2619 11.7104 14.5601 11.8225C15.3162 12.1046 16.1018 12.3003 16.9018 12.4058C17.3066 12.4629 17.6763 12.6668 17.9406 12.9787C18.2049 13.2906 18.3453 13.6888 18.3351 14.0975Z" stroke="#FE8045" stroke-width="2" stroke-linecap="round" stroke-linejoin="round"/>
</g>
<defs>
<clipPath id="clip0_1436_85194">
<rect width="20" height="20" fill="white"/>
</clipPath>
</defs>
</svg>
