<svg width="18" height="14" viewBox="0 0 18 14" fill="none" xmlns="http://www.w3.org/2000/svg">
<path d="M18 2.67952e-07V3.68421C18 4.80312 17.8049 5.99025 17.4148 7.24561C17.0112 8.51462 16.4327 9.73587 15.6794 10.9094C14.9126 12.0965 13.991 13.1267 12.9148 14L10.3318 11.8713C11.1794 10.6433 11.9193 9.36062 12.5516 8.02339C13.1704 6.69981 13.4798 5.2807 13.4798 3.76608V2.67952e-07H18ZM7.66816 2.67952e-07V3.68421C7.66816 4.80312 7.47309 5.99025 7.08296 7.24561C6.67937 8.51462 6.1009 9.73587 5.34753 10.9094C4.58072 12.0965 3.65919 13.1267 2.58296 14L-3.88244e-07 11.8713C0.847534 10.6433 1.58744 9.36062 2.21973 8.02339C2.83857 6.69981 3.14798 5.2807 3.14798 3.76608V2.67952e-07H7.66816Z" fill="#0CAA70"/>
</svg>
