<svg width="27" height="27" viewBox="0 0 27 27" fill="none" xmlns="http://www.w3.org/2000/svg">
<path d="M15.5372 19.0781L15.5372 19.0781L15.5361 19.0741C14.9067 16.8428 14.5965 14.2421 14.5965 11.2793V6.1733C14.5965 5.46843 14.7731 4.84795 15.2138 4.40722C15.6546 3.96648 16.275 3.78992 16.9799 3.78992H21.8348C22.5397 3.78992 23.1602 3.96648 23.6009 4.40722C24.0416 4.84795 24.2182 5.46843 24.2182 6.1733V11.2793C24.2182 11.9842 24.0416 12.6047 23.6009 13.0454C23.1602 13.4861 22.5397 13.6627 21.8348 13.6627H20.167C20.218 15.1511 20.4976 16.5706 21.0047 17.9235C21.5991 19.4627 22.3412 20.5992 23.2119 21.3676L23.212 21.3675L23.2175 21.3725C23.5527 21.6772 23.8238 22.0242 23.9045 22.4159C23.9954 22.8574 23.8247 23.2422 23.5153 23.531L21.6319 25.2888C21.3253 25.575 20.9455 25.7166 20.5227 25.6594C20.1288 25.6062 19.758 25.3883 19.4154 25.0924L19.4153 25.0925L19.409 25.0868C17.5032 23.3831 16.2071 21.3791 15.5372 19.0781ZM1.72585 19.0781L1.72583 19.0781L1.72469 19.0741C1.09535 16.8428 0.785156 14.2421 0.785156 11.2793V6.1733C0.785156 5.46843 0.961711 4.84795 1.40245 4.40722C1.84318 3.96648 2.46366 3.78992 3.16853 3.78992H8.02344C8.7283 3.78992 9.34878 3.96648 9.78952 4.40722C10.2303 4.84795 10.4068 5.46843 10.4068 6.1733V11.2793C10.4068 11.9842 10.2303 12.6047 9.78952 13.0454C9.34878 13.4861 8.7283 13.6627 8.02344 13.6627H6.35562C6.40659 15.1511 6.68626 16.5706 7.19334 17.9235C7.78771 19.4627 8.52977 20.5992 9.40057 21.3676L9.4006 21.3675L9.40609 21.3725C9.74127 21.6772 10.0124 22.0242 10.0931 22.4159C10.184 22.8574 10.0133 23.2422 9.70388 23.531L7.82051 25.2888C7.51394 25.575 7.13407 25.7166 6.71136 25.6594C6.31742 25.6062 5.9466 25.3883 5.60399 25.0924L5.60395 25.0925L5.59757 25.0868C3.69178 23.3831 2.39575 21.3791 1.72585 19.0781Z" stroke="#0CAA70"/>
</svg>
