<svg width="33" height="34" viewBox="0 0 33 34" fill="none" xmlns="http://www.w3.org/2000/svg">
<g id="satisfaction">
<path id="Vector" fill-rule="evenodd" clip-rule="evenodd" d="M16.5433 3.73822L17.3032 5.73958C17.326 5.79975 17.3792 5.83837 17.4434 5.8415L19.5816 5.94574C19.7271 5.95282 19.7866 6.13604 19.6731 6.22724L18.0045 7.56838C17.9544 7.60868 17.934 7.67124 17.9509 7.7333L18.5125 9.79903C18.5507 9.9395 18.3949 10.0528 18.2731 9.97297L16.482 8.80051C16.4281 8.76529 16.3624 8.76529 16.3086 8.80051L14.5175 9.97304C14.3957 10.0528 14.2398 9.93957 14.278 9.7991L14.8396 7.7333C14.8565 7.67118 14.8363 7.60868 14.786 7.56838L13.1175 6.22724C13.0039 6.13604 13.0635 5.95282 13.2089 5.94574L15.3471 5.8415C15.4114 5.83837 15.4646 5.79975 15.4874 5.73958L16.2472 3.73822C16.2987 3.60289 16.4919 3.60289 16.5433 3.73822ZM26.4655 20.2063C29.2698 20.2063 31.5432 22.4797 31.5432 25.2841C31.5432 28.0885 29.2698 30.3619 26.4655 30.3619C23.6611 30.3619 21.3877 28.0885 21.3877 25.2841C21.3877 22.4797 23.6611 20.2063 26.4655 20.2063ZM25.7985 25.732L24.6639 24.5974C24.3699 24.3033 23.8929 24.3033 23.5988 24.5974C23.3047 24.8914 23.3047 25.3684 23.5988 25.6625L25.2676 27.3312C25.5616 27.6253 26.0386 27.6253 26.3326 27.3312C27.3385 26.3254 28.3329 25.3082 29.3342 24.2977C29.6261 24.0031 29.6252 23.5276 29.3309 23.2349C29.0365 22.9422 28.5598 22.9431 28.2675 23.2382L25.7985 25.732ZM16.3953 11.8004C18.478 11.8004 20.1663 13.4887 20.1663 15.5714C20.1663 17.6541 18.478 19.3424 16.3953 19.3424C14.3127 19.3424 12.6243 17.6541 12.6243 15.5714C12.6243 13.4887 14.3127 11.8004 16.3953 11.8004ZM9.71378 26.6251L20.5335 26.6251C20.4364 26.1936 20.3848 25.7449 20.3848 25.284C20.3848 24.0342 20.7622 22.8725 21.4088 21.9063C20.0845 20.7029 18.3257 19.9692 16.3953 19.9692C12.8112 19.9692 9.81777 22.4975 9.10063 25.8678C9.01714 26.2599 9.31287 26.6251 9.71378 26.6251ZM31.2987 12.4282L29.9454 14.087C29.9047 14.1368 29.8979 14.2022 29.9273 14.2594L30.9061 16.1633C30.9727 16.2928 30.8438 16.4359 30.7081 16.3832L28.7124 15.6087C28.6524 15.5855 28.5881 15.5991 28.5427 15.6448L27.0346 17.1641C26.932 17.2674 26.7561 17.1891 26.7642 17.0437L26.8841 14.9063C26.8877 14.842 26.8548 14.7851 26.7974 14.7561L24.8864 13.7912C24.7564 13.7256 24.7766 13.534 24.9173 13.4969L26.9871 12.9504C27.0493 12.9339 27.0933 12.8851 27.1031 12.8215L27.4303 10.7059C27.4525 10.562 27.6409 10.5219 27.7198 10.6444L28.8791 12.444C28.914 12.4981 28.974 12.5249 29.0375 12.5145L31.1507 12.1719C31.2936 12.1487 31.3902 12.3161 31.2987 12.4282ZM25.0853 6.10633C25.1085 5.96348 24.9411 5.86682 24.8289 5.95834L23.1702 7.31164C23.1203 7.35232 23.055 7.35921 22.9977 7.32975L21.0938 6.35091C20.9644 6.28435 20.8212 6.41322 20.8739 6.54899L21.6484 8.54471C21.6716 8.6047 21.658 8.66895 21.6123 8.71433L20.0931 10.2226C19.9897 10.3251 20.068 10.5011 20.2134 10.4929L22.3508 10.3731C22.415 10.3694 22.472 10.4023 22.501 10.4598L23.4659 12.3707C23.5315 12.5007 23.7231 12.4806 23.7602 12.3398L24.3068 10.27C24.3232 10.2078 24.372 10.1638 24.4356 10.154L26.5512 9.82686C26.6951 9.80461 26.7352 9.61619 26.6128 9.53734L24.8132 8.37798C24.7591 8.34313 24.7324 8.28308 24.7427 8.21958L25.0853 6.10633ZM1.63982 12.1718L3.753 12.5145C3.8165 12.5247 3.87655 12.498 3.9114 12.4439L5.07076 10.6444C5.14961 10.5219 5.33804 10.562 5.36029 10.7059L5.68742 12.8215C5.69726 12.8851 5.7412 12.934 5.80345 12.9504L7.87326 13.4969C8.01404 13.5341 8.03416 13.7257 7.90422 13.7913L5.99325 14.7562C5.93583 14.7852 5.90299 14.8421 5.90656 14.9064L6.02641 17.0438C6.03455 17.1891 5.85861 17.2675 5.75606 17.1642L4.24775 15.6447C4.20243 15.5991 4.13812 15.5854 4.07813 15.6087L2.08241 16.3832C1.94671 16.4358 1.81777 16.2927 1.8844 16.1632L2.86324 14.2593C2.8927 14.2021 2.8858 14.1367 2.84512 14.0869L1.49182 12.4282C1.40031 12.316 1.49696 12.1487 1.63982 12.1718ZM7.96164 5.95834C7.8495 5.86682 7.68214 5.96348 7.70533 6.10633L8.04795 8.21946C8.05823 8.28295 8.03153 8.343 7.97744 8.37785L6.17778 9.53721C6.05536 9.61607 6.09542 9.80449 6.23933 9.82674L8.35497 10.1539C8.41853 10.1637 8.46736 10.2077 8.48384 10.2699L9.03036 12.3397C9.06753 12.4805 9.25909 12.5006 9.32472 12.3706L10.2896 10.4596C10.3186 10.4022 10.3755 10.3694 10.4398 10.3729L12.5771 10.4928C12.7225 10.5009 12.8009 10.325 12.6975 10.2224L11.1782 8.7142C11.1325 8.66888 11.1189 8.60457 11.1422 8.54458L11.9167 6.5488C11.9693 6.41309 11.8262 6.28416 11.6967 6.35079L9.79289 7.32963C9.73566 7.35902 9.67028 7.35219 9.62045 7.31151L7.96164 5.95834Z" fill="#FF9A6B"/>
</g>
</svg>
