<svg width="60" height="60" viewBox="0 0 60 60" fill="none" xmlns="http://www.w3.org/2000/svg">
<g opacity="0.1" clip-path="url(#clip0_1128_8754)">
<path d="M38.748 7.35245C38.748 6.61278 38.1484 6.01318 37.4087 6.01318C36.6691 6.01318 36.0693 6.61278 36.0693 7.35245V27.6128C36.0693 28.3524 36.6691 28.952 37.4087 28.952C38.1484 28.952 38.748 28.3524 38.748 27.6128V7.35245ZM21.2523 26.8255C21.2523 27.5651 21.8519 28.1649 22.5916 28.1649C23.3313 28.1649 23.9308 27.5651 23.9308 26.8255V7.35245C23.9308 6.61278 23.3313 6.01318 22.5916 6.01318C21.8519 6.01318 21.2523 6.61278 21.2523 7.35245V26.8255Z" fill="white"/>
<path d="M40.2169 0H19.7833C18.7949 0 17.9937 0.801255 17.9937 1.78965V5.56273C17.9937 6.55113 18.7949 7.35238 19.7833 7.35238H40.2169C41.2053 7.35238 42.0066 6.55113 42.0066 5.56273V1.78965C42.0066 0.801255 41.2053 0 40.2169 0Z" fill="white"/>
<path d="M22.3234 21.969H27.2047V24.1023H22.3234V21.969Z" fill="white"/>
<path d="M22.3234 17.916H25.3989V20.0493H22.3234V17.916Z" fill="white"/>
<path d="M22.3234 13.863H27.2047V15.9965H22.3234V13.863Z" fill="white"/>
<path fill-rule="evenodd" clip-rule="evenodd" d="M43.8859 13.2331L48.29 6.59571C53.6401 -1.46796 61.4685 6.36041 53.4049 11.7105L46.7674 16.1148L43.8859 13.2331Z" fill="white"/>
<path fill-rule="evenodd" clip-rule="evenodd" d="M13.2335 43.885L6.59599 48.2892C-1.46755 53.6394 6.36083 61.4678 11.711 53.4041L16.1151 46.7667L13.2335 43.885Z" fill="white"/>
<path fill-rule="evenodd" clip-rule="evenodd" d="M38.748 51.2522V27.6127C36.804 27.6127 34.86 26.8254 32.9161 26.8254C30.9721 26.8254 29.0281 27.6127 27.0843 27.6127C25.1403 27.6127 23.1963 26.8254 21.2523 26.8254V36.1727V41.323V51.2522C21.2523 56.0636 25.1889 60.0002 30.0002 60.0002C34.8115 60.0002 38.748 56.0636 38.748 51.2522Z" fill="white"/>
<path fill-rule="evenodd" clip-rule="evenodd" d="M16.7197 45.8559L20.1812 42.3944V37.2441L14.1445 43.2808L16.7197 45.8559Z" fill="white"/>
<path fill-rule="evenodd" clip-rule="evenodd" d="M39.8196 22.756L45.8562 16.7192L43.2811 14.144L39.8196 17.6056V22.756Z" fill="white"/>
</g>
<defs>
<clipPath id="clip0_1128_8754">
<rect width="60" height="60" fill="white"/>
</clipPath>
</defs>
</svg>
