<svg width="41" height="40" viewBox="0 0 41 40" fill="none" xmlns="http://www.w3.org/2000/svg">
<path d="M20.5 40C31.5483 40 40.5 31.0483 40.5 20C40.5 8.95167 31.5483 0 20.5 0C9.45167 0 0.5 8.95167 0.5 20C0.5 31.0483 9.45167 40 20.5 40ZM9.65167 19.5667L28.935 12.1317C29.83 11.8083 30.6117 12.35 30.3217 13.7033L30.3233 13.7017L27.04 29.17C26.7967 30.2667 26.145 30.5333 25.2333 30.0167L20.2333 26.3317L17.8217 28.655C17.555 28.9217 17.33 29.1467 16.8133 29.1467L17.1683 24.0583L26.435 15.6867C26.8383 15.3317 26.345 15.1317 25.8133 15.485L14.3617 22.695L9.425 21.155C8.35333 20.815 8.33 20.0833 9.65167 19.5667Z" fill="#0CAA70"/>
</svg>
