<svg width="41" height="40" viewBox="0 0 41 40" fill="none" xmlns="http://www.w3.org/2000/svg">
<g clip-path="url(#clip0_1436_84293)">
<path d="M20.5 0C16.5444 0 12.6776 1.17298 9.3886 3.37061C6.09962 5.56824 3.53617 8.69181 2.02242 12.3463C0.508666 16.0009 0.112599 20.0222 0.884303 23.9018C1.65601 27.7814 3.56082 31.3451 6.35787 34.1421C9.15492 36.9392 12.7186 38.844 16.5982 39.6157C20.4778 40.3874 24.4992 39.9913 28.1537 38.4776C31.8082 36.9638 34.9318 34.4004 37.1294 31.1114C39.327 27.8224 40.5 23.9556 40.5 20C40.5 14.6957 38.3929 9.60859 34.6421 5.85786C30.8914 2.10714 25.8043 0 20.5 0ZM32.0273 27.8273C31.4455 27.9091 28.6 27.8273 28.4523 27.8273C27.7167 27.8369 27.007 27.556 26.4773 27.0455C25.8773 26.4659 25.3409 25.8295 24.7546 25.2273C24.5818 25.0424 24.394 24.8721 24.1932 24.7182C23.725 24.3591 23.2614 24.4386 23.0409 24.9932C22.8688 25.59 22.7486 26.2006 22.6818 26.8182C22.6432 27.3773 22.2886 27.7273 21.6614 27.7659C21.2727 27.7864 20.8841 27.7955 20.5 27.7841C19.1001 27.7764 17.722 27.436 16.4796 26.7909C15.1348 26.0423 13.9631 25.0185 13.0409 23.7864C11.525 21.85 10.3136 19.7227 9.23183 17.5295C9.17501 17.4182 8.06592 15.0591 8.03864 14.9477C7.93864 14.5773 8.03864 14.2205 8.34546 14.0955C8.54092 14.0205 12.1955 14.0955 12.2568 14.0955C12.5287 14.0936 12.7941 14.1783 13.0148 14.3372C13.2354 14.4961 13.3997 14.7211 13.4841 14.9795C14.1603 16.7091 15.0852 18.3307 16.2296 19.7932C16.3899 19.988 16.5774 20.1587 16.7864 20.3C17.0841 20.5045 17.3659 20.4341 17.4886 20.0886C17.6343 19.6125 17.7198 19.1201 17.7432 18.6227C17.7636 17.6364 17.7432 16.9886 17.6886 16.0023C17.6523 15.3705 17.4296 14.8182 16.4977 14.6386C16.2114 14.5864 16.1864 14.35 16.3705 14.1136C16.7546 13.625 17.2796 13.5455 17.8682 13.5159C18.7455 13.4659 19.6227 13.5 20.5 13.5159H20.6909C21.0727 13.5145 21.4536 13.5534 21.8273 13.6318C22.0484 13.6769 22.249 13.7922 22.3992 13.9605C22.5495 14.1288 22.6415 14.3412 22.6614 14.5659C22.7065 14.8148 22.7255 15.0676 22.7182 15.3205C22.6955 16.3955 22.6432 17.4727 22.6318 18.5477C22.6213 18.9743 22.6602 19.4006 22.7477 19.8182C22.8727 20.3909 23.2659 20.5341 23.6568 20.1205C24.1634 19.5869 24.6277 19.0147 25.0455 18.4091C25.7859 17.3052 26.396 16.1192 26.8636 14.875C27.1182 14.2364 27.3182 14.0955 28 14.0955H31.8773C32.1078 14.0914 32.3377 14.1221 32.5591 14.1864C32.6375 14.207 32.7108 14.2435 32.7743 14.2937C32.8379 14.344 32.8905 14.4068 32.9287 14.4783C32.9669 14.5497 32.9899 14.6283 32.9963 14.7091C33.0027 14.7899 32.9924 14.8711 32.9659 14.9477C32.775 15.7977 32.3159 16.5227 31.8296 17.2205C31.0409 18.3364 30.2091 19.425 29.4023 20.5273C29.3052 20.6698 29.2164 20.8177 29.1364 20.9705C28.8318 21.5205 28.8546 21.8273 29.2955 22.2818C30 23.0068 30.7523 23.6841 31.4318 24.4295C31.9302 24.9719 32.3804 25.5567 32.7773 26.1773C33.2614 26.9591 32.9546 27.6955 32.0273 27.8273Z" fill="#0CAA70"/>
</g>
<defs>
<clipPath id="clip0_1436_84293">
<rect width="40" height="40" fill="white" transform="translate(0.5)"/>
</clipPath>
</defs>
</svg>
