<svg width="30" height="30" viewBox="0 0 30 30" fill="none" xmlns="http://www.w3.org/2000/svg">
<g id="warning (1)" clip-path="url(#clip0_1530_63422)">
<g id="Group">
<path id="Vector" d="M15.3606 21.8162C13.7763 21.8162 12.4922 20.5324 12.4922 18.9478V3.7864C12.4922 2.20233 13.7765 0.917969 15.3606 0.917969C16.9444 0.917969 18.229 2.20233 18.229 3.7864V18.9478C18.2293 20.5324 16.945 21.8162 15.3606 21.8162Z" fill="white"/>
<path id="Vector_2" d="M15.1774 29.8079C16.5353 29.8079 17.6361 28.7072 17.6361 27.3493C17.6361 25.9914 16.5353 24.8906 15.1774 24.8906C13.8195 24.8906 12.7188 25.9914 12.7188 27.3493C12.7188 28.7072 13.8195 29.8079 15.1774 29.8079Z" fill="white"/>
</g>
</g>
<defs>
<clipPath id="clip0_1530_63422">
<rect width="28.8889" height="28.8889" fill="white" transform="translate(0.916016 0.917969)"/>
</clipPath>
</defs>
</svg>
